<svg width="450" height="368" viewBox="0 0 450 368" fill="none" xmlns="http://www.w3.org/2000/svg">
<g clip-path="url(#clip0)">
<path d="M247.443 367.606L450 250.448L202.557 107.236L0 224.393L247.443 367.606Z" fill="#DDF9FF"/>
<path d="M247.443 346.432L450 229.274L202.557 86.062L0 203.219L247.443 346.432Z" fill="#C8E6ED"/>
<path d="M247.443 346.432V350.46L450 233.291V229.274L247.443 346.432Z" fill="#63AAC0"/>
<path d="M247.443 350.46L0 207.24V203.219L247.443 346.432V350.46Z" fill="#7CC5D2"/>
<path d="M97.9435 170.831L236.73 250.988L329.258 197.547L190.468 117.389L97.9435 170.831Z" fill="#97C6DE"/>
<path d="M97.9435 154.845L236.73 235.003L329.258 181.566L190.468 101.408L97.9435 154.845Z" fill="#69A4DD"/>
<path d="M236.73 236.51V235.003L329.258 181.566V183.072L236.73 236.51Z" fill="#558FBC"/>
<path d="M322.291 71.0012L200.793 0.958643C199.712 0.337854 198.488 0.0120052 197.242 0.0137552C195.996 0.0155051 194.773 0.344792 193.694 0.968614C192.616 1.59243 191.72 2.48887 191.097 3.56809C190.474 4.6473 190.146 5.87137 190.145 7.11761V101.693L326.699 180.417L327.52 182.601L329.041 181.779V82.7105C329.043 80.3378 328.419 78.0066 327.235 75.9512C326.05 73.8958 324.345 72.1886 322.291 71.0012V71.0012Z" fill="#84CAF0"/>
<path d="M236.73 236.51L97.9435 156.352V154.845L236.73 235.003V236.51Z" fill="#558FBC"/>
<path d="M327.52 182.601L188.601 102.519V7.94313C188.599 6.69353 188.927 5.46568 189.552 4.38328C190.176 3.30088 191.074 2.40216 192.156 1.77766C193.238 1.15317 194.466 0.824958 195.715 0.826099C196.964 0.827239 198.191 1.15769 199.272 1.78416L320.755 71.8229C322.811 73.0084 324.519 74.7147 325.707 76.7703C326.895 78.8258 327.52 81.158 327.52 83.5322V182.601Z" fill="#4B91C6"/>
<path d="M322.428 175.94L193.689 101.724V5.23453L322.428 79.4503V175.94Z" fill="#F5FBFF"/>
<path d="M196.378 120.612L187.604 115.533C187.224 115.309 187.311 114.886 187.825 114.59L191.628 112.391C191.871 112.245 192.146 112.158 192.429 112.136C192.712 112.114 192.996 112.159 193.259 112.265L202.032 117.344C202.413 117.568 202.321 117.99 201.812 118.287L198.009 120.486C197.765 120.632 197.491 120.719 197.208 120.741C196.925 120.762 196.641 120.718 196.378 120.612V120.612Z" fill="#2E7DA2"/>
<path d="M207.391 126.984L198.617 121.905C198.237 121.681 198.325 121.258 198.838 120.962L202.641 118.763C202.885 118.617 203.159 118.53 203.442 118.508C203.725 118.486 204.009 118.531 204.272 118.637L213.046 123.716C213.426 123.94 213.338 124.362 212.825 124.659L209.022 126.858C208.778 127.004 208.504 127.091 208.221 127.113C207.938 127.134 207.654 127.09 207.391 126.984V126.984Z" fill="#2E7DA2"/>
<path d="M218.4 133.356L209.627 128.277C209.247 128.053 209.338 127.63 209.847 127.334L213.65 125.135C213.894 124.989 214.168 124.902 214.451 124.88C214.734 124.858 215.019 124.903 215.282 125.009L224.063 130.103C224.443 130.327 224.352 130.75 223.842 131.046L220.039 133.245C219.793 133.39 219.517 133.475 219.233 133.494C218.948 133.513 218.663 133.466 218.4 133.356V133.356Z" fill="#2E7DA2"/>
<path d="M229.41 139.728L220.636 134.668C220.256 134.444 220.343 134.021 220.857 133.725L224.66 131.526C224.903 131.381 225.176 131.294 225.459 131.272C225.741 131.25 226.025 131.294 226.287 131.4L235.061 136.479C235.441 136.703 235.353 137.125 234.84 137.422L231.037 139.621C230.792 139.763 230.518 139.846 230.236 139.865C229.953 139.883 229.671 139.836 229.41 139.728Z" fill="#2E7DA2"/>
<path d="M240.423 146.1L231.649 141.021C231.269 140.797 231.36 140.374 231.87 140.078L235.673 137.879C235.917 137.733 236.191 137.646 236.474 137.624C236.757 137.602 237.041 137.647 237.304 137.753L246.078 142.832C246.458 143.056 246.37 143.478 245.857 143.775L242.054 145.974C241.81 146.12 241.536 146.207 241.253 146.229C240.97 146.25 240.686 146.206 240.423 146.1V146.1Z" fill="#2E7DA2"/>
<path d="M251.432 152.472L242.659 147.393C242.278 147.169 242.366 146.746 242.879 146.45L246.682 144.251C246.926 144.105 247.2 144.018 247.483 143.996C247.766 143.974 248.05 144.019 248.314 144.125L257.087 149.204C257.467 149.428 257.376 149.85 256.866 150.147L253.063 152.346C252.82 152.492 252.546 152.579 252.262 152.601C251.979 152.622 251.695 152.578 251.432 152.472V152.472Z" fill="#2E7DA2"/>
<path d="M262.441 158.844L253.653 153.769C253.273 153.544 253.36 153.122 253.873 152.825L257.676 150.627C257.92 150.481 258.194 150.394 258.477 150.372C258.76 150.35 259.045 150.394 259.308 150.501L268.104 155.591C268.484 155.815 268.397 156.238 267.883 156.534L264.08 158.733C263.834 158.878 263.558 158.963 263.274 158.982C262.989 159.001 262.704 158.954 262.441 158.844V158.844Z" fill="#2E7DA2"/>
<path d="M273.455 165.216L264.681 160.156C264.301 159.932 264.392 159.509 264.902 159.213L268.705 157.014C268.948 156.868 269.223 156.781 269.506 156.759C269.789 156.737 270.073 156.782 270.336 156.888L279.132 161.948C279.513 162.172 279.425 162.594 278.912 162.891L275.109 165.09C274.862 165.239 274.584 165.328 274.297 165.35C274.009 165.372 273.721 165.326 273.455 165.216Z" fill="#2E7DA2"/>
<path d="M284.456 171.588L275.71 166.513C275.329 166.288 275.417 165.866 275.93 165.569L279.733 163.371C279.977 163.225 280.251 163.138 280.534 163.116C280.817 163.094 281.101 163.138 281.364 163.245L290.138 168.324C290.518 168.548 290.431 168.97 289.917 169.267L286.114 171.466C285.867 171.615 285.588 171.704 285.3 171.725C285.012 171.746 284.723 171.699 284.456 171.588V171.588Z" fill="#2E7DA2"/>
<path d="M295.485 177.96L286.711 172.881C286.331 172.657 286.419 172.234 286.932 171.938L290.735 169.739C290.979 169.593 291.253 169.506 291.536 169.484C291.819 169.462 292.103 169.507 292.366 169.613L301.14 174.692C301.52 174.916 301.432 175.339 300.919 175.635L297.116 177.834C296.872 177.98 296.598 178.067 296.315 178.089C296.032 178.11 295.748 178.066 295.485 177.96V177.96Z" fill="#2E7DA2"/>
<path d="M306.487 184.332L297.713 179.253C297.333 179.029 297.424 178.606 297.934 178.31L301.737 176.111C301.98 175.965 302.255 175.878 302.538 175.856C302.821 175.834 303.105 175.879 303.368 175.985L312.149 181.079C312.529 181.303 312.438 181.726 311.928 182.022L308.126 184.221C307.88 184.366 307.604 184.451 307.319 184.47C307.035 184.489 306.75 184.442 306.487 184.332V184.332Z" fill="#2E7DA2"/>
<path d="M186.471 126.131L178.04 121.251C177.557 120.969 177.66 120.448 178.314 120.083L184.744 116.374C185.379 115.993 186.266 115.94 186.768 116.218L195.199 121.098C195.682 121.38 195.579 121.901 194.925 122.266L188.494 125.975C187.863 126.341 186.954 126.413 186.471 126.131Z" fill="#2E7DA2"/>
<path d="M197.48 132.503L189.049 127.623C188.566 127.345 188.669 126.82 189.323 126.455L195.754 122.746C196.389 122.365 197.275 122.312 197.777 122.59L206.208 127.47C206.691 127.748 206.588 128.273 205.934 128.638L199.503 132.347C198.872 132.713 197.967 132.766 197.48 132.503Z" fill="#2E7DA2"/>
<path d="M208.494 138.875L200.063 133.995C199.58 133.713 199.682 133.192 200.336 132.827L206.767 129.118C207.402 128.737 208.288 128.684 208.79 128.962L217.221 133.842C217.704 134.124 217.601 134.645 216.947 135.01L210.517 138.719C209.882 139.085 208.976 139.157 208.494 138.875Z" fill="#2E7DA2"/>
<path d="M219.503 145.247L211.061 140.374C210.578 140.097 210.68 139.572 211.334 139.206L217.765 135.497C218.4 135.117 219.286 135.064 219.788 135.341L228.219 140.222C228.702 140.5 228.599 141.025 227.945 141.39L221.515 145.103C220.895 145.457 219.986 145.529 219.503 145.247Z" fill="#2E7DA2"/>
<path d="M230.516 151.619L222.089 146.739C221.606 146.457 221.709 145.936 222.363 145.571L228.793 141.862C229.428 141.481 230.315 141.428 230.817 141.706L239.248 146.586C239.73 146.868 239.628 147.389 238.974 147.754L232.543 151.463C231.904 151.829 230.999 151.901 230.516 151.619Z" fill="#2E7DA2"/>
<path d="M241.526 157.991L233.095 153.111C232.612 152.833 232.714 152.308 233.368 151.943L239.799 148.234C240.434 147.853 241.32 147.8 241.822 148.078L250.253 152.958C250.736 153.236 250.633 153.761 249.979 154.126L243.549 157.839C242.914 158.201 242.008 158.254 241.526 157.991Z" fill="#2E7DA2"/>
<path d="M252.535 164.363L244.104 159.483C243.621 159.201 243.723 158.68 244.378 158.315L250.808 154.606C251.443 154.225 252.329 154.172 252.831 154.45L261.259 159.33C261.742 159.612 261.639 160.133 260.985 160.498L254.554 164.207C253.927 164.573 253.018 164.645 252.535 164.363Z" fill="#2E7DA2"/>
<path d="M263.54 170.735L255.113 165.862C254.63 165.585 254.733 165.06 255.387 164.694L261.818 160.985C262.453 160.605 263.358 160.552 263.841 160.829L272.287 165.702C272.77 165.98 272.667 166.505 272.013 166.87L265.583 170.583C264.936 170.945 264.031 171.017 263.54 170.735Z" fill="#2E7DA2"/>
<path d="M274.569 177.107L266.126 172.227C265.643 171.945 265.746 171.424 266.4 171.059L272.831 167.35C273.466 166.969 274.352 166.916 274.854 167.194L283.285 172.074C283.768 172.356 283.665 172.877 283.011 173.242L276.581 176.951C275.945 177.317 275.04 177.389 274.569 177.107Z" fill="#2E7DA2"/>
<path d="M285.571 183.479L277.14 178.599C276.657 178.321 276.759 177.796 277.413 177.431L283.844 173.722C284.479 173.341 285.365 173.288 285.867 173.566L294.298 178.446C294.781 178.724 294.678 179.249 294.024 179.614L287.594 183.327C286.959 183.689 286.054 183.742 285.571 183.479Z" fill="#2E7DA2"/>
<path d="M296.58 189.851L288.149 184.971C287.666 184.689 287.769 184.168 288.423 183.803L294.853 180.094C295.489 179.713 296.375 179.66 296.877 179.938L305.308 184.819C305.791 185.1 305.688 185.621 305.034 185.986L298.603 189.695C297.968 190.061 297.063 190.133 296.58 189.851Z" fill="#2E7DA2"/>
<path d="M176.736 131.75L168.301 126.869C167.818 126.592 167.921 126.067 168.575 125.702L175.005 121.992C175.64 121.612 176.545 121.559 177.028 121.836L185.459 126.717C185.942 126.995 185.84 127.52 185.186 127.885L178.755 131.594C178.124 131.959 177.215 132.028 176.736 131.75Z" fill="#2E7DA2"/>
<path d="M187.745 138.122L179.314 133.241C178.831 132.96 178.934 132.439 179.588 132.074L186.018 128.364C186.654 127.984 187.54 127.931 188.042 128.208L196.473 133.089C196.956 133.371 196.853 133.892 196.199 134.257L189.764 137.966C189.133 138.331 188.243 138.404 187.745 138.122Z" fill="#2E7DA2"/>
<path d="M198.758 144.494L190.323 139.613C189.84 139.336 189.943 138.811 190.597 138.446L197.028 134.736C197.663 134.356 198.549 134.303 199.051 134.581L207.482 139.461C207.965 139.739 207.862 140.264 207.208 140.629L200.793 144.338C200.146 144.703 199.241 144.772 198.758 144.494Z" fill="#2E7DA2"/>
<path d="M209.767 150.866L201.336 145.985C200.853 145.704 200.956 145.183 201.61 144.818L208.041 141.108C208.676 140.728 209.562 140.675 210.064 140.952L218.495 145.833C218.978 146.115 218.875 146.636 218.221 147.001L211.791 150.71C211.155 151.075 210.25 151.148 209.767 150.866Z" fill="#2E7DA2"/>
<path d="M220.777 157.238L212.346 152.357C211.863 152.08 211.966 151.555 212.62 151.19L219.047 147.48C219.682 147.1 220.568 147.047 221.07 147.324L229.501 152.205C229.984 152.483 229.881 153.008 229.227 153.373L222.796 157.082C222.169 157.447 221.26 157.516 220.777 157.238Z" fill="#2E7DA2"/>
<path d="M231.79 163.61L223.359 158.729C222.876 158.448 222.979 157.927 223.633 157.562L230.075 153.849C230.71 153.468 231.596 153.415 232.098 153.693L240.529 158.573C241.012 158.855 240.909 159.376 240.255 159.741L233.825 163.45C233.178 163.819 232.273 163.892 231.79 163.61Z" fill="#2E7DA2"/>
<path d="M242.799 169.982L234.368 165.101C233.885 164.824 233.988 164.299 234.642 163.934L241.073 160.224C241.708 159.844 242.594 159.791 243.096 160.069L251.527 164.949C252.01 165.227 251.907 165.752 251.253 166.117L244.823 169.826C244.188 170.191 243.282 170.26 242.799 169.982Z" fill="#2E7DA2"/>
<path d="M253.809 176.354L245.378 171.473C244.895 171.192 244.998 170.671 245.652 170.306L252.082 166.596C252.717 166.216 253.603 166.163 254.105 166.441L262.536 171.321C263.019 171.603 262.917 172.124 262.263 172.489L255.832 176.198C255.201 176.563 254.296 176.632 253.809 176.354Z" fill="#2E7DA2"/>
<path d="M264.822 182.726L256.387 177.845C255.904 177.568 256.007 177.043 256.661 176.678L263.092 172.968C263.727 172.588 264.613 172.535 265.115 172.812L273.546 177.693C274.029 177.971 273.926 178.496 273.272 178.861L266.841 182.57C266.202 182.935 265.305 183.004 264.822 182.726Z" fill="#2E7DA2"/>
<path d="M275.831 189.098L267.4 184.217C266.917 183.936 267.02 183.415 267.674 183.05L274.105 179.34C274.74 178.96 275.626 178.907 276.128 179.185L284.559 184.065C285.042 184.347 284.939 184.868 284.285 185.233L277.854 188.942C277.231 189.307 276.314 189.376 275.831 189.098Z" fill="#2E7DA2"/>
<path d="M286.845 195.47L278.41 190.589C277.927 190.312 278.029 189.787 278.683 189.422L285.114 185.712C285.749 185.332 286.635 185.279 287.137 185.557L295.568 190.437C296.051 190.715 295.949 191.24 295.295 191.605L288.864 195.314C288.233 195.679 287.327 195.748 286.845 195.47Z" fill="#2E7DA2"/>
<path d="M166.996 137.369L158.581 132.488C158.098 132.207 158.2 131.686 158.854 131.32L165.285 127.611C165.92 127.231 166.806 127.178 167.308 127.455L175.739 132.336C176.222 132.618 176.12 133.139 175.465 133.504L169.035 137.213C168.388 137.578 167.483 137.647 166.996 137.369Z" fill="#2E7DA2"/>
<path d="M178.01 143.741L169.575 138.853C169.092 138.575 169.194 138.05 169.849 137.685L176.279 133.976C176.914 133.595 177.8 133.542 178.302 133.82L186.722 138.704C187.205 138.982 187.102 139.507 186.448 139.872L180.017 143.581C179.398 143.95 178.493 144.019 178.01 143.741Z" fill="#2E7DA2"/>
<path d="M189.004 150.113L180.573 145.232C180.09 144.951 180.192 144.43 180.846 144.064L187.277 140.355C187.912 139.975 188.798 139.922 189.3 140.199L197.75 145.076C198.233 145.358 198.131 145.879 197.476 146.244L191.046 149.953C190.411 150.322 189.502 150.391 189.004 150.113Z" fill="#2E7DA2"/>
<path d="M200.032 156.485L191.601 151.604C191.118 151.326 191.221 150.802 191.875 150.436L198.306 146.727C198.941 146.347 199.827 146.294 200.329 146.571L208.76 151.452C209.243 151.73 209.14 152.255 208.486 152.62L202.055 156.329C201.42 156.694 200.515 156.763 200.032 156.485Z" fill="#2E7DA2"/>
<path d="M211.041 162.857L202.61 157.976C202.128 157.695 202.23 157.174 202.884 156.808L209.315 153.099C209.95 152.719 210.836 152.666 211.338 152.943L219.769 157.824C220.252 158.106 220.149 158.627 219.495 158.992L213.065 162.701C212.43 163.066 211.524 163.135 211.041 162.857Z" fill="#2E7DA2"/>
<path d="M222.051 169.229L213.62 164.341C213.137 164.063 213.24 163.538 213.894 163.173L220.324 159.464C220.959 159.083 221.846 159.03 222.348 159.308L230.779 164.188C231.261 164.466 231.159 164.991 230.505 165.356L224.074 169.065C223.443 169.438 222.534 169.507 222.051 169.229Z" fill="#2E7DA2"/>
<path d="M233.064 175.601L224.633 170.72C224.15 170.439 224.253 169.918 224.907 169.552L231.338 165.843C231.973 165.463 232.859 165.41 233.361 165.687L241.792 170.568C242.275 170.85 242.172 171.371 241.518 171.736L235.087 175.445C234.452 175.81 233.547 175.879 233.064 175.601Z" fill="#2E7DA2"/>
<path d="M244.073 181.973L235.642 177.092C235.159 176.814 235.262 176.29 235.916 175.924L242.347 172.215C242.982 171.835 243.868 171.782 244.37 172.059L252.801 176.94C253.284 177.218 253.181 177.743 252.527 178.108L246.096 181.817C245.461 182.182 244.556 182.251 244.073 181.973Z" fill="#2E7DA2"/>
<path d="M255.087 188.345L246.656 183.464C246.173 183.183 246.275 182.662 246.929 182.296L253.36 178.587C253.995 178.207 254.881 178.154 255.383 178.431L263.814 183.312C264.297 183.594 264.194 184.115 263.54 184.48L257.11 188.189C256.475 188.554 255.554 188.623 255.087 188.345Z" fill="#2E7DA2"/>
<path d="M266.096 194.717L257.665 189.829C257.182 189.551 257.285 189.026 257.939 188.661L264.369 184.952C265.004 184.571 265.891 184.518 266.393 184.796L274.824 189.676C275.306 189.954 275.204 190.479 274.55 190.844L268.104 194.561C267.484 194.926 266.583 194.995 266.096 194.717Z" fill="#2E7DA2"/>
<path d="M277.105 201.089L268.674 196.208C268.191 195.927 268.294 195.406 268.948 195.04L275.379 191.331C276.014 190.951 276.9 190.894 277.402 191.175L285.833 196.056C286.316 196.338 286.213 196.859 285.559 197.224L279.132 200.933C278.497 201.298 277.588 201.367 277.105 201.089Z" fill="#2E7DA2"/>
<path d="M157.261 142.984L148.83 138.092C148.347 137.814 148.45 137.289 149.104 136.924L155.538 133.226C156.173 132.846 157.059 132.793 157.561 133.07L165.992 137.951C166.475 138.229 166.373 138.754 165.719 139.119L159.288 142.828C158.649 143.197 157.744 143.265 157.261 142.984Z" fill="#2E7DA2"/>
<path d="M168.274 149.356L159.843 144.475C159.36 144.194 159.463 143.672 160.117 143.307L166.544 139.613C167.179 139.233 168.065 139.18 168.567 139.457L176.998 144.338C177.481 144.62 177.378 145.141 176.724 145.506L170.294 149.215C169.662 149.569 168.757 149.637 168.274 149.356Z" fill="#2E7DA2"/>
<path d="M179.284 155.728L170.853 150.847C170.37 150.569 170.472 150.044 171.126 149.679L177.557 145.966C178.192 145.586 179.078 145.533 179.58 145.81L188.011 150.691C188.494 150.969 188.392 151.494 187.737 151.859L181.307 155.591C180.672 155.941 179.767 156.009 179.284 155.728Z" fill="#2E7DA2"/>
<path d="M190.293 162.1L181.862 157.219C181.379 156.938 181.482 156.416 182.136 156.051L188.566 152.342C189.202 151.962 190.088 151.909 190.59 152.186L199.021 157.067C199.504 157.349 199.401 157.87 198.747 158.235L192.316 161.944C191.666 162.313 190.776 162.381 190.293 162.1Z" fill="#2E7DA2"/>
<path d="M201.306 168.472L192.871 163.58C192.388 163.302 192.491 162.777 193.145 162.412L199.576 158.703C200.211 158.322 201.097 158.269 201.599 158.547L210.03 163.428C210.513 163.705 210.41 164.23 209.756 164.595L203.325 168.305C202.694 168.685 201.789 168.753 201.306 168.472Z" fill="#2E7DA2"/>
<path d="M212.315 174.844L203.884 169.963C203.401 169.682 203.504 169.16 204.158 168.795L210.589 165.101C211.224 164.721 212.11 164.668 212.612 164.945L221.043 169.826C221.526 170.108 221.423 170.629 220.769 170.994L214.339 174.703C213.723 175.057 212.798 175.125 212.315 174.844Z" fill="#2E7DA2"/>
<path d="M223.329 181.216L214.898 176.335C214.415 176.057 214.517 175.532 215.171 175.167L221.602 171.458C222.237 171.078 223.123 171.025 223.625 171.302L232.056 176.183C232.539 176.461 232.437 176.986 231.782 177.351L225.352 181.079C224.717 181.429 223.812 181.497 223.329 181.216Z" fill="#2E7DA2"/>
<path d="M234.338 187.588L225.892 182.711C225.409 182.429 225.512 181.908 226.166 181.543L232.596 177.834C233.231 177.454 234.137 177.4 234.619 177.678L243.05 182.559C243.533 182.84 243.431 183.361 242.777 183.727L236.346 187.436C235.726 187.801 234.821 187.869 234.338 187.588Z" fill="#2E7DA2"/>
<path d="M245.347 193.96L236.92 189.068C236.437 188.79 236.54 188.265 237.194 187.9L243.625 184.191C244.26 183.81 245.146 183.757 245.648 184.035L254.079 188.916C254.562 189.193 254.459 189.718 253.805 190.084L247.374 193.793C246.739 194.173 245.83 194.241 245.347 193.96Z" fill="#2E7DA2"/>
<path d="M256.361 200.332L247.93 195.451C247.447 195.17 247.549 194.648 248.203 194.283L254.63 190.589C255.265 190.209 256.151 190.152 256.653 190.433L265.084 195.314C265.567 195.596 265.465 196.117 264.811 196.482L258.38 200.191C257.749 200.545 256.844 200.613 256.361 200.332Z" fill="#2E7DA2"/>
<path d="M267.37 206.704L258.939 201.827C258.456 201.549 258.559 201.024 259.213 200.659L265.643 196.95C266.278 196.57 267.164 196.516 267.666 196.794L276.09 201.671C276.573 201.949 276.47 202.474 275.816 202.839L269.393 206.567C268.758 206.917 267.853 206.985 267.37 206.704Z" fill="#2E7DA2"/>
<path d="M147.526 148.603L139.091 143.722C138.608 143.44 138.711 142.919 139.365 142.554L145.795 138.853C146.43 138.472 147.316 138.419 147.818 138.697L156.249 143.577C156.732 143.855 156.63 144.38 155.976 144.745L149.545 148.454C148.914 148.812 148.009 148.884 147.526 148.603Z" fill="#2E7DA2"/>
<path d="M158.535 154.975L150.104 150.094C149.621 149.816 149.724 149.291 150.378 148.926L156.809 145.213C157.444 144.833 158.33 144.779 158.832 145.057L167.263 149.938C167.746 150.216 167.643 150.741 166.989 151.106L160.558 154.83C159.927 155.184 159.018 155.256 158.535 154.975Z" fill="#2E7DA2"/>
<path d="M169.548 161.347L161.113 156.466C160.63 156.184 160.733 155.663 161.387 155.298L167.818 151.589C168.453 151.209 169.339 151.155 169.841 151.433L178.272 156.314C178.755 156.591 178.652 157.116 177.998 157.482L171.567 161.191C170.936 161.556 170.031 161.628 169.548 161.347Z" fill="#2E7DA2"/>
<path d="M235.467 199.495L172.271 162.925C171.708 162.598 171.849 161.99 172.59 161.564L178.641 158.071C179.379 157.645 180.436 157.565 180.999 157.889L244.195 194.462C244.758 194.789 244.617 195.398 243.876 195.824L237.825 199.316C237.087 199.739 236.03 199.822 235.467 199.495Z" fill="#2E7DA2"/>
<path d="M246.621 205.951L238.19 201.07C237.707 200.792 237.81 200.267 238.464 199.902L244.906 196.193C245.541 195.813 246.427 195.759 246.929 196.037L255.36 200.918C255.843 201.195 255.741 201.72 255.087 202.086L248.644 205.806C248.013 206.16 247.104 206.232 246.621 205.951Z" fill="#2E7DA2"/>
<path d="M257.635 212.323L249.2 207.442C248.717 207.16 248.819 206.639 249.474 206.274L255.904 202.565C256.539 202.185 257.425 202.128 257.927 202.409L266.358 207.29C266.841 207.571 266.739 208.092 266.085 208.458L259.654 212.167C259.023 212.532 258.117 212.604 257.635 212.323Z" fill="#2E7DA2"/>
<path d="M196.378 120.33L187.604 115.267C187.224 115.042 187.311 114.62 187.825 114.323L191.628 112.124C191.871 111.979 192.146 111.892 192.429 111.87C192.712 111.848 192.996 111.892 193.259 111.999L202.032 117.077C202.413 117.302 202.321 117.724 201.812 118.021L198.009 120.22C197.764 120.363 197.489 120.447 197.206 120.467C196.923 120.486 196.64 120.439 196.378 120.33V120.33Z" fill="#418AB7"/>
<path d="M207.391 126.702L198.617 121.623C198.237 121.399 198.325 120.977 198.838 120.68L202.641 118.481C202.885 118.336 203.159 118.248 203.442 118.227C203.725 118.205 204.009 118.249 204.272 118.356L213.046 123.434C213.426 123.659 213.338 124.081 212.825 124.378L209.022 126.577C208.778 126.722 208.504 126.809 208.221 126.831C207.938 126.853 207.654 126.809 207.391 126.702V126.702Z" fill="#418AB7"/>
<path d="M218.4 133.074L209.627 127.995C209.247 127.771 209.338 127.349 209.847 127.052L213.65 124.853C213.894 124.708 214.168 124.62 214.451 124.599C214.734 124.577 215.019 124.621 215.282 124.728L224.055 129.806C224.435 130.031 224.344 130.453 223.834 130.75L220.032 132.948C219.788 133.094 219.514 133.181 219.231 133.203C218.947 133.225 218.663 133.181 218.4 133.074V133.074Z" fill="#418AB7"/>
<path d="M229.41 139.446L220.636 134.367C220.256 134.143 220.343 133.721 220.857 133.424L224.66 131.225C224.903 131.08 225.176 130.993 225.459 130.972C225.741 130.95 226.025 130.994 226.287 131.1L235.072 136.19C235.452 136.414 235.365 136.836 234.851 137.133L231.049 139.332C230.803 139.477 230.527 139.563 230.243 139.583C229.958 139.602 229.673 139.556 229.41 139.446V139.446Z" fill="#418AB7"/>
<path d="M240.423 145.818L231.649 140.755C231.269 140.53 231.36 140.108 231.87 139.811L235.673 137.612C235.917 137.467 236.191 137.38 236.474 137.358C236.757 137.336 237.041 137.38 237.304 137.487L246.078 142.565C246.458 142.79 246.37 143.212 245.857 143.509L242.054 145.708C241.809 145.851 241.534 145.935 241.251 145.955C240.968 145.974 240.685 145.927 240.423 145.818V145.818Z" fill="#418AB7"/>
<path d="M251.432 152.19L242.659 147.111C242.278 146.887 242.366 146.465 242.879 146.168L246.682 143.969C246.926 143.824 247.2 143.736 247.483 143.715C247.766 143.693 248.05 143.737 248.314 143.844L257.087 148.922C257.467 149.147 257.376 149.569 256.866 149.866L253.063 152.065C252.82 152.21 252.546 152.297 252.262 152.319C251.979 152.341 251.695 152.297 251.432 152.19V152.19Z" fill="#418AB7"/>
<path d="M262.441 158.562L253.653 153.487C253.273 153.263 253.36 152.841 253.873 152.544L257.676 150.345C257.92 150.199 258.194 150.112 258.477 150.09C258.76 150.069 259.045 150.113 259.308 150.219L268.104 155.294C268.484 155.519 268.397 155.941 267.883 156.238L264.08 158.437C263.836 158.583 263.56 158.671 263.276 158.693C262.991 158.715 262.706 158.67 262.441 158.562V158.562Z" fill="#418AB7"/>
<path d="M273.455 164.934L264.681 159.859C264.301 159.635 264.392 159.213 264.902 158.916L268.705 156.717C268.948 156.571 269.223 156.484 269.506 156.462C269.789 156.441 270.073 156.485 270.336 156.591L279.132 161.678C279.513 161.902 279.425 162.324 278.912 162.621L275.109 164.82C274.861 164.967 274.583 165.055 274.295 165.074C274.008 165.094 273.72 165.046 273.455 164.934V164.934Z" fill="#418AB7"/>
<path d="M284.456 171.306L275.71 166.243C275.329 166.018 275.417 165.596 275.93 165.299L279.733 163.1C279.977 162.955 280.251 162.868 280.534 162.846C280.817 162.824 281.101 162.868 281.364 162.975L290.138 168.053C290.518 168.278 290.431 168.7 289.917 168.997L286.114 171.196C285.866 171.343 285.587 171.43 285.298 171.449C285.01 171.468 284.722 171.419 284.456 171.306V171.306Z" fill="#418AB7"/>
<path d="M295.485 177.678L286.711 172.599C286.331 172.375 286.419 171.953 286.932 171.656L290.735 169.457C290.979 169.312 291.253 169.224 291.536 169.203C291.819 169.181 292.103 169.225 292.366 169.332L301.14 174.41C301.52 174.635 301.432 175.057 300.919 175.354L297.116 177.553C296.872 177.698 296.598 177.785 296.315 177.807C296.032 177.829 295.748 177.785 295.485 177.678V177.678Z" fill="#418AB7"/>
<path d="M306.487 184.05L297.713 178.971C297.333 178.747 297.424 178.325 297.934 178.028L301.737 175.829C301.98 175.684 302.255 175.596 302.538 175.575C302.821 175.553 303.105 175.597 303.368 175.704L312.141 180.782C312.522 181.007 312.43 181.429 311.921 181.726L308.118 183.925C307.874 184.07 307.6 184.157 307.317 184.179C307.034 184.201 306.75 184.157 306.487 184.05V184.05Z" fill="#418AB7"/>
<path d="M186.471 125.85L178.04 120.973C177.557 120.691 177.66 120.17 178.314 119.805L184.744 116.096C185.379 115.716 186.266 115.662 186.768 115.94L195.199 120.821C195.682 121.102 195.579 121.623 194.925 121.989L188.494 125.698C187.863 126.063 186.954 126.131 186.471 125.85Z" fill="#418AB7"/>
<path d="M197.48 132.222L189.049 127.341C188.566 127.063 188.669 126.538 189.323 126.173L195.754 122.464C196.389 122.084 197.275 122.031 197.777 122.308L206.208 127.189C206.691 127.467 206.588 127.992 205.934 128.357L199.503 132.066C198.872 132.431 197.967 132.503 197.48 132.222Z" fill="#418AB7"/>
<path d="M208.494 138.594L200.063 133.713C199.58 133.432 199.682 132.91 200.336 132.545L206.767 128.836C207.402 128.456 208.288 128.402 208.79 128.68L217.221 133.561C217.704 133.842 217.601 134.364 216.947 134.729L210.517 138.438C209.882 138.803 208.976 138.875 208.494 138.594Z" fill="#418AB7"/>
<path d="M219.503 144.966L211.061 140.085C210.578 139.807 210.68 139.282 211.334 138.917L217.765 135.208C218.4 134.828 219.286 134.775 219.788 135.052L228.219 139.933C228.702 140.211 228.599 140.736 227.945 141.101L221.515 144.814C220.895 145.175 219.986 145.247 219.503 144.966Z" fill="#418AB7"/>
<path d="M230.516 151.338L222.089 146.461C221.606 146.179 221.709 145.658 222.363 145.293L228.793 141.584C229.428 141.204 230.315 141.15 230.817 141.428L239.248 146.309C239.73 146.59 239.628 147.111 238.974 147.477L232.543 151.186C231.904 151.547 230.999 151.619 230.516 151.338Z" fill="#418AB7"/>
<path d="M241.526 157.71L233.095 152.829C232.612 152.551 232.714 152.026 233.368 151.661L239.799 147.952C240.434 147.572 241.32 147.519 241.822 147.796L250.253 152.677C250.736 152.955 250.633 153.48 249.979 153.845L243.549 157.558C242.914 157.919 242.008 157.991 241.526 157.71Z" fill="#418AB7"/>
<path d="M252.535 164.082L244.104 159.201C243.621 158.92 243.723 158.398 244.378 158.033L250.808 154.324C251.443 153.944 252.329 153.891 252.831 154.168L261.259 159.049C261.742 159.33 261.639 159.852 260.985 160.217L254.554 163.926C253.927 164.291 253.018 164.363 252.535 164.082Z" fill="#418AB7"/>
<path d="M263.54 170.454L255.109 165.573C254.626 165.295 254.729 164.77 255.383 164.405L261.814 160.696C262.449 160.316 263.354 160.263 263.837 160.54L272.287 165.421C272.77 165.699 272.667 166.224 272.013 166.589L265.583 170.302C264.936 170.663 264.031 170.735 263.54 170.454Z" fill="#418AB7"/>
<path d="M274.569 176.826L266.126 171.949C265.643 171.667 265.746 171.146 266.4 170.781L272.831 167.072C273.466 166.692 274.352 166.638 274.854 166.916L283.285 171.797C283.768 172.078 283.665 172.599 283.011 172.965L276.581 176.674C275.945 177.035 275.04 177.107 274.569 176.826Z" fill="#418AB7"/>
<path d="M285.571 183.198L277.14 178.317C276.657 178.039 276.759 177.514 277.413 177.149L283.844 173.44C284.479 173.06 285.365 173.007 285.867 173.284L294.298 178.165C294.781 178.443 294.678 178.968 294.024 179.333L287.594 183.046C286.959 183.407 286.054 183.479 285.571 183.198Z" fill="#418AB7"/>
<path d="M296.58 189.57L288.149 184.689C287.666 184.408 287.769 183.886 288.423 183.521L294.853 179.812C295.489 179.432 296.375 179.379 296.877 179.656L305.308 184.537C305.791 184.819 305.688 185.34 305.034 185.705L298.603 189.414C297.968 189.779 297.063 189.851 296.58 189.57Z" fill="#418AB7"/>
<path d="M176.736 131.469L168.305 126.588C167.822 126.31 167.924 125.785 168.578 125.42L175.009 121.711C175.644 121.331 176.549 121.277 177.032 121.555L185.463 126.436C185.946 126.713 185.844 127.238 185.189 127.604L178.759 131.313C178.124 131.678 177.215 131.75 176.736 131.469Z" fill="#418AB7"/>
<path d="M187.745 137.841L179.314 132.96C178.831 132.678 178.934 132.157 179.588 131.792L186.018 128.083C186.654 127.703 187.54 127.649 188.042 127.927L196.473 132.808C196.956 133.089 196.853 133.61 196.199 133.976L189.764 137.685C189.133 138.05 188.243 138.122 187.745 137.841Z" fill="#418AB7"/>
<path d="M198.758 144.213L190.327 139.332C189.844 139.054 189.947 138.529 190.601 138.164L197.032 134.455C197.667 134.075 198.553 134.021 199.055 134.299L207.486 139.18C207.969 139.457 207.866 139.982 207.212 140.348L200.793 144.057C200.146 144.422 199.241 144.494 198.758 144.213Z" fill="#418AB7"/>
<path d="M209.767 150.585L201.336 145.7C200.853 145.419 200.956 144.897 201.61 144.532L208.041 140.823C208.676 140.443 209.562 140.389 210.064 140.667L218.495 145.548C218.978 145.829 218.875 146.351 218.221 146.716L211.791 150.425C211.155 150.794 210.25 150.866 209.767 150.585Z" fill="#418AB7"/>
<path d="M220.777 156.957L212.346 152.076C211.863 151.798 211.966 151.273 212.62 150.908L219.047 147.199C219.682 146.819 220.568 146.765 221.07 147.043L229.501 151.924C229.984 152.201 229.881 152.726 229.227 153.092L222.796 156.801C222.169 157.166 221.26 157.234 220.777 156.957Z" fill="#418AB7"/>
<path d="M231.79 163.329L223.359 158.448C222.876 158.166 222.979 157.645 223.633 157.28L230.075 153.567C230.71 153.187 231.596 153.133 232.098 153.411L240.529 158.292C241.012 158.573 240.909 159.095 240.255 159.46L233.825 163.169C233.178 163.538 232.273 163.61 231.79 163.329Z" fill="#418AB7"/>
<path d="M242.799 169.701L234.368 164.82C233.885 164.542 233.988 164.017 234.642 163.652L241.073 159.943C241.708 159.563 242.594 159.509 243.096 159.787L251.527 164.668C252.01 164.945 251.907 165.47 251.253 165.836L244.823 169.545C244.188 169.91 243.282 169.978 242.799 169.701Z" fill="#418AB7"/>
<path d="M253.809 176.073L245.378 171.188C244.895 170.907 244.998 170.385 245.652 170.02L252.082 166.311C252.717 165.931 253.603 165.877 254.105 166.155L262.536 171.036C263.019 171.317 262.917 171.839 262.263 172.204L255.832 175.913C255.201 176.282 254.296 176.354 253.809 176.073Z" fill="#418AB7"/>
<path d="M264.822 182.445L256.391 177.564C255.908 177.286 256.011 176.761 256.665 176.396L263.096 172.687C263.731 172.307 264.617 172.253 265.119 172.531L273.55 177.412C274.033 177.689 273.93 178.214 273.276 178.58L266.845 182.289C266.202 182.654 265.305 182.722 264.822 182.445Z" fill="#418AB7"/>
<path d="M275.831 188.817L267.4 183.936C266.917 183.654 267.02 183.133 267.674 182.768L274.105 179.059C274.74 178.679 275.626 178.625 276.128 178.903L284.559 183.784C285.042 184.065 284.939 184.586 284.285 184.952L277.854 188.661C277.231 189.026 276.314 189.098 275.831 188.817Z" fill="#418AB7"/>
<path d="M286.845 195.189L278.41 190.308C277.927 190.03 278.029 189.505 278.683 189.14L285.114 185.431C285.749 185.051 286.635 184.997 287.137 185.275L295.568 190.156C296.051 190.433 295.949 190.958 295.295 191.324L288.864 195.033C288.233 195.398 287.327 195.466 286.845 195.189Z" fill="#418AB7"/>
<path d="M166.996 137.087L158.581 132.207C158.098 131.925 158.2 131.404 158.854 131.039L165.285 127.33C165.92 126.949 166.806 126.896 167.308 127.174L175.739 132.055C176.222 132.336 176.12 132.857 175.465 133.222L169.035 136.932C168.388 137.297 167.483 137.365 166.996 137.087Z" fill="#418AB7"/>
<path d="M178.01 143.459L169.579 138.579C169.096 138.301 169.198 137.776 169.852 137.411L176.283 133.702C176.918 133.321 177.804 133.268 178.306 133.546L186.722 138.423C187.205 138.7 187.102 139.225 186.448 139.591L180.017 143.3C179.398 143.669 178.492 143.737 178.01 143.459Z" fill="#418AB7"/>
<path d="M189.004 149.831L180.588 144.939C180.105 144.658 180.208 144.137 180.862 143.771L187.292 140.062C187.927 139.682 188.814 139.629 189.316 139.906L197.75 144.795C198.233 145.076 198.131 145.597 197.477 145.963L191.046 149.672C190.411 150.041 189.502 150.109 189.004 149.831Z" fill="#418AB7"/>
<path d="M200.032 156.203L191.601 151.323C191.118 151.045 191.221 150.52 191.875 150.155L198.302 146.461C198.937 146.081 199.823 146.027 200.325 146.305L208.756 151.186C209.239 151.463 209.136 151.988 208.482 152.354L202.051 156.063C201.42 156.413 200.515 156.481 200.032 156.203Z" fill="#418AB7"/>
<path d="M211.041 162.575L202.61 157.695C202.128 157.413 202.23 156.892 202.884 156.527L209.315 152.818C209.95 152.437 210.836 152.384 211.338 152.662L219.769 157.543C220.252 157.824 220.149 158.345 219.495 158.71L213.065 162.419C212.43 162.785 211.524 162.853 211.041 162.575Z" fill="#418AB7"/>
<path d="M222.051 168.947L213.62 164.067C213.137 163.789 213.24 163.264 213.894 162.899L220.324 159.19C220.959 158.809 221.846 158.756 222.348 159.034L230.779 163.915C231.261 164.192 231.159 164.717 230.505 165.082L224.074 168.792C223.443 169.157 222.534 169.225 222.051 168.947Z" fill="#418AB7"/>
<path d="M233.064 175.319L224.629 170.427C224.146 170.146 224.249 169.625 224.903 169.259L231.334 165.55C231.969 165.17 232.855 165.117 233.357 165.394L241.788 170.275C242.271 170.557 242.168 171.078 241.514 171.443L235.083 175.152C234.452 175.529 233.547 175.597 233.064 175.319Z" fill="#418AB7"/>
<path d="M244.073 181.691L235.642 176.811C235.159 176.533 235.262 176.008 235.916 175.643L242.347 171.949C242.982 171.569 243.868 171.515 244.37 171.793L252.801 176.674C253.284 176.951 253.181 177.476 252.527 177.842L246.096 181.551C245.461 181.901 244.556 181.969 244.073 181.691Z" fill="#418AB7"/>
<path d="M255.087 188.063L246.656 183.183C246.173 182.901 246.275 182.38 246.929 182.015L253.36 178.306C253.995 177.925 254.881 177.872 255.383 178.15L263.814 183.031C264.297 183.312 264.194 183.833 263.54 184.198L257.11 187.908C256.475 188.273 255.554 188.341 255.087 188.063Z" fill="#418AB7"/>
<path d="M266.096 194.435L257.665 189.555C257.182 189.277 257.285 188.752 257.939 188.387L264.369 184.678C265.004 184.297 265.891 184.244 266.393 184.522L274.824 189.403C275.306 189.68 275.204 190.205 274.55 190.57L268.104 194.28C267.484 194.645 266.583 194.713 266.096 194.435Z" fill="#418AB7"/>
<path d="M277.105 200.807L268.674 195.915C268.191 195.634 268.294 195.113 268.948 194.747L275.379 191.038C276.014 190.658 276.9 190.605 277.402 190.882L285.833 195.763C286.316 196.045 286.213 196.566 285.559 196.931L279.132 200.652C278.497 201.017 277.588 201.085 277.105 200.807Z" fill="#418AB7"/>
<path d="M157.261 142.706L148.83 137.825C148.347 137.548 148.45 137.023 149.104 136.658L155.538 132.945C156.173 132.564 157.059 132.511 157.561 132.789L165.992 137.669C166.475 137.947 166.373 138.472 165.719 138.837L159.288 142.546C158.649 142.915 157.744 142.984 157.261 142.706Z" fill="#418AB7"/>
<path d="M168.274 149.074L159.839 144.178C159.356 143.897 159.459 143.376 160.113 143.011L166.544 139.301C167.179 138.921 168.065 138.868 168.567 139.146L176.998 144.026C177.481 144.308 177.378 144.829 176.724 145.194L170.294 148.903C169.662 149.287 168.757 149.356 168.274 149.074Z" fill="#418AB7"/>
<path d="M179.284 155.45L170.853 150.569C170.37 150.292 170.472 149.767 171.126 149.402L177.553 145.7C178.188 145.32 179.074 145.266 179.576 145.544L188.007 150.425C188.49 150.703 188.388 151.228 187.734 151.593L181.303 155.302C180.672 155.659 179.767 155.728 179.284 155.45Z" fill="#418AB7"/>
<path d="M190.293 161.818L181.862 156.938C181.379 156.656 181.482 156.135 182.136 155.77L188.566 152.061C189.202 151.68 190.088 151.627 190.59 151.905L199.021 156.785C199.504 157.067 199.401 157.588 198.747 157.953L192.316 161.678C191.666 162.031 190.776 162.1 190.293 161.818Z" fill="#418AB7"/>
<path d="M201.306 168.194L192.871 163.313C192.388 163.036 192.491 162.511 193.145 162.146L199.576 158.437C200.211 158.056 201.097 158.003 201.599 158.281L210.03 163.161C210.513 163.439 210.41 163.964 209.756 164.329L203.325 168.038C202.694 168.403 201.789 168.472 201.306 168.194Z" fill="#418AB7"/>
<path d="M212.315 174.562L203.884 169.666C203.401 169.385 203.504 168.864 204.158 168.499L210.589 164.789C211.224 164.409 212.11 164.356 212.612 164.634L221.043 169.514C221.526 169.796 221.423 170.317 220.769 170.682L214.339 174.391C213.723 174.775 212.798 174.844 212.315 174.562Z" fill="#418AB7"/>
<path d="M223.329 180.934L214.894 176.057C214.411 175.78 214.514 175.255 215.168 174.89L221.598 171.188C222.233 170.808 223.119 170.754 223.621 171.032L232.052 175.913C232.535 176.191 232.433 176.716 231.779 177.081L225.348 180.79C224.717 181.147 223.812 181.216 223.329 180.934Z" fill="#418AB7"/>
<path d="M234.338 187.306L225.892 182.429C225.409 182.148 225.512 181.627 226.166 181.262L232.596 177.553C233.231 177.172 234.137 177.119 234.619 177.397L243.05 182.277C243.533 182.559 243.431 183.08 242.777 183.445L236.361 187.166C235.726 187.519 234.821 187.588 234.338 187.306Z" fill="#418AB7"/>
<path d="M245.347 193.678L236.92 188.801C236.437 188.524 236.54 187.999 237.194 187.634L243.625 183.925C244.26 183.544 245.146 183.491 245.648 183.769L254.079 188.649C254.562 188.927 254.459 189.452 253.805 189.817L247.374 193.526C246.739 193.891 245.83 193.96 245.347 193.678Z" fill="#418AB7"/>
<path d="M256.36 200.05L247.926 195.154C247.443 194.873 247.545 194.352 248.199 193.987L254.63 190.277C255.265 189.897 256.151 189.844 256.653 190.122L265.084 195.002C265.567 195.284 265.465 195.805 264.811 196.17L258.38 199.879C257.749 200.263 256.843 200.332 256.36 200.05Z" fill="#418AB7"/>
<path d="M267.37 206.422L258.939 201.545C258.456 201.268 258.559 200.743 259.213 200.378L265.64 196.676C266.275 196.296 267.161 196.242 267.663 196.52L276.09 201.39C276.573 201.667 276.47 202.192 275.816 202.557L269.385 206.267C268.758 206.636 267.853 206.704 267.37 206.422Z" fill="#418AB7"/>
<path d="M147.526 148.321L139.095 143.44C138.612 143.159 138.714 142.638 139.368 142.273L145.799 138.563C146.434 138.183 147.32 138.13 147.822 138.407L156.253 143.288C156.736 143.566 156.634 144.091 155.979 144.456L149.549 148.165C148.914 148.53 148.009 148.603 147.526 148.321Z" fill="#418AB7"/>
<path d="M158.535 154.693L150.104 149.812C149.621 149.535 149.724 149.01 150.378 148.645L156.809 144.939C157.444 144.559 158.33 144.506 158.832 144.783L167.263 149.664C167.746 149.942 167.643 150.467 166.989 150.832L160.558 154.541C159.927 154.902 159.018 154.975 158.535 154.693Z" fill="#418AB7"/>
<path d="M169.548 161.065L161.117 156.184C160.634 155.903 160.737 155.382 161.391 155.017L167.822 151.307C168.457 150.927 169.343 150.874 169.845 151.152L178.276 156.032C178.759 156.31 178.656 156.835 178.002 157.2L171.571 160.917C170.936 161.278 170.031 161.347 169.548 161.065Z" fill="#418AB7"/>
<path d="M235.467 199.214L172.271 162.644C171.708 162.317 171.849 161.708 172.59 161.282L178.641 157.79C179.379 157.364 180.436 157.284 180.999 157.607L244.195 194.181C244.758 194.508 244.617 195.116 243.876 195.543L237.825 199.035C237.087 199.457 236.03 199.541 235.467 199.214Z" fill="#418AB7"/>
<path d="M246.621 205.669L238.19 200.788C237.707 200.511 237.81 199.986 238.464 199.621L244.906 195.915C245.541 195.535 246.427 195.482 246.929 195.759L255.36 200.64C255.843 200.918 255.741 201.443 255.087 201.808L248.656 205.517C248.013 205.878 247.104 205.951 246.621 205.669Z" fill="#418AB7"/>
<path d="M257.635 212.041L249.204 207.16C248.721 206.879 248.823 206.358 249.477 205.993L255.908 202.283C256.543 201.903 257.429 201.85 257.931 202.128L266.362 207.008C266.845 207.29 266.742 207.811 266.088 208.176L259.658 211.893C259.023 212.25 258.117 212.323 257.635 212.041Z" fill="#418AB7"/>
<path d="M123.906 264.227C139.788 264.227 152.663 256.787 152.663 247.61C152.663 238.433 139.788 230.994 123.906 230.994C108.024 230.994 95.1484 238.433 95.1484 247.61C95.1484 256.787 108.024 264.227 123.906 264.227Z" fill="#97C6DE"/>
<path d="M116.41 250.616C116.41 250.616 115.015 255.302 118.65 256.322C122.286 257.341 122.913 255.299 124.21 254.633C125.507 253.967 133.611 249.756 135.132 247.839C136.653 245.921 132.052 243.007 124.948 247.523L116.41 250.616Z" fill="#113F54"/>
<path d="M101.64 242.326C101.64 242.326 99.9209 246.633 103.267 247.896C106.614 249.159 107.831 245.742 108.827 245.111C109.991 244.369 113.771 241.919 115.387 240.242C117.004 238.564 114.585 234.916 107.489 238.556L101.64 242.326Z" fill="#113F54"/>
<path d="M104.815 173.935C104.815 173.935 103.834 203.227 104.116 208.823C101.176 215.67 100.853 236.304 101.644 242.87C101.644 243.905 109.576 244.076 109.576 240.405C109.576 236.734 112.752 216.572 113.615 213.677C114.478 210.782 117.372 201.241 117.372 201.241V173.935L108.04 172.546L104.815 173.935Z" fill="#1F5779"/>
<path d="M138.231 162.439C138.231 162.439 132.5 164.93 128.245 158.691C123.989 152.453 131.884 153.541 131.884 153.541L137.345 156.778L138.231 162.439Z" fill="#1C516E"/>
<path d="M115.924 250.129C116.011 251.323 125.328 252.944 125.328 248.736C125.328 244.529 125.788 225.44 127.039 217.493C128.291 209.546 131.603 195.516 130.394 186.272C129.184 177.028 128.994 173.395 128.808 171.078H115.117C115.117 171.078 116.638 210.569 116.638 214.213C116.638 217.858 115.482 243.958 115.924 250.129Z" fill="#2A6690"/>
<path d="M116.973 126.748C115.859 125.923 114.56 125.385 113.189 125.181C111.818 124.978 110.418 125.114 109.113 125.58C105.139 126.93 102.207 131.549 102.207 139.043C102.207 146.537 106.268 148.858 106.268 159.893C106.268 170.929 102.264 173.619 102.906 181.927C103.549 190.236 128.272 193.553 131.702 188.931C134.292 184.59 128.945 164.964 129.671 158.958C130.397 152.951 133.554 139.556 132.09 135.893C131.086 133.386 123.271 127.908 116.973 126.748Z" fill="#2A6690"/>
<path d="M131.261 155.971C134.428 162.515 136.965 162.819 138.231 162.412C140.133 161.777 141.004 159.369 139.851 154.18C138.699 148.991 134.885 132.808 129.39 135.048C123.723 137.331 128.093 149.447 131.261 155.971Z" fill="#225A7C"/>
<path d="M115.182 122.057V126.866C115.182 128.387 119.513 130.354 123.301 128.593V124.534C123.301 124.534 127.595 125.142 128.526 124.534C129.458 123.925 130.299 110.458 127.732 108.879C123.548 105.631 113.03 107 113.03 113.517C113.037 115.567 115.182 118.089 115.182 122.057Z" fill="#F3976B"/>
<path d="M112.311 113.395C113.562 114.852 121.058 113.471 123.864 111.835C126.671 110.2 132.732 105.482 130.165 100.86C127.598 96.2382 126.363 101.279 122.138 102.215C117.913 103.15 106.032 106.087 112.311 113.395Z" fill="#6B4434"/>
<path d="M111.2 111.843C110.561 114.97 113.961 123.37 115.383 123.37C118.426 123.328 121.088 118.527 123.503 117.663C125.917 116.8 128.123 111.535 126.092 110.336C124.062 109.138 111.2 111.843 111.2 111.843Z" fill="#6B4434"/>
<path d="M125.195 130.179C125.328 130.909 121.67 134.196 115.79 131.594C109.911 128.992 113.284 127.094 113.284 127.094L118.049 129.639L121.411 129.753L125.195 130.179Z" fill="#225A7C"/>
<path d="M115.182 126.322C115.182 126.322 116.513 129.692 123.301 128.056C123.301 128.056 124.632 128.383 125.203 130.179C123.453 132.583 114.144 131.701 113.033 127.402C113.269 127.053 113.59 126.77 113.966 126.58C114.343 126.391 114.761 126.302 115.182 126.322Z" fill="#B4D8EF"/>
<path d="M124.313 118.983C123.552 118.527 122.157 116.495 123.575 115.754C124.115 115.472 125.214 115.719 125.674 116.952" fill="#F3976B"/>
<path d="M208.486 112.531V43.3448L168.118 20.0328V89.2156L208.486 112.531Z" fill="#6ACDF0"/>
<path d="M208.486 112.531L209.448 111.968V42.7856L208.486 43.3448V112.531Z" fill="#3DB5D4"/>
<path d="M209.448 42.7856L169.08 19.4698L168.118 20.0328L208.486 43.3448L209.448 42.7856Z" fill="#AEECFF"/>
<path d="M169.898 86.9636L205.858 107.734V45.4067L169.898 24.6321V86.9636Z" fill="#F4FFFF"/>
<path d="M176.15 48.5299C176.15 55.9861 181.398 65.0515 187.863 68.7986C194.328 72.5457 199.591 69.529 199.591 62.0766C199.591 54.6242 194.354 45.5513 187.863 41.8117C181.371 38.0722 176.15 41.0851 176.15 48.5299Z" fill="#F2F2F2"/>
<path d="M181.052 65.2455L194.708 73.1316V68.947C194.708 66.8318 193.217 64.2526 191.377 63.1912L184.383 59.1512C182.543 58.0898 181.052 58.942 181.052 61.0533V65.2455Z" fill="#BF708F"/>
<path d="M187.863 64.1195C189.198 64.8803 190.278 64.2716 190.278 62.7347V59.9577L185.452 57.1692V59.9463C185.497 60.7825 185.739 61.5962 186.158 62.3213C186.577 63.0464 187.161 63.6625 187.863 64.1195V64.1195Z" fill="#FCCAD5"/>
<path d="M187.901 44.7067C189.042 45.3648 193.639 48.6973 193.639 56.4654V64.4961C192.167 62.306 190.077 60.6032 187.635 59.6039" fill="#C2A197"/>
<path d="M187.901 44.7067C186.76 44.0486 182.162 42.0666 182.162 49.8348V57.8654C182.162 57.8654 184.064 56.8573 188.167 59.9044" fill="#C2A197"/>
<path d="M185.516 59.1094L186.608 60.4636C187.395 61.4413 188.365 61.9853 189.156 61.9359L190.247 61.8408C191.883 61.7 192.886 60.2734 192.886 58.1051V53.7873C192.886 50.607 190.647 46.7382 187.886 45.1404C185.121 43.5426 182.885 44.8285 182.885 48.0088V52.3227C182.873 54.4949 183.881 57.0627 185.516 59.1094Z" fill="#FCCAD5"/>
<path d="M192.879 58.5463C193.297 58.7898 193.639 58.592 193.639 58.1089V56.1002C193.625 55.8364 193.549 55.5797 193.417 55.351C193.284 55.1223 193.1 54.928 192.879 54.784V54.784C192.46 54.5405 192.118 54.7383 192.118 55.2215V57.2301C192.132 57.4939 192.209 57.7506 192.341 57.9793C192.473 58.2081 192.657 58.4023 192.879 58.5463V58.5463Z" fill="#FCCAD5"/>
<path d="M182.873 52.7678C183.292 53.0112 183.634 52.8134 183.634 52.3303V50.3217C183.62 50.0579 183.543 49.8012 183.411 49.5724C183.279 49.3437 183.095 49.1494 182.873 49.0054V49.0054C182.455 48.762 182.113 48.9598 182.113 49.4429V51.4515C182.127 51.7153 182.203 51.9721 182.335 52.2008C182.468 52.4295 182.652 52.6238 182.873 52.7678V52.7678Z" fill="#FCCAD5"/>
<path d="M184.41 46.5556C184.41 46.5556 186.87 53.0227 193.118 57.0285V53.9128C193.118 52.8248 192.335 47.6436 188.064 45.1632C183.794 42.6829 182.47 45.0073 182.714 49.8043C182.714 49.8348 184.364 49.869 184.41 46.5556Z" fill="#C2A197"/>
<path d="M173.549 76.3081L202.207 92.86V91.0911L173.549 74.5353V76.3081Z" fill="#C4C4C4"/>
<path d="M180.307 67.8133L195.446 76.5591V75.4635L180.307 66.7177V67.8133Z" fill="#C4C4C4"/>
<path d="M173.549 78.9329L202.207 95.4849V93.716L173.549 77.164V78.9329Z" fill="#C4C4C4"/>
<path d="M173.549 81.5578L202.207 98.1136V96.3409L173.549 79.7889V81.5578Z" fill="#C4C4C4"/>
<path d="M173.549 84.1827L202.207 100.739V98.9696L173.549 82.4138V84.1827Z" fill="#C4C4C4"/>
<path d="M173.549 86.8114L202.207 103.363V101.594L173.549 85.0386V86.8114Z" fill="#C4C4C4"/>
<path d="M194.4 81.4779C194.43 82.0026 194.584 82.5126 194.848 82.9668C195.112 83.4209 195.48 83.8062 195.921 84.0914C196.758 84.5745 197.442 84.1865 197.442 83.2241C197.412 82.6994 197.259 82.1894 196.994 81.7352C196.73 81.2811 196.362 80.8958 195.921 80.6106C195.088 80.1313 194.4 80.5193 194.4 81.4779Z" fill="#FD95AF"/>
<path d="M189.042 78.3661C189.072 78.8907 189.225 79.4008 189.49 79.8549C189.754 80.309 190.122 80.6944 190.563 80.9796C191.4 81.4627 192.084 81.0747 192.084 80.1122C192.054 79.5876 191.9 79.0775 191.636 78.6234C191.372 78.1693 191.004 77.784 190.563 77.4988C189.722 77.0346 189.042 77.4227 189.042 78.3661Z" fill="#84C0F0"/>
<path d="M183.68 75.2885C183.71 75.8132 183.863 76.3232 184.128 76.7774C184.392 77.2315 184.76 77.6168 185.201 77.902C186.037 78.3851 186.722 77.9971 186.722 77.0347C186.692 76.51 186.538 76 186.274 75.5458C186.01 75.0917 185.642 74.7064 185.201 74.4212C184.364 73.9419 183.68 74.3299 183.68 75.2885Z" fill="#FDAE52"/>
<path d="M178.329 72.1957C178.359 72.7203 178.513 73.2304 178.777 73.6846C179.041 74.1387 179.409 74.524 179.85 74.8092C180.687 75.2923 181.371 74.9043 181.371 73.9419C181.341 73.4172 181.188 72.9072 180.923 72.453C180.659 71.9989 180.291 71.6136 179.85 71.3284C179.006 70.8453 178.329 71.2333 178.329 72.1957Z" fill="#C587F5"/>
<path d="M319.96 176.932V107.75L279.589 84.4338V153.617L319.96 176.932Z" fill="#6ACDF0"/>
<path d="M319.96 176.932L320.922 176.369V107.187L319.96 107.75V176.932Z" fill="#3DB5D4"/>
<path d="M320.922 107.187L280.551 83.8708L279.589 84.4338L319.96 107.75L320.922 107.187Z" fill="#AEECFF"/>
<path d="M281.368 151.365L317.332 172.139V109.808L281.368 89.0368V151.365Z" fill="#F4FFFF"/>
<path d="M287.624 112.935C287.624 120.387 292.876 129.464 299.352 133.203C305.828 136.943 311.076 133.934 311.076 126.481C311.076 119.029 305.825 109.941 299.348 106.213C292.872 102.485 287.624 105.482 287.624 112.935Z" fill="#F2F2F2"/>
<path d="M292.522 129.646L306.175 137.533V133.348C306.175 131.233 304.684 128.654 302.843 127.592L295.865 123.537C294.024 122.476 292.534 123.328 292.534 125.439L292.522 129.646Z" fill="#BF708F"/>
<path d="M299.348 128.52C300.683 129.281 301.763 128.673 301.763 127.136V124.359L296.937 121.57V124.347C296.983 125.183 297.225 125.997 297.644 126.722C298.063 127.447 298.647 128.063 299.348 128.52V128.52Z" fill="#FCCAD5"/>
<path d="M299.375 109.108C300.516 109.766 305.114 113.098 305.114 120.866V128.897C303.639 126.711 301.549 125.013 299.109 124.016" fill="#C2A197"/>
<path d="M299.375 109.108C298.234 108.45 293.636 106.468 293.636 114.236V122.266C293.636 122.266 295.538 121.258 299.641 124.309" fill="#C2A197"/>
<path d="M296.987 123.514L298.078 124.868C298.865 125.846 299.835 126.39 300.626 126.341L301.718 126.246C303.353 126.105 304.357 124.678 304.357 122.51V118.192C304.357 115.012 302.117 111.143 299.356 109.545C296.591 107.947 294.355 109.233 294.355 112.414V116.727C294.344 118.896 295.352 121.483 296.987 123.514Z" fill="#FCCAD5"/>
<path d="M304.353 122.951C304.771 123.195 305.114 122.997 305.114 122.514V120.505C305.099 120.241 305.023 119.984 304.891 119.756C304.759 119.527 304.574 119.333 304.353 119.189V119.189C303.935 118.945 303.592 119.143 303.592 119.626V121.635C303.607 121.899 303.683 122.155 303.815 122.384C303.947 122.613 304.132 122.807 304.353 122.951V122.951Z" fill="#FCCAD5"/>
<path d="M294.344 117.169C294.762 117.412 295.104 117.214 295.104 116.731V114.723C295.09 114.459 295.014 114.202 294.882 113.973C294.75 113.745 294.565 113.55 294.344 113.406V113.406C293.926 113.163 293.583 113.361 293.583 113.844V115.853C293.597 116.116 293.674 116.373 293.806 116.602C293.938 116.831 294.122 117.025 294.344 117.169V117.169Z" fill="#FCCAD5"/>
<path d="M295.865 110.957C295.865 110.957 298.325 117.424 304.574 121.429V118.31C304.574 117.222 303.79 112.041 299.52 109.56C295.249 107.08 293.925 109.404 294.169 114.202C294.184 114.217 295.835 114.27 295.865 110.957Z" fill="#C2A197"/>
<path d="M285.019 140.709L313.681 157.265V155.492L285.019 138.94V140.709Z" fill="#C4C4C4"/>
<path d="M291.781 132.218L306.92 140.96V139.865L291.781 131.122V132.218Z" fill="#C4C4C4"/>
<path d="M285.019 143.334L313.681 159.89V158.117L285.019 141.565V143.334Z" fill="#C4C4C4"/>
<path d="M285.019 145.959L313.681 162.515V160.746L285.019 144.19V145.959Z" fill="#C4C4C4"/>
<path d="M285.019 148.587L313.681 165.139V163.371L285.019 146.815V148.587Z" fill="#C4C4C4"/>
<path d="M285.019 151.212L313.681 167.764V165.995L285.019 149.443V151.212Z" fill="#C4C4C4"/>
<path d="M305.874 145.883C305.904 146.407 306.058 146.917 306.322 147.372C306.586 147.826 306.954 148.211 307.395 148.496C308.232 148.979 308.916 148.591 308.916 147.629C308.886 147.104 308.733 146.594 308.469 146.14C308.204 145.686 307.837 145.301 307.395 145.015C306.551 144.532 305.874 144.92 305.874 145.883Z" fill="#FD95AF"/>
<path d="M300.516 142.786C300.546 143.311 300.7 143.821 300.964 144.275C301.228 144.729 301.596 145.114 302.037 145.4C302.874 145.883 303.558 145.495 303.558 144.532C303.528 144.008 303.375 143.498 303.11 143.043C302.846 142.589 302.478 142.204 302.037 141.919C301.189 141.436 300.516 141.824 300.516 142.786Z" fill="#84C0F0"/>
<path d="M295.158 139.693C295.188 140.218 295.341 140.728 295.606 141.182C295.87 141.636 296.238 142.022 296.679 142.307C297.515 142.79 298.2 142.402 298.2 141.439C298.17 140.915 298.016 140.405 297.752 139.951C297.488 139.497 297.12 139.111 296.679 138.826C295.835 138.343 295.158 138.731 295.158 139.693Z" fill="#FDAE52"/>
<path d="M289.799 136.597C289.829 137.121 289.983 137.631 290.247 138.086C290.512 138.54 290.879 138.925 291.32 139.21C292.157 139.693 292.842 139.305 292.842 138.343C292.811 137.818 292.658 137.308 292.394 136.854C292.129 136.4 291.762 136.015 291.32 135.729C290.476 135.246 289.799 135.634 289.799 136.597Z" fill="#C587F5"/>
<path d="M225.846 138.092V68.9089L185.475 45.5931V114.776L225.846 138.092Z" fill="#6ACDF0"/>
<path d="M225.846 138.092L226.808 137.529V68.3459L225.846 68.9089V138.092Z" fill="#3DB5D4"/>
<path d="M226.808 68.3459L186.437 45.0339L185.475 45.5931L225.846 68.9089L226.808 68.3459Z" fill="#AEECFF"/>
<path d="M186.95 112.273L222.91 133.044V70.7121L186.95 49.9413V112.273Z" fill="#F4FFFF"/>
<path d="M193.187 73.8391C193.187 81.2915 198.439 90.3683 204.915 94.1078C211.391 97.8473 216.643 94.8382 216.643 87.3858C216.643 79.9334 211.391 70.8567 204.915 67.1172C198.439 63.3776 193.187 66.3868 193.187 73.8391Z" fill="#F2F2F2"/>
<path d="M198.104 90.5395L211.756 98.4256V94.241C211.756 92.1258 210.266 89.5466 208.425 88.4852L201.435 84.4528C199.595 83.3915 198.104 84.2436 198.104 86.3549V90.5395Z" fill="#746E8C"/>
<path d="M204.93 89.4249C206.265 90.1857 207.345 89.577 207.345 88.0402V85.2631L202.519 82.4747V85.2517C202.565 86.0879 202.807 86.9016 203.226 87.6267C203.645 88.3518 204.229 88.9679 204.93 89.4249V89.4249Z" fill="#FCCAD5"/>
<path d="M202.569 84.4186L203.66 85.7729C204.447 86.7505 205.417 87.2945 206.208 87.2451L207.299 87.15C208.935 87.0092 209.938 85.5827 209.938 83.4143V79.0965C209.938 75.9162 207.699 72.0474 204.934 70.4496C202.169 68.8519 199.933 70.1377 199.933 73.318V77.6319C199.929 79.8041 200.933 82.391 202.569 84.4186Z" fill="#FCCAD5"/>
<path d="M209.92 83.8556C210.338 84.099 210.68 83.9012 210.68 83.4181V81.4095C210.666 81.1457 210.59 80.889 210.457 80.6602C210.325 80.4315 210.141 80.2372 209.92 80.0932V80.0932C209.501 79.8498 209.159 80.0476 209.159 80.5307V82.5507C209.175 82.8126 209.252 83.067 209.384 83.2936C209.516 83.5202 209.7 83.7127 209.92 83.8556Z" fill="#FCCAD5"/>
<path d="M199.929 78.077C200.348 78.3205 200.69 78.1227 200.69 77.6395V75.6309C200.676 75.3671 200.599 75.1104 200.467 74.8817C200.335 74.6529 200.151 74.4587 199.929 74.3147V74.3147C199.511 74.0712 199.169 74.269 199.169 74.7522V76.7608C199.183 77.0246 199.259 77.2813 199.392 77.51C199.524 77.7388 199.708 77.933 199.929 78.077V78.077Z" fill="#FCCAD5"/>
<path d="M210.463 80.6486C210.463 80.6486 210.905 77.1298 210.212 75.7489C209.205 73.2964 207.42 71.2432 205.132 69.9056C201.329 67.7068 200.5 68.7644 199.716 70.0996C199.716 70.0996 199.066 72.9756 199.929 74.5619L200.188 75.9315C200.188 75.9315 201.732 74.7369 201.306 71.8914C201.306 71.8914 204.014 76.2358 208.6 77.7004C208.6 77.7004 208.668 79.9296 209.942 81.1242L210.463 80.6486Z" fill="#937965"/>
<path d="M190.601 101.613L219.26 118.169V116.4L190.601 99.8445V101.613Z" fill="#C4C4C4"/>
<path d="M197.362 93.1225L212.502 101.868V100.769L197.362 92.0269V93.1225Z" fill="#C4C4C4"/>
<path d="M190.601 104.238L219.26 120.794V119.025L190.601 102.469V104.238Z" fill="#C4C4C4"/>
<path d="M190.601 106.867L219.26 123.419V121.65L190.601 105.094V106.867Z" fill="#C4C4C4"/>
<path d="M190.601 109.492L219.26 126.048V124.275L190.601 107.723V109.492Z" fill="#C4C4C4"/>
<path d="M190.601 112.117L219.26 128.673V126.9L190.601 110.348V112.117Z" fill="#C4C4C4"/>
<path d="M211.441 106.787C211.471 107.312 211.624 107.822 211.889 108.276C212.153 108.73 212.521 109.115 212.962 109.401C213.799 109.884 214.483 109.496 214.483 108.533C214.453 108.009 214.299 107.499 214.035 107.044C213.771 106.59 213.403 106.205 212.962 105.92C212.133 105.437 211.441 105.825 211.441 106.787Z" fill="#FD95AF"/>
<path d="M206.098 103.691C206.128 104.215 206.281 104.725 206.546 105.179C206.81 105.633 207.178 106.019 207.619 106.304C208.456 106.787 209.14 106.399 209.14 105.437C209.11 104.912 208.956 104.402 208.692 103.948C208.428 103.494 208.06 103.108 207.619 102.823C206.775 102.332 206.098 102.713 206.098 103.691Z" fill="#84C0F0"/>
<path d="M200.74 100.598C200.77 101.122 200.923 101.632 201.187 102.087C201.452 102.541 201.819 102.926 202.261 103.211C203.097 103.694 203.782 103.306 203.782 102.344C203.752 101.819 203.598 101.309 203.334 100.855C203.07 100.401 202.702 100.016 202.261 99.7304C201.416 99.2473 200.74 99.6353 200.74 100.598Z" fill="#FDAE52"/>
<path d="M195.381 97.5011C195.411 98.0258 195.565 98.5359 195.829 98.99C196.093 99.4441 196.461 99.8294 196.902 100.115C197.739 100.598 198.424 100.21 198.424 99.2473C198.393 98.7227 198.24 98.2126 197.976 97.7584C197.711 97.3043 197.344 96.919 196.902 96.6338C196.058 96.1545 195.381 96.5425 195.381 97.5011Z" fill="#C587F5"/>
<path d="M279.589 169.149V99.9701L239.217 76.6542V145.837L279.589 169.149Z" fill="#6ACDF0"/>
<path d="M279.589 169.149L280.551 168.59V99.407L279.589 99.9701V169.149Z" fill="#3DB5D4"/>
<path d="M280.551 99.4071L240.183 76.0912L239.217 76.6542L279.589 99.9701L280.551 99.4071Z" fill="#AEECFF"/>
<path d="M240.693 143.33L276.653 164.105V101.773L240.693 81.0024V143.33Z" fill="#F4FFFF"/>
<path d="M246.948 104.9C246.948 112.353 252.2 121.429 258.676 125.169C265.153 128.908 270.386 125.899 270.386 118.447C270.386 110.995 265.134 101.918 258.657 98.1783C252.181 94.4388 246.948 97.4441 246.948 104.9Z" fill="#F2F2F2"/>
<path d="M251.846 121.612L265.499 129.498V125.314C265.499 123.198 264.008 120.619 262.168 119.558L255.174 115.503C253.333 114.441 251.843 115.293 251.843 117.405L251.846 121.612Z" fill="#746E8C"/>
<path d="M258.673 120.486C260.007 121.247 261.088 120.638 261.088 119.101V116.324L256.262 113.536V116.313C256.307 117.149 256.549 117.963 256.968 118.688C257.387 119.413 257.971 120.029 258.673 120.486V120.486Z" fill="#FCCAD5"/>
<path d="M256.315 115.476L257.406 116.83C258.194 117.808 259.163 118.352 259.954 118.302L261.046 118.207C262.681 118.067 263.685 116.64 263.685 114.472V110.154C263.685 106.974 261.445 103.105 258.684 101.507C255.919 99.9092 253.683 101.195 253.683 104.375V108.689C253.653 110.861 254.676 113.448 256.315 115.476Z" fill="#FCCAD5"/>
<path d="M263.677 114.913C264.096 115.156 264.438 114.959 264.438 114.475V112.467C264.424 112.203 264.347 111.946 264.215 111.718C264.083 111.489 263.899 111.295 263.677 111.151V111.151C263.259 110.907 262.917 111.105 262.917 111.588V113.597C262.931 113.86 263.007 114.117 263.139 114.346C263.271 114.575 263.456 114.769 263.677 114.913Z" fill="#FCCAD5"/>
<path d="M253.653 109.134C254.071 109.378 254.413 109.18 254.413 108.697V106.688C254.399 106.424 254.323 106.168 254.191 105.939C254.059 105.71 253.874 105.516 253.653 105.372V105.372C253.234 105.129 252.892 105.326 252.892 105.809V107.818C252.906 108.082 252.983 108.339 253.115 108.567C253.247 108.796 253.431 108.99 253.653 109.134V109.134Z" fill="#FCCAD5"/>
<path d="M264.206 111.706C264.206 111.706 264.647 108.187 263.955 106.806C262.948 104.354 261.163 102.301 258.874 100.963C255.071 98.7641 254.242 99.8217 253.459 101.157C253.459 101.157 252.809 104.033 253.672 105.619L253.93 106.989C253.93 106.989 255.474 105.794 255.048 102.949C255.048 102.949 257.756 107.293 262.342 108.758C262.342 108.758 262.411 110.987 263.685 112.181L264.206 111.706Z" fill="#937965"/>
<path d="M244.343 132.675L273.002 149.227V147.458L244.343 130.906V132.675Z" fill="#C4C4C4"/>
<path d="M251.105 124.184L266.244 132.926V131.83L251.105 123.084V124.184Z" fill="#C4C4C4"/>
<path d="M244.343 135.299L273.002 151.855V150.083L244.343 133.531V135.299Z" fill="#C4C4C4"/>
<path d="M244.343 137.924L273.002 154.48V152.711L244.343 136.155V137.924Z" fill="#C4C4C4"/>
<path d="M244.343 140.553L273.002 157.105V155.336L244.343 138.78V140.553Z" fill="#C4C4C4"/>
<path d="M244.343 143.178L273.002 159.73V157.961L244.343 141.405V143.178Z" fill="#C4C4C4"/>
<path d="M265.198 137.848C265.229 138.373 265.382 138.883 265.646 139.337C265.911 139.791 266.278 140.177 266.72 140.462C267.556 140.945 268.241 140.557 268.241 139.594C268.211 139.07 268.057 138.56 267.793 138.106C267.529 137.651 267.161 137.266 266.72 136.981C265.875 136.498 265.198 136.886 265.198 137.848Z" fill="#FD95AF"/>
<path d="M259.84 134.752C259.87 135.276 260.024 135.786 260.288 136.241C260.552 136.695 260.92 137.08 261.361 137.365C262.198 137.848 262.883 137.46 262.883 136.498C262.852 135.973 262.699 135.463 262.435 135.009C262.17 134.555 261.803 134.17 261.361 133.884C260.498 133.401 259.84 133.789 259.84 134.752Z" fill="#84C0F0"/>
<path d="M254.482 131.659C254.512 132.183 254.666 132.694 254.93 133.148C255.194 133.602 255.562 133.987 256.003 134.272C256.84 134.755 257.524 134.367 257.524 133.405C257.494 132.88 257.341 132.37 257.076 131.916C256.812 131.462 256.444 131.077 256.003 130.792C255.174 130.308 254.482 130.696 254.482 131.659Z" fill="#FDAE52"/>
<path d="M249.124 128.581C249.154 129.106 249.307 129.616 249.572 130.07C249.836 130.524 250.204 130.91 250.645 131.195C251.481 131.678 252.166 131.29 252.166 130.327C252.136 129.803 251.982 129.293 251.718 128.839C251.454 128.384 251.086 127.999 250.645 127.714C249.801 127.212 249.124 127.6 249.124 128.581Z" fill="#C587F5"/>
<path d="M239.209 161.408V92.2248L198.842 68.9089V138.092L239.209 161.408Z" fill="#6ACDF0"/>
<path d="M239.209 161.408L240.172 160.845V91.6617L239.209 92.2248V161.408Z" fill="#3DB5D4"/>
<path d="M240.171 91.6617L199.804 68.3459L198.842 68.9089L239.209 92.2248L240.171 91.6617Z" fill="#AEECFF"/>
<path d="M200.313 135.589L236.277 156.359V94.0279L200.313 73.2571V135.589Z" fill="#F4FFFF"/>
<path d="M206.569 97.155C206.569 104.607 211.821 113.684 218.297 117.424C224.774 121.163 230.026 118.154 230.026 110.702C230.026 103.249 224.77 94.1725 218.286 90.433C211.802 86.6935 206.569 89.7026 206.569 97.155Z" fill="#F2F2F2"/>
<path d="M211.467 113.867L225.131 121.753V117.549C225.131 115.434 223.64 112.855 221.8 111.793L214.806 107.753C212.966 106.692 211.475 107.544 211.475 109.656L211.467 113.867Z" fill="#746E8C"/>
<path d="M218.286 112.741C219.621 113.502 220.701 112.893 220.701 111.356V108.579L215.875 105.79V108.568C215.92 109.404 216.163 110.217 216.581 110.943C217 111.668 217.584 112.284 218.286 112.741V112.741Z" fill="#FCCAD5"/>
<path d="M215.932 107.734L217.023 109.089C217.811 110.066 218.78 110.61 219.571 110.561L220.663 110.466C222.298 110.325 223.302 108.898 223.302 106.73V102.412C223.302 99.2321 221.062 95.3632 218.301 93.7655C215.536 92.1677 213.297 93.4535 213.297 96.6338V100.948C213.293 103.116 214.297 105.703 215.932 107.734Z" fill="#FCCAD5"/>
<path d="M223.298 107.171C223.716 107.415 224.059 107.217 224.059 106.734V104.725C224.045 104.461 223.968 104.205 223.836 103.976C223.704 103.747 223.52 103.553 223.298 103.409V103.409C222.88 103.166 222.538 103.363 222.538 103.847V105.855C222.552 106.119 222.628 106.376 222.76 106.604C222.892 106.833 223.077 107.027 223.298 107.171V107.171Z" fill="#FCCAD5"/>
<path d="M213.293 101.393C213.711 101.636 214.053 101.438 214.053 100.955V98.9467C214.039 98.6829 213.963 98.4262 213.831 98.1975C213.699 97.9688 213.514 97.7745 213.293 97.6305C212.874 97.387 212.532 97.5849 212.532 98.068V100.077C212.546 100.34 212.623 100.597 212.755 100.826C212.887 101.055 213.071 101.249 213.293 101.393V101.393Z" fill="#FCCAD5"/>
<path d="M223.827 103.964C223.827 103.964 224.268 100.446 223.576 99.0647C222.572 96.6051 220.787 94.5448 218.495 93.2024C214.692 91.0036 213.863 92.0612 213.08 93.3964C213.08 93.3964 212.429 96.2724 213.293 97.8587L213.551 99.2282C213.551 99.2282 215.095 98.0337 214.669 95.1882C214.669 95.1882 217.377 99.5326 221.963 100.997C221.963 100.997 222.032 103.226 223.306 104.421L223.827 103.964Z" fill="#937965"/>
<path d="M203.964 124.929L232.627 141.485V139.712L203.964 123.16V124.929Z" fill="#C4C4C4"/>
<path d="M210.726 116.438L225.865 125.18V124.085L210.726 115.343V116.438Z" fill="#C4C4C4"/>
<path d="M203.964 127.554L232.627 144.11V142.341L203.964 125.785V127.554Z" fill="#C4C4C4"/>
<path d="M203.964 130.183L232.627 146.735V144.966L203.964 128.41V130.183Z" fill="#C4C4C4"/>
<path d="M203.964 132.808L232.627 149.364V147.591L203.964 131.035V132.808Z" fill="#C4C4C4"/>
<path d="M203.964 135.433L232.627 151.988V150.216L203.964 133.664V135.433Z" fill="#C4C4C4"/>
<path d="M224.819 130.103C224.849 130.628 225.003 131.138 225.267 131.592C225.532 132.046 225.899 132.431 226.34 132.716C227.177 133.2 227.862 132.812 227.862 131.849C227.831 131.324 227.678 130.814 227.414 130.36C227.149 129.906 226.782 129.521 226.34 129.236C225.511 128.753 224.819 129.141 224.819 130.103Z" fill="#FD95AF"/>
<path d="M219.461 127.006C219.491 127.531 219.645 128.041 219.909 128.495C220.173 128.949 220.541 129.335 220.982 129.62C221.819 130.103 222.503 129.715 222.503 128.753C222.473 128.228 222.32 127.718 222.055 127.264C221.791 126.81 221.423 126.424 220.982 126.139C220.138 125.66 219.461 126.048 219.461 127.006Z" fill="#84C0F0"/>
<path d="M214.103 123.914C214.133 124.438 214.286 124.948 214.551 125.402C214.815 125.857 215.183 126.242 215.624 126.527C216.461 127.01 217.145 126.622 217.145 125.66C217.115 125.135 216.961 124.625 216.697 124.171C216.433 123.717 216.065 123.331 215.624 123.046C214.78 122.563 214.103 122.951 214.103 123.914Z" fill="#FDAE52"/>
<path d="M208.745 120.817C208.775 121.342 208.928 121.852 209.192 122.306C209.457 122.76 209.824 123.145 210.266 123.43C211.102 123.914 211.787 123.526 211.787 122.563C211.757 122.038 211.603 121.528 211.339 121.074C211.075 120.62 210.707 120.235 210.266 119.95C209.421 119.451 208.745 119.858 208.745 120.817Z" fill="#C587F5"/>
<path d="M217.061 118.143C203.968 96.0784 181.923 84.9588 167.822 93.3318L155.565 100.377L160.265 108.191C161.02 106.987 161.913 105.876 162.927 104.881C174.845 101.02 191.244 110.249 201.336 127.242C211.429 144.236 211.657 163.051 202.557 171.671C201.36 172.043 200.128 172.288 198.88 172.402L203.443 180.01L215.232 173.258C229.341 164.896 230.155 140.214 217.061 118.143Z" fill="#005CA9"/>
<path d="M205.28 124.895C192.187 102.831 170.141 91.7112 156.04 100.084C141.939 108.457 141.125 133.146 154.219 155.211C167.312 177.275 189.357 188.394 203.458 180.021C217.56 171.648 218.373 146.971 205.28 124.895ZM202.557 171.664C190.635 175.525 174.237 166.296 164.148 149.303C154.059 132.309 153.827 113.494 162.927 104.874C174.845 101.012 191.244 110.241 201.336 127.235C211.429 144.228 211.654 163.047 202.557 171.667V171.664Z" fill="#006CC6"/>
<path d="M164.156 149.306C154.074 132.313 153.835 113.498 162.935 104.877C168.133 103.192 174.184 104.003 180.192 106.856C172.826 103.341 165.392 102.88 159.547 106.353C147.552 113.483 146.792 134.39 157.85 153.05C168.909 171.709 187.631 181.079 199.652 173.935C200.706 173.285 201.685 172.52 202.569 171.652C190.635 175.525 174.237 166.3 164.156 149.306Z" fill="#04457C"/>
<path opacity="0.6" d="M201.333 127.238C191.251 110.245 174.853 101.02 162.924 104.877C153.827 113.494 154.067 132.313 164.144 149.306C174.222 166.3 190.624 175.525 202.553 171.667C211.654 163.047 211.414 144.232 201.333 127.238Z" fill="#C7F1FF"/>
<g opacity="0.8">
<path opacity="0.8" d="M193.974 168.267C184.106 168.267 172.914 160.658 165.65 148.42C164.241 146.049 163.028 143.567 162.022 140.998C161.897 140.68 161.836 140.34 161.843 139.998C161.849 139.656 161.923 139.318 162.06 139.005C162.197 138.691 162.394 138.408 162.64 138.17C162.887 137.933 163.177 137.747 163.496 137.622C163.814 137.497 164.154 137.436 164.496 137.443C164.838 137.449 165.175 137.523 165.489 137.66C165.802 137.797 166.085 137.994 166.322 138.24C166.56 138.487 166.746 138.778 166.871 139.096C167.773 141.4 168.862 143.627 170.126 145.753C177.409 158.029 189.293 165.219 197.773 162.492C198.418 162.316 199.106 162.396 199.694 162.714C200.282 163.032 200.725 163.564 200.931 164.201C201.137 164.837 201.09 165.528 200.8 166.131C200.511 166.733 200 167.201 199.374 167.437C197.629 167.995 195.806 168.275 193.974 168.267V168.267Z" fill="white"/>
</g>
<g opacity="0.8">
<path opacity="0.8" d="M161.672 130.046C161.001 130.046 160.356 129.786 159.872 129.321C159.388 128.855 159.102 128.221 159.075 127.55C158.759 120.033 160.908 113.692 165.125 109.697C165.627 109.223 166.296 108.967 166.986 108.985C167.676 109.004 168.33 109.297 168.805 109.798C169.279 110.3 169.535 110.969 169.516 111.659C169.497 112.35 169.205 113.004 168.704 113.479C165.597 116.408 164.023 121.353 164.285 127.33C164.314 128.02 164.068 128.693 163.601 129.202C163.134 129.71 162.484 130.012 161.794 130.042L161.672 130.046Z" fill="white"/>
</g>
<path d="M219.936 154.56C221.351 152.179 223.739 150.98 225.261 151.897L252.387 167.673L247.188 176.251L220.115 160.51C218.609 159.604 218.522 156.941 219.936 154.56Z" fill="#6ACDF0"/>
<path d="M252.527 173.595C253.94 171.213 253.852 168.551 252.331 167.648C250.811 166.745 248.433 167.944 247.02 170.325C245.607 172.706 245.694 175.369 247.215 176.272C248.736 177.174 251.114 175.976 252.527 173.595Z" fill="#7D7D7D"/>
<path d="M244.324 169.001C246.823 164.786 251.033 162.667 253.725 164.265L301.725 192.18L292.598 207.396L244.682 179.538C241.978 177.925 241.822 173.212 244.324 169.001Z" fill="#005CA9"/>
<path d="M301.993 202.672C304.493 198.458 304.338 193.748 301.647 192.15C298.956 190.552 294.748 192.672 292.248 196.886C289.748 201.099 289.903 205.81 292.594 207.408C295.285 209.005 299.493 206.885 301.993 202.672Z" fill="#7D7D7D"/>
<path d="M300.488 201.773C302.12 199.023 302.018 195.948 300.261 194.905C298.503 193.862 295.756 195.245 294.125 197.995C292.493 200.745 292.595 203.82 294.352 204.863C296.11 205.906 298.857 204.523 300.488 201.773Z" fill="#999999"/>
<path d="M213.772 290.107L294.895 243.251C295.692 242.79 296.597 242.548 297.517 242.548C298.438 242.548 299.342 242.79 300.139 243.251L352.364 273.414C352.995 273.779 353.519 274.303 353.884 274.934C354.248 275.566 354.44 276.282 354.44 277.011C354.44 277.74 354.248 278.456 353.884 279.087C353.519 279.719 352.995 280.243 352.364 280.608L320.42 299.058C318.099 300.399 315.466 301.104 312.786 301.104C310.106 301.104 307.473 300.399 305.152 299.058V299.058L261.418 324.314C260.787 324.679 260.071 324.871 259.342 324.871C258.613 324.871 257.897 324.679 257.266 324.314L213.768 299.206C212.968 298.747 212.303 298.084 211.841 297.285C211.379 296.486 211.136 295.579 211.136 294.656C211.137 293.732 211.381 292.826 211.843 292.027C212.306 291.228 212.971 290.566 213.772 290.107V290.107Z" fill="#97C6DE"/>
<path d="M213.772 283.236L294.895 236.384C295.692 235.924 296.597 235.681 297.517 235.681C298.438 235.681 299.342 235.924 300.139 236.384L352.364 266.547C352.995 266.912 353.519 267.437 353.884 268.068C354.248 268.699 354.44 269.415 354.44 270.144C354.44 270.873 354.248 271.589 353.884 272.221C353.519 272.852 352.995 273.376 352.364 273.741L320.42 292.191C318.099 293.532 315.466 294.238 312.786 294.238C310.106 294.238 307.473 293.532 305.152 292.191V292.191L261.418 317.447C260.787 317.812 260.071 318.004 259.342 318.004C258.613 318.004 257.897 317.812 257.266 317.447L213.768 292.34C212.967 291.88 212.302 291.217 211.839 290.418C211.376 289.618 211.133 288.711 211.133 287.787C211.133 286.863 211.378 285.956 211.841 285.157C212.304 284.358 212.971 283.695 213.772 283.236V283.236Z" fill="#E2823D"/>
<path d="M213.772 281.635L294.895 234.783C295.692 234.322 296.597 234.08 297.517 234.08C298.438 234.08 299.342 234.322 300.139 234.783L352.364 264.946C352.995 265.311 353.519 265.835 353.884 266.466C354.248 267.098 354.44 267.814 354.44 268.543C354.44 269.272 354.248 269.988 353.884 270.619C353.519 271.251 352.995 271.775 352.364 272.14L320.42 290.59C318.099 291.93 315.466 292.636 312.786 292.636C310.106 292.636 307.473 291.93 305.152 290.59V290.59L261.418 315.846C260.787 316.211 260.071 316.402 259.342 316.402C258.613 316.402 257.897 316.211 257.266 315.846L213.768 290.738C212.967 290.279 212.302 289.616 211.839 288.816C211.376 288.017 211.133 287.109 211.133 286.186C211.133 285.262 211.378 284.354 211.841 283.555C212.304 282.756 212.971 282.094 213.772 281.635V281.635Z" fill="#FFB151"/>
<path d="M228.664 298.373L213.171 289.426L228.664 280.478L244.161 289.426L228.664 298.373Z" fill="white"/>
<path d="M232.707 281.947L242.408 287.725L239.784 289.194C239.04 289.557 238.22 289.739 237.392 289.726C236.564 289.713 235.751 289.505 235.019 289.118L230.052 286.158C228.744 285.397 228.759 284.149 230.083 283.408L232.707 281.947Z" fill="#746E8C"/>
<path d="M234.391 286.607C235.338 287.17 235.331 288.064 234.372 288.6L232.638 289.57L229.215 287.528L230.95 286.558C231.487 286.294 232.078 286.162 232.676 286.17C233.274 286.179 233.862 286.329 234.391 286.607V286.607Z" fill="#FCCAD5"/>
<path d="M230.436 286.881L231.665 287.09C232.551 287.242 233.243 287.653 233.475 288.167L233.798 288.882C234.281 289.955 233.741 291.081 232.387 291.838L229.691 293.359C227.706 294.47 224.504 294.425 222.538 293.253C220.575 292.085 220.594 290.232 222.579 289.122L225.276 287.6C226.626 286.835 228.596 286.569 230.436 286.881Z" fill="#FCCAD5"/>
<path d="M232.657 291.686C232.723 291.708 232.78 291.75 232.821 291.806C232.861 291.862 232.883 291.93 232.883 291.999C232.883 292.069 232.861 292.136 232.821 292.193C232.78 292.249 232.723 292.291 232.657 292.313L231.402 293.017C231.234 293.103 231.047 293.147 230.858 293.147C230.669 293.147 230.483 293.103 230.315 293.017V293.017C230.249 292.995 230.192 292.953 230.151 292.897C230.111 292.84 230.089 292.773 230.089 292.703C230.089 292.634 230.111 292.566 230.151 292.51C230.192 292.454 230.249 292.411 230.315 292.389L231.57 291.686C231.738 291.6 231.924 291.555 232.113 291.555C232.302 291.555 232.489 291.6 232.657 291.686Z" fill="#FCCAD5"/>
<path d="M225.549 287.448C225.615 287.47 225.672 287.512 225.713 287.568C225.754 287.625 225.775 287.692 225.775 287.762C225.775 287.831 225.754 287.899 225.713 287.955C225.672 288.011 225.615 288.053 225.549 288.075L224.295 288.779C224.126 288.865 223.94 288.909 223.751 288.909C223.562 288.909 223.375 288.865 223.207 288.779V288.779C223.141 288.757 223.084 288.715 223.043 288.659C223.003 288.602 222.981 288.535 222.981 288.465C222.981 288.396 223.003 288.328 223.043 288.272C223.084 288.216 223.141 288.173 223.207 288.151L224.462 287.448C224.63 287.362 224.817 287.318 225.006 287.318C225.195 287.318 225.381 287.362 225.549 287.448Z" fill="#FCCAD5"/>
<path d="M230.836 293.135C230.836 293.135 228.79 294.657 227.687 294.691C225.802 294.916 223.895 294.515 222.26 293.55C219.556 291.94 219.933 291.05 220.488 290.095C220.488 290.095 222.058 288.684 223.351 288.669L224.298 288.349C224.298 288.349 224.093 289.734 222.165 290.461C222.165 290.461 225.827 290.636 228.345 292.99C228.345 292.99 229.759 292.252 230.957 292.633L230.836 293.135Z" fill="#937965"/>
<path d="M213.772 272.76L294.895 225.888C295.692 225.428 296.597 225.186 297.517 225.186C298.438 225.186 299.342 225.428 300.139 225.888L352.364 256.052C352.995 256.416 353.519 256.941 353.884 257.572C354.248 258.204 354.44 258.92 354.44 259.649C354.44 260.378 354.248 261.094 353.884 261.725C353.519 262.356 352.995 262.881 352.364 263.245L320.42 281.696C318.099 283.036 315.466 283.742 312.786 283.742C310.106 283.742 307.473 283.036 305.152 281.696V281.696L261.418 306.952C260.787 307.316 260.071 307.508 259.342 307.508C258.613 307.508 257.897 307.316 257.266 306.952L213.768 281.844C212.972 281.383 212.31 280.721 211.851 279.923C211.391 279.126 211.149 278.221 211.15 277.301C211.15 276.38 211.392 275.476 211.853 274.679C212.313 273.882 212.975 273.22 213.772 272.76V272.76Z" fill="#E2823D"/>
<path d="M213.772 271.143L294.895 224.291C295.692 223.83 296.597 223.588 297.517 223.588C298.438 223.588 299.342 223.83 300.139 224.291L352.364 254.454C352.995 254.819 353.519 255.343 353.884 255.974C354.248 256.606 354.44 257.322 354.44 258.051C354.44 258.78 354.248 259.496 353.884 260.127C353.519 260.759 352.995 261.283 352.364 261.648L320.42 280.098C318.099 281.439 315.466 282.144 312.786 282.144C310.106 282.144 307.473 281.439 305.152 280.098V280.098L261.418 305.354C260.787 305.719 260.071 305.91 259.342 305.91C258.613 305.91 257.897 305.719 257.266 305.354L213.768 280.246C212.967 279.787 212.302 279.124 211.839 278.324C211.376 277.525 211.133 276.617 211.133 275.694C211.133 274.77 211.378 273.862 211.841 273.063C212.304 272.264 212.971 271.602 213.772 271.143V271.143Z" fill="#FFB151"/>
<path d="M228.664 287.881L213.171 278.93L228.664 269.983L244.161 278.93L228.664 287.881Z" fill="white"/>
<path d="M232.707 271.451L242.408 277.23L239.784 278.698C239.041 279.062 238.222 279.245 237.395 279.233C236.568 279.221 235.755 279.015 235.023 278.63L230.056 275.67C228.748 274.909 228.763 273.661 230.086 272.92L232.707 271.451Z" fill="#746E8C"/>
<path d="M234.391 276.115C235.338 276.678 235.331 277.572 234.372 278.108L232.638 279.078L229.215 277.036L230.95 276.066C231.487 275.803 232.078 275.67 232.676 275.679C233.274 275.687 233.862 275.837 234.391 276.115Z" fill="#FCCAD5"/>
<path d="M230.436 276.389L231.665 276.598C232.551 276.75 233.243 277.161 233.475 277.675L233.798 278.39C234.281 279.463 233.741 280.589 232.387 281.346L229.691 282.867C227.706 283.978 224.504 283.933 222.538 282.761C220.575 281.593 220.594 279.74 222.579 278.63L225.276 277.108C226.626 276.351 228.596 276.077 230.436 276.389Z" fill="#FCCAD5"/>
<path d="M232.657 281.19C232.723 281.212 232.78 281.254 232.821 281.31C232.861 281.367 232.883 281.434 232.883 281.504C232.883 281.573 232.861 281.641 232.821 281.697C232.78 281.753 232.723 281.795 232.657 281.817L231.402 282.521C231.234 282.607 231.047 282.651 230.858 282.651C230.669 282.651 230.483 282.607 230.315 282.521V282.521C230.249 282.499 230.192 282.457 230.151 282.401C230.111 282.344 230.089 282.277 230.089 282.207C230.089 282.138 230.111 282.07 230.151 282.014C230.192 281.958 230.249 281.916 230.315 281.894L231.57 281.19C231.738 281.104 231.924 281.06 232.113 281.06C232.302 281.06 232.489 281.104 232.657 281.19Z" fill="#FCCAD5"/>
<path d="M225.549 276.944C225.615 276.966 225.672 277.009 225.713 277.065C225.754 277.121 225.775 277.189 225.775 277.258C225.775 277.328 225.754 277.395 225.713 277.452C225.672 277.508 225.615 277.55 225.549 277.572L224.295 278.276C224.126 278.361 223.94 278.406 223.751 278.406C223.562 278.406 223.375 278.361 223.207 278.276V278.276C223.141 278.254 223.084 278.212 223.043 278.155C223.003 278.099 222.981 278.031 222.981 277.962C222.981 277.893 223.003 277.825 223.043 277.769C223.084 277.712 223.141 277.67 223.207 277.648L224.462 276.944C224.63 276.859 224.817 276.814 225.006 276.814C225.195 276.814 225.381 276.859 225.549 276.944V276.944Z" fill="#FCCAD5"/>
<path d="M230.836 282.651C230.836 282.651 228.79 284.172 227.687 284.207C225.802 284.432 223.895 284.031 222.26 283.065C219.556 281.456 219.933 280.566 220.488 279.611C220.488 279.611 222.058 278.2 223.351 278.185L224.298 277.865C224.298 277.865 224.093 279.25 222.165 279.976C222.165 279.976 225.827 280.151 228.345 282.506C228.345 282.506 229.759 281.768 230.957 282.148L230.836 282.651Z" fill="#937965"/>
<path d="M213.772 262.249L294.895 215.397C295.692 214.936 296.597 214.694 297.517 214.694C298.438 214.694 299.342 214.936 300.139 215.397L352.364 245.56C352.995 245.925 353.519 246.449 353.884 247.08C354.248 247.712 354.44 248.428 354.44 249.157C354.44 249.886 354.248 250.602 353.884 251.233C353.519 251.864 352.995 252.389 352.364 252.754L320.42 271.204C318.099 272.544 315.466 273.25 312.786 273.25C310.106 273.25 307.473 272.544 305.152 271.204V271.204L261.418 296.46C260.787 296.824 260.071 297.016 259.342 297.016C258.613 297.016 257.897 296.824 257.266 296.46L213.768 271.352C212.967 270.893 212.302 270.23 211.839 269.43C211.376 268.631 211.133 267.723 211.133 266.799C211.133 265.876 211.378 264.968 211.841 264.169C212.304 263.37 212.971 262.708 213.772 262.249V262.249Z" fill="#E2823D"/>
<path d="M213.772 260.647L294.895 213.795C295.692 213.335 296.597 213.092 297.517 213.092C298.438 213.092 299.342 213.335 300.139 213.795L352.364 243.958C352.995 244.323 353.519 244.847 353.884 245.479C354.248 246.11 354.44 246.826 354.44 247.555C354.44 248.284 354.248 249 353.884 249.632C353.519 250.263 352.995 250.787 352.364 251.152L320.42 269.602C318.099 270.943 315.466 271.649 312.786 271.649C310.106 271.649 307.473 270.943 305.152 269.602V269.602L261.418 294.858C260.787 295.223 260.071 295.415 259.342 295.415C258.613 295.415 257.897 295.223 257.266 294.858L213.772 269.716C212.979 269.255 212.32 268.593 211.863 267.797C211.405 267.002 211.165 266.1 211.165 265.182C211.165 264.264 211.405 263.362 211.863 262.566C212.32 261.771 212.979 261.109 213.772 260.647V260.647Z" fill="#FFB151"/>
<path d="M228.664 277.386L213.171 268.438L228.664 259.491L244.161 268.438L228.664 277.386Z" fill="white"/>
<path d="M232.707 260.967L242.408 266.745L239.784 268.214C239.041 268.578 238.222 268.761 237.395 268.749C236.568 268.737 235.755 268.53 235.023 268.145L230.056 265.186C228.748 264.425 228.763 263.177 230.086 262.435L232.707 260.967Z" fill="#746E8C"/>
<path d="M234.391 265.623C235.338 266.186 235.331 267.08 234.372 267.617L232.634 268.575L229.212 266.532L230.946 265.562C231.484 265.3 232.077 265.169 232.676 265.18C233.275 265.19 233.862 265.342 234.391 265.623V265.623Z" fill="#FCCAD5"/>
<path d="M230.436 265.912L231.665 266.121C232.551 266.274 233.243 266.684 233.475 267.198L233.798 267.913C234.281 268.982 233.741 270.112 232.387 270.869L229.695 272.379C227.71 273.49 224.508 273.444 222.541 272.273C220.579 271.105 220.598 269.252 222.583 268.141L225.28 266.62C226.626 265.859 228.596 265.581 230.436 265.912Z" fill="#FCCAD5"/>
<path d="M232.657 270.698C232.723 270.72 232.78 270.762 232.821 270.818C232.861 270.875 232.883 270.942 232.883 271.012C232.883 271.081 232.861 271.149 232.821 271.205C232.78 271.261 232.723 271.304 232.657 271.326L231.402 272.029C231.234 272.115 231.047 272.159 230.858 272.159C230.669 272.159 230.483 272.115 230.315 272.029V272.029C230.249 272.007 230.192 271.965 230.151 271.909C230.111 271.853 230.089 271.785 230.089 271.716C230.089 271.646 230.111 271.578 230.151 271.522C230.192 271.466 230.249 271.424 230.315 271.402L231.57 270.698C231.738 270.612 231.924 270.568 232.113 270.568C232.302 270.568 232.489 270.612 232.657 270.698Z" fill="#FCCAD5"/>
<path d="M225.549 266.46C225.615 266.482 225.672 266.524 225.713 266.581C225.754 266.637 225.775 266.704 225.775 266.774C225.775 266.843 225.754 266.911 225.713 266.967C225.672 267.024 225.615 267.066 225.549 267.088L224.295 267.791C224.126 267.877 223.94 267.922 223.751 267.922C223.562 267.922 223.375 267.877 223.207 267.791V267.791C223.141 267.769 223.084 267.727 223.043 267.671C223.003 267.615 222.981 267.547 222.981 267.478C222.981 267.408 223.003 267.341 223.043 267.284C223.084 267.228 223.141 267.186 223.207 267.164L224.462 266.46C224.63 266.374 224.817 266.33 225.006 266.33C225.195 266.33 225.381 266.374 225.549 266.46Z" fill="#FCCAD5"/>
<path d="M230.836 272.147C230.836 272.147 228.79 273.669 227.687 273.703C225.802 273.929 223.895 273.528 222.26 272.562C219.556 270.953 219.933 270.063 220.488 269.108C220.488 269.108 222.058 267.696 223.351 267.681L224.298 267.362C224.298 267.362 224.093 268.746 222.165 269.473C222.165 269.473 225.827 269.648 228.345 272.003C228.345 272.003 229.759 271.265 230.957 271.645L230.836 272.147Z" fill="#937965"/>
<path d="M120.651 86.4044C121.617 86.4043 122.547 86.0306 123.245 85.3615C123.943 84.6924 124.355 83.7794 124.396 82.8132L125.298 61.4071C125.315 60.7857 125.208 60.167 124.983 59.5877C124.758 59.0084 124.418 58.4802 123.985 58.0343C123.552 57.5885 123.034 57.2341 122.462 56.9921C121.889 56.7501 121.274 56.6254 120.652 56.6254C120.031 56.6254 119.416 56.7501 118.843 56.9921C118.271 57.2341 117.753 57.5885 117.32 58.0343C116.887 58.4802 116.547 59.0084 116.322 59.5877C116.097 60.167 115.989 60.7857 116.007 61.4071L116.909 82.8132C116.95 83.7794 117.362 84.6924 118.06 85.3615C118.758 86.0306 119.688 86.4043 120.654 86.4044H120.651Z" fill="#2A6690"/>
<path d="M120.651 95.7056C122.64 95.7056 124.252 94.0927 124.252 92.103C124.252 90.1134 122.64 88.5005 120.651 88.5005C118.662 88.5005 117.049 90.1134 117.049 92.103C117.049 94.0927 118.662 95.7056 120.651 95.7056Z" fill="#2A6690"/>
</g>
<defs>
<clipPath id="clip0">
<rect width="450" height="367.606" fill="white"/>
</clipPath>
</defs>
</svg>
