<svg width="267" height="35" viewBox="0 0 267 35" fill="none" xmlns="http://www.w3.org/2000/svg">
<g clip-path="url(#clip0)">
<path d="M167.399 8.60388H168.338V15.2016H167.399V15.4476H170.408V15.2016H169.469V8.60388H170.408V8.35788H167.399V8.60388Z" fill="#005CA9"/>
<path d="M136.499 8.60388H137.433V15.2016H136.499V15.4476H139.503V15.2016H138.569V8.60388H139.503V8.35788H136.499V8.60388Z" fill="#005CA9"/>
<path d="M160.101 8.60388H161.034V15.2016H160.101V15.4476H163.104V15.2016H162.171V8.60388H163.104V8.35788H160.101V8.60388Z" fill="#005CA9"/>
<path d="M175.844 8.54919H176.926V13.3486H176.904L173.373 8.30325H171.083V8.54919H172V15.1469H171.083V15.3929H173.4V15.1469H172.303V8.77882H172.319L177.036 15.5078L177.223 15.4586V8.54919H178.139V8.30325H175.844V8.54919Z" fill="#005CA9"/>
<path d="M182.84 8.60388H183.741V11.6759H180.638V8.60388H181.538V8.35788H178.573V8.60388H179.507V15.2016H178.573V15.4476H181.538V15.2016H180.638V11.9219H183.741V15.2016H182.84V15.4476H185.811V15.2016H184.871V8.60388H185.811V8.35788H182.84V8.60388Z" fill="#005CA9"/>
<path d="M67.1704 8.60388H68.0713V11.6759H64.9686V8.60388H65.8689V8.35788H62.8984V8.60388H63.8372V15.2016H62.8984V15.4476H65.8689V15.2016H64.9686V11.9219H68.0713V15.2016H67.1704V15.4476H70.1415V15.2016H69.2027V8.60388H70.1415V8.35788H67.1704V8.60388Z" fill="#005CA9"/>
<path d="M189.594 8.30325H189.396L187.04 15.2618H186.2V15.5078H188.424V15.2618H187.381L188.106 13.0315H189.956L190.637 15.2618H189.599V15.5078H192.812V15.2618H191.895L189.594 8.30325ZM188.21 12.7254L189.066 10.1946L189.857 12.7254H188.21Z" fill="#005CA9"/>
<path d="M118.322 8.30325H118.125L115.774 15.2618H114.934V15.5078H117.158V15.2618H116.115L116.839 13.0315H118.695L119.376 15.2618H118.339V15.5078H121.551V15.2618H120.634L118.322 8.30325ZM116.939 12.7254L117.795 10.1946L118.619 12.7199L116.939 12.7254Z" fill="#005CA9"/>
<path d="M149.92 8.30325H149.722L147.367 15.2618H146.515V15.5078H148.74V15.2618H147.691L148.415 13.0315H150.271L150.953 15.2618H149.92V15.5078H153.133V15.2618H152.215L149.92 8.30325ZM148.536 12.7254L149.371 10.1891L150.156 12.7199L148.536 12.7254Z" fill="#005CA9"/>
<path d="M89.2891 8.54919H90.3708V13.3486H90.3491L86.8129 8.30325H84.5285V8.54919H85.4456V15.1469H84.5285V15.3929H86.8458V15.1469H85.7474V8.77882H85.7641L90.4758 15.5078L90.6676 15.4586V8.54919H91.5847V8.30325H89.2891V8.54919Z" fill="#005CA9"/>
<path d="M81.4754 15.2016H79.9653V11.9874H80.5148C81.6734 11.9874 81.7337 12.3154 81.7449 13.5562H82.0466V10.1727H81.7449C81.7449 11.2659 81.6784 11.6759 80.5148 11.6759H79.9653V8.60386H80.4434C82.7222 8.60386 83.0898 8.77874 83.3978 10.5334H83.661L83.6008 8.34692H77.8951V8.59292H78.8339V15.2016H77.8951V15.4476H83.8914L83.9852 13.026H83.7157C83.4741 14.4418 83.0022 15.2016 81.4754 15.2016Z" fill="#005CA9"/>
<path d="M58.6701 9.7135C58.6758 9.54563 58.7164 9.38075 58.7894 9.22932C58.8624 9.07788 58.9662 8.94313 59.0942 8.83369C59.2222 8.72425 59.3717 8.64244 59.5331 8.5935C59.6945 8.5445 59.8644 8.52944 60.032 8.54919C60.9655 8.54919 61.5421 9.09582 61.7837 10.2273H62.0582L61.9978 8.67494C61.4197 8.41125 60.794 8.26619 60.1583 8.24857C58.9831 8.24857 57.9068 8.95369 57.9068 10.2109C57.9068 12.6544 61.7507 11.9711 61.7507 13.8843C61.7507 14.8354 60.9326 15.2618 60.1034 15.2618C59.5524 15.2275 59.0346 14.988 58.6531 14.5909C58.2715 14.1939 58.054 13.6684 58.0441 13.119H57.7695L57.8354 15.1251C58.5063 15.433 59.2384 15.5863 59.9771 15.5733C61.2126 15.5733 62.4699 14.7753 62.4699 13.4196C62.4699 10.7576 58.6701 11.4791 58.6701 9.7135Z" fill="#005CA9"/>
<path d="M111.684 8.60388H112.584V11.6759H109.481V8.60388H110.382V8.35788H107.411V8.60388H108.35V15.2016H107.411V15.4476H110.382V15.2016H109.481V11.9219H112.584V15.2016H111.684V15.4476H114.654V15.2016H113.715V8.60388H114.654V8.35788H111.684V8.60388Z" fill="#005CA9"/>
<path d="M126.208 8.60388H127.114V11.6759H124.012V8.60388H124.912V8.35788H121.941V8.60388H122.88V15.2016H121.941V15.4476H124.912V15.2016H124.012V11.9219H127.114V15.2016H126.208V15.4476H129.184V15.2016H128.245V8.60388H129.184V8.35788H126.208V8.60388Z" fill="#005CA9"/>
<path d="M103.353 9.7135C103.358 9.54513 103.399 9.37969 103.472 9.22788C103.546 9.076 103.65 8.941 103.779 8.8315C103.908 8.72194 104.057 8.64025 104.219 8.59169C104.381 8.54307 104.552 8.52863 104.721 8.54919C105.654 8.54919 106.231 9.09582 106.467 10.2273H106.73L106.67 8.67494C106.092 8.41125 105.466 8.26619 104.83 8.24857C103.655 8.24857 102.578 8.95369 102.578 10.2109C102.578 12.6544 106.422 11.9711 106.422 13.8843C106.422 14.8354 105.604 15.2618 104.775 15.2618C104.226 15.2249 103.711 14.9843 103.332 14.5874C102.953 14.1906 102.737 13.6666 102.727 13.119H102.452L102.524 15.1251C103.194 15.4332 103.926 15.5864 104.665 15.5733C105.907 15.5733 107.158 14.7753 107.158 13.4196C107.153 10.7576 103.353 11.4791 103.353 9.7135Z" fill="#005CA9"/>
<path d="M43.8981 10.6319H44.2001C44.2386 9.70807 44.6174 8.66944 45.6443 8.66944H46.501V15.2289H45.4027V15.4749H48.7305V15.2289H47.6322V8.66944H48.4943C49.5103 8.66944 49.9001 9.70807 49.944 10.6319H50.2406V8.35788H43.8981V10.6319Z" fill="#005CA9"/>
<path d="M92.0355 10.6319H92.3373C92.3758 9.70807 92.7546 8.66944 93.7872 8.66944H94.6434V15.2289H93.5456V15.4749H96.8732V15.2289H95.7748V8.66944H96.6534C97.6692 8.66944 98.0592 9.70807 98.0977 10.6319H98.3945V8.35788H92.0355V10.6319Z" fill="#005CA9"/>
<path d="M200.313 8.5765H201.412V13.2119C201.412 14.4036 201.225 15.1743 199.342 15.1743C197.733 15.1743 197.453 14.5675 197.453 13.2884V8.5765H198.436V8.33057H195.404V8.5765H196.321V13.4196C196.321 14.7534 196.64 15.4859 199.034 15.4859C201.429 15.4859 201.709 14.6823 201.709 13.2994V8.5765H202.549V8.33057H200.352L200.313 8.5765Z" fill="#005CA9"/>
<path d="M207.825 8.54919H208.901V13.3486H208.885L205.348 8.30325H203.064V8.54919H203.981V15.1469H203.064V15.3929H205.376V15.1469H204.278V8.77882H204.3L209.011 15.5078L209.204 15.4586V8.54919H210.121V8.30325H207.825V8.54919Z" fill="#005CA9"/>
<path d="M210.598 8.60388H211.537V15.2016H210.598V15.4476H213.608V15.2016H212.669V8.60388H213.608V8.35788H210.598V8.60388Z" fill="#005CA9"/>
<path d="M218.55 8.54919H219.577L217.814 13.764H217.792L216.128 8.54919H217.155V8.30325H214.13V8.54919H214.942L217.276 15.5078H217.496L219.928 8.54919H220.664V8.30325H218.55V8.54919Z" fill="#005CA9"/>
<path d="M224.766 15.2016H223.256V11.9874H223.805C224.964 11.9874 225.024 12.3154 225.035 13.5562H225.332V10.1727H225.035C225.035 11.2659 224.964 11.6759 223.805 11.6759H223.256V8.60386H223.739C226.018 8.60386 226.386 8.77874 226.694 10.5334H226.952L226.892 8.34692H221.18V8.59292H222.119V15.2016H221.18V15.4476H227.177L227.265 13.026H226.996C226.798 14.4418 226.293 15.2016 224.766 15.2016Z" fill="#005CA9"/>
<path d="M254.134 15.2016H252.607V11.9874H253.156C254.315 11.9874 254.375 12.3154 254.386 13.5562H254.683V10.1727H254.386C254.386 11.2659 254.315 11.6759 253.156 11.6759H252.607V8.60386H253.09C255.369 8.60386 255.737 8.77874 256.044 10.5334H256.303L256.242 8.34692H250.553V8.59292H251.508V15.2016H250.57V15.4476H256.567L256.654 13.026H256.385C256.16 14.4418 255.66 15.2016 254.134 15.2016Z" fill="#005CA9"/>
<path d="M233.202 13.6328C233.125 12.064 232.652 11.8673 231.18 11.6868C232.142 11.5666 232.877 11.2277 232.877 10.0798C232.877 8.64214 231.982 8.37433 230.719 8.37433H227.803V8.62027H228.742V15.2016H227.803V15.4476H230.769V15.2016H229.868V11.8673H230.494C231.768 11.8673 231.988 12.2936 232.065 13.5836C232.158 14.983 232.246 15.4476 233.459 15.4476H234.184V15.2016H233.937C233.328 15.2016 233.251 14.6878 233.202 13.6328ZM229.868 11.5611V8.60389H230.39C231.406 8.60389 231.746 9.15052 231.746 10.0688C231.746 10.8833 231.455 11.5556 230.571 11.5556L229.868 11.5611Z" fill="#005CA9"/>
<path d="M134.955 13.6328C134.873 12.064 134.407 11.8673 132.934 11.6868C133.896 11.5666 134.631 11.2277 134.631 10.0798C134.631 8.64214 133.737 8.37433 132.473 8.37433H129.557V8.62027H130.497V15.2016H129.557V15.4476H132.523V15.2016H131.622V11.8673H132.248C133.522 11.8673 133.742 12.2936 133.819 13.5836C133.912 14.983 134 15.4476 135.214 15.4476H135.944V15.2016H135.697C135.093 15.2016 135.004 14.6878 134.955 13.6328ZM131.622 11.5611V8.60389H132.144C133.16 8.60389 133.5 9.15052 133.5 10.0688C133.5 10.8833 133.209 11.5556 132.325 11.5556L131.622 11.5611Z" fill="#005CA9"/>
<path d="M235.584 9.71351C235.59 9.54563 235.631 9.38076 235.703 9.22932C235.777 9.07788 235.88 8.94313 236.008 8.8337C236.136 8.72426 236.286 8.64245 236.447 8.59351C236.609 8.54451 236.779 8.52945 236.946 8.5492C237.88 8.5492 238.456 9.09582 238.698 10.2274H238.961L238.879 8.66951C238.299 8.40532 237.672 8.26032 237.034 8.24313C235.859 8.24313 234.782 8.94826 234.782 10.2055C234.782 12.6489 238.627 11.9656 238.627 13.8788C238.627 14.8299 237.808 15.2563 236.979 15.2563C236.437 15.2117 235.931 14.9684 235.559 14.5736C235.186 14.1788 234.974 13.6604 234.964 13.119H234.689L234.755 15.1251C235.426 15.4334 236.158 15.5866 236.897 15.5733C238.132 15.5733 239.39 14.7753 239.39 13.4196C239.39 10.7576 235.584 11.4791 235.584 9.71351Z" fill="#005CA9"/>
<path d="M240.037 8.60388H240.977V15.2016H240.037V15.4476H243.047V15.2016H242.108V8.60388H243.047V8.35788H240.037V8.60388Z" fill="#005CA9"/>
<path d="M263.997 8.60388H264.935V15.2016H263.997V15.4476H267V15.2016H266.067V8.60388H267V8.35788H263.997V8.60388Z" fill="#005CA9"/>
<path d="M257.001 10.6319H257.297C257.341 9.70807 257.714 8.66944 258.747 8.66944H259.603V15.2289H258.505V15.4749H261.833V15.2289H260.734V8.66944H261.596C262.613 8.66944 263.002 9.70807 263.04 10.6319H263.337V8.35788H257.001V10.6319Z" fill="#005CA9"/>
<path d="M243.651 10.6319H243.953C243.991 9.70807 244.37 8.66944 245.397 8.66944H246.254V15.2289H245.156V15.4749H248.483V15.2289H247.385V8.66944H248.247C249.263 8.66944 249.653 9.70807 249.692 10.6319H249.988V8.35788H243.651V10.6319Z" fill="#005CA9"/>
<path d="M71.6901 15.1853V8.62576H70.7507V8.35788H73.8206V8.62576H72.8923V15.1853H73.8206V15.4531H70.7507V15.1853H71.6901ZM74.8917 8.35245H76.7638V8.62026H76.0832L73.8864 11.0746L76.8848 15.1853H77.4337V15.4531H74.7923V15.1853H75.4188L72.9531 11.7033L75.6989 8.62026H74.8749L74.8917 8.35245Z" fill="#005CA9"/>
<path d="M54.0356 8.336C52.2948 8.336 50.8835 9.66431 50.8835 11.9055C50.8835 14.1466 52.2948 15.4804 54.0356 15.4804C55.7763 15.4804 57.1876 14.1466 57.1876 11.9055C57.1876 9.66431 55.7763 8.336 54.0356 8.336ZM55.7105 13.9171C55.685 14.1264 55.6107 14.3269 55.4934 14.5026C55.3761 14.6781 55.2191 14.824 55.035 14.9283C54.7177 15.093 54.3659 15.181 54.0081 15.1852C53.7854 15.2033 53.5614 15.1747 53.3504 15.1013C53.1394 15.0279 52.9463 14.9112 52.7835 14.7589C52.5096 14.4544 52.3387 14.072 52.2948 13.6656C52.2146 13.1006 52.1742 12.5307 52.174 11.9601C52.1483 11.2272 52.2054 10.4938 52.3442 9.77362C52.3822 9.58987 52.4585 9.41606 52.5682 9.2635C52.678 9.11094 52.8187 8.98306 52.9812 8.88812C53.3055 8.71656 53.6684 8.63006 54.0356 8.63669C54.3822 8.62994 54.7247 8.71281 55.0295 8.87719C55.3274 9.05 55.5504 9.32656 55.6555 9.65337C55.8187 10.2923 55.8853 10.9519 55.8532 11.6103C55.8771 12.3801 55.8293 13.1505 55.7105 13.9116V13.9171Z" fill="#005CA9"/>
<path d="M140.803 15.1634V8.64763H139.892V8.37976H142.939C143.558 8.36357 144.174 8.46944 144.752 8.69132C145.3 8.94263 145.745 9.37525 146.009 9.91575C146.345 10.5213 146.52 11.2028 146.514 11.8946C146.526 12.6051 146.336 13.3044 145.965 13.9116C145.673 14.4334 145.226 14.8532 144.686 15.1142C144.128 15.3366 143.529 15.4427 142.929 15.4258H139.903V15.1579L140.803 15.1634ZM142.001 8.64763V15.1634H142.874C143.244 15.1711 143.614 15.1269 143.972 15.0322C144.269 14.9415 144.525 14.7476 144.691 14.4856C144.897 14.1433 145.028 13.7613 145.075 13.365C145.15 12.7777 145.183 12.1859 145.175 11.5939C145.212 10.9246 145.103 10.2551 144.856 9.63151C144.786 9.45344 144.681 9.29107 144.547 9.15401C144.413 9.01694 144.253 8.90794 144.076 8.83344C143.684 8.71888 143.277 8.66719 142.868 8.68038L142.001 8.64763Z" fill="#005CA9"/>
<path d="M158.514 10.5061H158.201C158.15 10.2429 158.075 9.98488 157.976 9.73538C157.858 9.36563 157.624 9.04375 157.306 8.81806C156.99 8.59238 156.608 8.47506 156.219 8.48363C156.006 8.46544 155.792 8.48994 155.589 8.55569C155.387 8.62144 155.199 8.72706 155.038 8.86625C154.785 9.12925 154.625 9.46694 154.582 9.82831C154.519 10.3726 154.491 10.9204 154.5 11.4682C154.474 12.3264 154.515 13.1853 154.62 14.0373C154.672 14.4033 154.851 14.7398 155.126 14.9884C155.388 15.2024 155.72 15.315 156.059 15.3055C156.335 15.3086 156.607 15.2428 156.85 15.1142C156.958 15.0592 157.052 14.9819 157.126 14.8876C157.202 14.7934 157.255 14.6842 157.284 14.5676C157.352 14.1981 157.382 13.8226 157.372 13.447V13.0698H156.389V12.8019H159.563V13.0698H158.745C158.781 13.4358 158.724 13.8049 158.579 14.1431C158.434 14.4814 158.206 14.7778 157.916 15.0049C157.414 15.3779 156.806 15.5828 156.18 15.5898C155.754 15.5932 155.332 15.4959 154.95 15.3059C154.568 15.1159 154.237 14.8385 153.983 14.4965C153.398 13.7641 153.088 12.8519 153.105 11.9164C153.075 10.9639 153.391 10.0326 153.994 9.29263C154.215 8.99275 154.495 8.74175 154.818 8.5555C155.141 8.36919 155.498 8.25182 155.869 8.21069C156.24 8.16957 156.615 8.20563 156.971 8.31663C157.328 8.42756 157.657 8.61106 157.937 8.85531C158.096 8.98106 158.223 8.6695 158.223 8.6695H158.503L158.514 10.5061Z" fill="#005CA9"/>
<path d="M43.9812 19.6238H44.9201V26.2325H43.9812V26.4839H46.9959V26.2325H46.0569V19.6238H46.9959V19.3723H43.9812V19.6238Z" fill="#005CA9"/>
<path d="M52.734 19.6238H53.8158V24.4341H53.7938L50.2519 19.3723H47.962V19.6238H48.8791V26.2324H47.962V26.4839H50.2849V26.2324H49.1811V19.8533H49.2031L53.9256 26.5987L54.1123 26.5495V19.6238H55.0349V19.3723H52.734V19.6238Z" fill="#005CA9"/>
<path d="M139.141 19.6238H140.079V26.2325H139.141V26.4839H142.155V26.2325H141.216V19.6238H142.155V19.3723H139.141V19.6238Z" fill="#005CA9"/>
<path d="M147.888 19.6238H148.97V24.4341H148.953L145.411 19.3723H143.121V19.6238H144.038V26.2324H143.121V26.4839H145.439V26.2324H144.335V19.8533H144.357L149.079 26.5987L149.272 26.5495V19.6238H150.194V19.3723H147.888V19.6238Z" fill="#005CA9"/>
<path d="M60.1966 19.6238H61.1027V22.7013H57.9946V19.6238H58.8952V19.3723H55.9189V19.6238H56.8579V26.2325H55.9189V26.4839H58.8952V26.2325H57.9946V22.9473H61.1027V26.2325H60.1966V26.4839H63.1784V26.2325H62.234V19.6238H63.1784V19.3723H60.1966V19.6238Z" fill="#005CA9"/>
<path d="M175.421 19.6238H176.322V22.7013H173.213V19.6238H174.114V19.3723H171.138V19.6238H172.077V26.2325H171.138V26.4839H174.114V26.2325H173.213V22.9473H176.322V26.2325H175.421V26.4839H178.398V26.2325H177.458V19.6238H178.398V19.3723H175.421V19.6238Z" fill="#005CA9"/>
<path d="M66.9673 19.2576H66.7699L64.4141 26.2379H63.5739V26.4839H65.8031V26.2379H64.7487L65.4796 24.0023H67.3411L68.0217 26.2379H67.0002V26.4839H70.2185V26.2379H69.2958L66.9673 19.2576ZM65.5783 23.6907L66.4513 21.1489L67.2418 23.6852L65.5783 23.6907Z" fill="#005CA9"/>
<path d="M162.379 19.2576H162.182L159.804 26.2379H158.98V26.4839H161.21V26.2379H160.161L160.902 23.9968H162.764L163.429 26.2379H162.391V26.4839H165.608V26.2379H164.686L162.379 19.2576ZM160.99 23.6907L161.847 21.1543L162.638 23.6907H160.99Z" fill="#005CA9"/>
<path d="M77.9832 19.6183H79.0817V24.2646C79.0817 25.4563 78.8892 26.2325 77.0059 26.2325C75.3915 26.2325 75.1114 25.6257 75.1114 24.3412V19.6183H76.1V19.3724H73.0413V19.6183H73.964V24.4724C73.964 25.8061 74.2825 26.5441 76.7091 26.5441C79.1363 26.5441 79.389 25.735 79.389 24.3575V19.6019H80.1801V19.3559H77.9832V19.6183Z" fill="#005CA9"/>
<path d="M85.9181 19.6238H86.9998V24.4341H86.978L83.4356 19.3723H81.1463V19.6238H82.0628V26.2324H81.1463V26.4839H83.4636V26.2324H82.3652V19.8533H82.3813L87.1097 26.5987L87.296 26.5495V19.6238H88.2187V19.3723H85.9181V19.6238Z" fill="#005CA9"/>
<path d="M197.952 19.6238H199.034V24.4341H199.012L195.47 19.3723H193.18V19.6238H194.097V26.2324H193.18V26.4839H195.497V26.2324H194.4V19.8533H194.421L199.143 26.5987L199.336 26.5495V19.6238H200.253V19.3723H197.952V19.6238Z" fill="#005CA9"/>
<path d="M89.1799 19.6238H90.1187V26.2325H89.1799V26.4839H92.1945V26.2325H91.2556V19.6238H92.1945V19.3723H89.1799V19.6238Z" fill="#005CA9"/>
<path d="M96.9831 19.6238H98.0101L96.2417 24.8495H96.2249L94.5559 19.6238H95.5829V19.3723H92.5459V19.6238H93.3643L95.7034 26.5987H95.9232L98.3616 19.6238H99.0974V19.3723H96.9831V19.6238Z" fill="#005CA9"/>
<path d="M103.04 26.238H101.525V23.0129H102.073C103.238 23.0129 103.299 23.3464 103.309 24.5872H103.606V21.1981H103.309C103.309 22.2914 103.238 22.7068 102.073 22.7068H101.525V19.6184H102.008C104.292 19.6184 104.66 19.7988 104.973 21.5534H105.232L105.171 19.3669H99.4488V19.6129H100.388V26.238H99.4488V26.484H105.44L105.55 24.0515H105.281C105.072 25.4673 104.572 26.238 103.04 26.238Z" fill="#005CA9"/>
<path d="M189.912 26.238H188.396V23.0129H188.946C190.11 23.0129 190.17 23.3464 190.182 24.5872H190.483V21.1981H190.182C190.182 22.2914 190.11 22.7068 188.946 22.7068H188.396V19.6184H188.88C191.165 19.6184 191.532 19.7988 191.84 21.5534H192.103L192.043 19.3669H186.321V19.6129H187.26V26.238H186.321V26.484H192.328L192.422 24.0515H192.152C191.938 25.4673 191.439 26.238 189.912 26.238Z" fill="#005CA9"/>
<path d="M111.947 24.6637C111.865 23.0949 111.398 22.8926 109.921 22.7123C110.882 22.592 111.618 22.2531 111.618 21.0997C111.618 19.6566 110.722 19.3888 109.454 19.3888H106.538V19.6348H107.477V26.2379H106.538V26.4839H109.514V26.2379H108.614V22.8926H109.245C110.519 22.8926 110.744 23.319 110.821 24.6145C110.915 26.0193 111.002 26.4839 112.216 26.4839H112.947V26.2379H112.699C112.079 26.2379 112.002 25.6913 111.947 24.6637ZM108.603 22.5865V19.6184H109.125C110.146 19.6184 110.486 20.165 110.486 21.0888C110.486 21.9033 110.195 22.5811 109.305 22.5811L108.603 22.5865Z" fill="#005CA9"/>
<path d="M114.287 20.7335C114.293 20.5651 114.333 20.3996 114.406 20.2478C114.48 20.096 114.584 19.961 114.713 19.8515C114.842 19.7419 114.992 19.6603 115.154 19.6116C115.316 19.563 115.486 19.5486 115.654 19.5691C116.588 19.5691 117.165 20.1158 117.406 21.2528H117.669L117.609 19.6785C117.03 19.4125 116.402 19.2656 115.764 19.2466C114.583 19.2466 113.507 19.9518 113.507 21.2145C113.507 23.6688 117.384 22.9801 117.384 24.8987C117.384 25.8498 116.566 26.2762 115.736 26.2762C115.187 26.2421 114.67 26.0033 114.288 25.6075C113.907 25.2115 113.689 24.6874 113.677 24.139H113.403L113.474 26.1505C114.147 26.4594 114.881 26.6126 115.622 26.5987C116.862 26.5987 118.12 25.8006 118.12 24.4123C118.098 21.7775 114.287 22.5155 114.287 20.7335Z" fill="#005CA9"/>
<path d="M166.784 20.7335C166.789 20.5651 166.83 20.3997 166.903 20.2478C166.976 20.096 167.081 19.961 167.21 19.8515C167.338 19.7419 167.488 19.6603 167.65 19.6116C167.812 19.563 167.983 19.5486 168.151 19.5691C169.084 19.5691 169.66 20.1158 169.903 21.2528H170.166L170.111 19.6785C169.531 19.412 168.904 19.2651 168.266 19.2466C167.085 19.2466 166.009 19.9518 166.009 21.2145C166.009 23.6689 169.886 22.9801 169.886 24.8988C169.886 25.8499 169.067 26.2763 168.239 26.2763C167.685 26.2446 167.164 26.0055 166.779 25.607C166.396 25.2085 166.177 24.6801 166.168 24.128H165.894L165.96 26.1396C166.632 26.4483 167.366 26.6016 168.107 26.5878C169.348 26.5878 170.606 25.7898 170.606 24.4013C170.6 21.7775 166.784 22.5155 166.784 20.7335Z" fill="#005CA9"/>
<path d="M118.861 19.6238H119.8V26.2325H118.861V26.4839H121.876V26.2325H120.937V19.6238H121.876V19.3723H118.861V19.6238Z" fill="#005CA9"/>
<path d="M122.633 21.6518H122.93C122.973 20.728 123.353 19.684 124.379 19.684H125.242V26.238H124.143V26.4839H127.482V26.238H126.384V19.6785H127.246C128.267 19.6785 128.657 20.7226 128.696 21.6464H128.998V19.3779H122.633V21.6518Z" fill="#005CA9"/>
<path d="M153.373 21.6518H153.675C153.714 20.728 154.093 19.684 155.125 19.684H155.96V26.238H154.861V26.4839H158.2V26.238H157.102V19.6785H157.964C158.985 19.6785 159.375 20.7226 159.414 21.6464H159.71V19.3779H153.373V21.6518Z" fill="#005CA9"/>
<path d="M201.17 21.6518H201.472C201.51 20.728 201.895 19.684 202.922 19.684H203.778V26.238H202.68V26.4839H206.013V26.238H204.915V19.6785H205.777C206.798 19.6785 207.188 20.7226 207.227 21.6464H207.524V19.3779H201.17V21.6518Z" fill="#005CA9"/>
<path d="M133.384 19.3723V19.6238H134.406L132.913 22.5318L131.336 19.6238H132.374V19.3723H129.194V19.6238H130.035L131.902 22.909V26.2325H130.952V26.4839H133.956V26.2325H133.033V22.8871L134.719 19.6238H135.499V19.3723H133.384Z" fill="#005CA9"/>
<path d="M180.209 26.238V19.6785H179.271V19.4106H182.351V19.6785H181.418V26.238H182.351V26.5058H179.271V26.238H180.209ZM183.417 19.3669H185.294V19.6348H184.613L182.417 22.0946L185.443 26.238H185.959V26.5058H183.312V26.238H183.965L181.494 22.7451L184.267 19.6512H183.417V19.3669Z" fill="#005CA9"/>
<path d="M3.68547 14.4586C3.93123 14.4586 4.13046 14.2603 4.13046 14.0156C4.13046 13.771 3.93123 13.5727 3.68547 13.5727C3.43971 13.5727 3.24048 13.771 3.24048 14.0156C3.24048 14.2603 3.43971 14.4586 3.68547 14.4586Z" fill="#1D1D1B"/>
<path d="M31.3017 14.4586C31.5475 14.4586 31.7467 14.2603 31.7467 14.0156C31.7467 13.771 31.5475 13.5727 31.3017 13.5727C31.0559 13.5727 30.8567 13.771 30.8567 14.0156C30.8567 14.2603 31.0559 14.4586 31.3017 14.4586Z" fill="#1D1D1B"/>
<path d="M17.4954 8.58521e-07C14.036 -0.00108034 10.6539 1.01908 7.77703 2.93146C4.90011 4.84383 2.65753 7.5625 1.33292 10.7437C0.00831296 13.9249 -0.338829 17.4256 0.335402 20.8031C1.00963 24.1807 2.67495 27.2834 5.12074 29.7188C7.56653 32.1541 10.6829 33.8128 14.0757 34.4851C17.4686 35.1572 20.9855 34.8128 24.1817 33.4953C27.3779 32.1777 30.1098 29.9462 32.0318 27.083C33.9539 24.2199 34.9798 20.8536 34.9798 17.41C34.9798 12.7935 33.1379 8.36606 29.859 5.1012C26.5802 1.83635 22.1331 0.0014503 17.4954 8.58521e-07ZM17.4954 34.3499C14.1285 34.3499 10.8373 33.3561 8.03782 31.4941C5.23841 29.6321 3.05651 26.9856 1.76807 23.8893C0.47963 20.7929 0.142516 17.3857 0.799355 14.0986C1.4562 10.8116 3.07749 7.79219 5.45822 5.42234C7.83893 3.05249 10.8722 1.43861 14.1743 0.784763C17.4765 0.130925 20.8993 0.4665 24.0099 1.74906C27.1204 3.03161 29.7791 5.20354 31.6496 7.99019C33.5201 10.7768 34.5185 14.0531 34.5185 17.4045C34.5185 19.6298 34.0782 21.8333 33.2227 23.8893C32.3672 25.9451 31.1133 27.8132 29.5326 29.3867C27.9518 30.9602 26.0752 32.2084 24.0099 33.06C21.9445 33.9116 19.7309 34.3499 17.4954 34.3499Z" fill="#1D1D1B"/>
<path d="M17.4962 6.31351C15.2915 6.31351 13.1362 6.96432 11.3031 8.18363C9.46982 9.40294 8.04106 11.1359 7.19734 13.1636C6.35362 15.1912 6.13285 17.4223 6.56299 19.5748C6.99311 21.7274 8.05478 23.7046 9.61381 25.2564C11.1728 26.8083 13.1591 27.8651 15.3215 28.2933C17.4839 28.7214 19.7252 28.5017 21.7621 27.6619C23.7991 26.822 25.5401 25.3997 26.765 23.5749C27.9899 21.7501 28.6436 19.6047 28.6436 17.41C28.6436 15.9528 28.3553 14.5099 27.7951 13.1636C27.2349 11.8173 26.4138 10.594 25.3786 9.56363C24.3435 8.53319 23.1146 7.71582 21.7621 7.15819C20.4097 6.60057 18.9601 6.31351 17.4962 6.31351ZM17.4962 28.2441C15.3436 28.2441 13.2393 27.6088 11.4495 26.4183C9.65964 25.2278 8.26465 23.5358 7.44087 21.5561C6.61708 19.5764 6.40155 17.398 6.82149 15.2964C7.24142 13.1948 8.27807 11.2643 9.80015 9.74913C11.3223 8.23394 13.2616 7.20213 15.3729 6.78407C17.4841 6.36607 19.6725 6.58057 21.6613 7.40057C23.65 8.22063 25.3499 9.60926 26.5458 11.3909C27.7417 13.1726 28.3801 15.2673 28.3801 17.41C28.3801 20.2834 27.2333 23.0391 25.1923 25.0709C23.1511 27.1027 20.3828 28.2441 17.4962 28.2441Z" fill="#1D1D1B"/>
<path d="M24.0967 11.7743H21.5322V11.1292H20.5602V8.34693H16.6504C16.3126 8.32974 15.9752 8.38587 15.6613 8.51143C15.3475 8.63693 15.0647 8.82887 14.8328 9.07393C14.4172 9.57324 14.202 10.2081 14.2287 10.8559V11.7688H11.1701L9.89059 23.6852L17.6224 26.965L25.3542 23.6852L24.0967 11.7743ZM17.6443 26.6862H17.6169L10.1981 23.5376L11.4172 12.0913V12.0257H14.5143V10.8559C14.4842 10.2601 14.6802 9.67474 15.0634 9.21606C15.2706 9.00024 15.522 8.83143 15.8006 8.72106C16.0792 8.61068 16.3784 8.56143 16.6779 8.57649H20.3241V11.3534H21.2961V12.0257H23.8825V12.0585L25.0906 23.5049L17.6443 26.6862Z" fill="#1D1D1B"/>
<path fill-rule="evenodd" clip-rule="evenodd" d="M21.2795 13.3322H21.2411H20.3076V15.0923H21.2411H21.2795V15.1251V15.5406H23.7891L23.4651 12.474H21.2795V13.2939V13.3322Z" fill="#00B1EB"/>
<path fill-rule="evenodd" clip-rule="evenodd" d="M11.8015 12.474L11.4775 15.5406H14.4922V12.474H11.8015Z" fill="#00B1EB"/>
<path fill-rule="evenodd" clip-rule="evenodd" d="M23.8332 15.956H21.2798V17.0492H20.3243V18.5361H17.2821V15.956H16.1454V16.2457C16.1454 17.7107 14.778 18.4814 13.3997 18.4814H13.2625V16.8852H13.3503C13.9873 16.8852 14.4486 16.5518 14.4486 16.1091V15.956H11.4284L10.6541 23.248L17.6336 26.2052L24.613 23.248L23.8332 15.956Z" fill="#005CA9"/>
<path d="M17.2827 12.474H16.146V15.5406H17.2827V12.474Z" fill="#00B1EB"/>
<path fill-rule="evenodd" clip-rule="evenodd" d="M16.9138 10.0251C16.8057 10.0253 16.699 10.0481 16.6002 10.0918C16.5016 10.1356 16.4132 10.1994 16.3408 10.2792C16.2684 10.359 16.2136 10.453 16.1799 10.5552C16.1461 10.6573 16.1342 10.7654 16.145 10.8724V12.0257H17.2817V10.0251H16.9138ZM17.0291 11.7743H16.3976V10.8724C16.3908 10.7992 16.3989 10.7255 16.4214 10.6556C16.444 10.5856 16.4803 10.5209 16.5285 10.4653C16.5767 10.4097 16.6356 10.3644 16.7018 10.3319C16.768 10.2995 16.8401 10.2806 16.9138 10.2766H17.0291V11.7743Z" fill="black"/>
<path d="M15.08 20.5585C15.0172 20.5549 14.9549 20.5702 14.9011 20.6024C14.8472 20.6346 14.8043 20.6822 14.7779 20.7389C14.7169 20.859 14.6867 20.9924 14.6901 21.127H14.4485C14.433 20.9214 14.4893 20.7167 14.6077 20.5476C14.6624 20.4706 14.7361 20.409 14.8218 20.3688C14.9074 20.3286 15.002 20.3111 15.0965 20.318C15.2613 20.3139 15.4212 20.3749 15.5413 20.4875C15.6045 20.551 15.6534 20.6274 15.6846 20.7112C15.7159 20.7951 15.7288 20.8847 15.7224 20.974C15.7331 21.1469 15.6805 21.3178 15.5742 21.455C15.4749 21.5697 15.3625 21.6724 15.2392 21.7611C15.1111 21.8485 14.9903 21.936 14.8768 22.0235C14.7691 22.1073 14.6966 22.2282 14.6736 22.3624H15.7005V22.6029H14.3936C14.3946 22.3894 14.4617 22.1813 14.5858 22.007C14.6953 21.8789 14.8208 21.765 14.9592 21.6682C15.0984 21.5746 15.2272 21.4664 15.3435 21.3457C15.4317 21.2402 15.4768 21.1055 15.4698 20.9685C15.4722 20.914 15.4632 20.8597 15.4433 20.8089C15.4235 20.7581 15.3933 20.7119 15.3545 20.6733C15.319 20.6367 15.2762 20.6077 15.229 20.5879C15.1819 20.5682 15.1312 20.5582 15.08 20.5585Z" fill="white"/>
<path d="M16.7218 22.6412C16.598 22.6524 16.4743 22.6188 16.3734 22.5464C16.2725 22.4742 16.2013 22.3681 16.1727 22.2476C16.0401 21.7423 16.0401 21.2115 16.1727 20.7061C16.2171 20.5921 16.2951 20.4939 16.3966 20.4248C16.498 20.3556 16.6181 20.3186 16.741 20.3186C16.864 20.3186 16.9841 20.3556 17.0855 20.4248C17.1869 20.4939 17.265 20.5921 17.3094 20.7061C17.4386 21.2119 17.4386 21.7419 17.3094 22.2476C17.2816 22.3761 17.2048 22.4889 17.0953 22.5623C16.9857 22.6356 16.8519 22.6639 16.7218 22.6412ZM16.7218 20.5586C16.6762 20.5564 16.6306 20.5633 16.5877 20.579C16.5449 20.5947 16.5056 20.6188 16.4723 20.6499C16.439 20.6811 16.4124 20.7185 16.3939 20.7601C16.3754 20.8017 16.3656 20.8466 16.3649 20.892C16.2956 21.2807 16.2956 21.6785 16.3649 22.0673C16.3757 22.1546 16.4183 22.2349 16.4845 22.2933C16.5508 22.3515 16.6362 22.3837 16.7246 22.3837C16.813 22.3837 16.8983 22.3515 16.9646 22.2933C17.0308 22.2349 17.0734 22.1546 17.0842 22.0673C17.1522 21.6784 17.1522 21.2808 17.0842 20.892C17.0836 20.8461 17.0736 20.8007 17.0548 20.7588C17.036 20.7168 17.0088 20.6791 16.9749 20.6479C16.941 20.6167 16.9011 20.5927 16.8576 20.5773C16.8141 20.562 16.7679 20.5556 16.7218 20.5586Z" fill="white"/>
<path d="M18.5782 20.3181V22.6029H18.3037V20.9631H17.7875V20.7444C17.915 20.7467 18.0411 20.7187 18.1554 20.6624C18.2142 20.6264 18.2634 20.5767 18.2987 20.5177C18.3341 20.4587 18.3546 20.3921 18.3585 20.3235L18.5782 20.3181Z" fill="white"/>
<path d="M20.3241 20.3181V21.8267H20.5493V22.0672H20.3241V22.6139H20.1044V22.0672H19.2258V21.7884L20.1319 20.3181H20.3241ZM19.418 21.8267H20.1044V20.7007L19.418 21.8267Z" fill="white"/>
<path d="M16.2163 2.6402L16.4085 2.6238L16.4964 3.96303L16.3042 3.97397L16.3097 4.02316L16.9192 3.97943L16.9138 3.93023L16.7271 3.94663L16.6392 2.61287L16.8259 2.60193V2.54727L16.2163 2.591V2.6402Z" fill="#1D1D1B"/>
<path d="M22.4001 3.40544L22.6087 3.47103L22.3012 4.39483L21.9388 3.19772L21.5049 3.0556L21.4885 3.1048L21.6642 3.15946L21.2413 4.42763L21.0656 4.37297L21.0492 4.4167L21.494 4.56428L21.5105 4.52055L21.2963 4.44949L21.7082 3.22505L22.1859 4.81573L22.2243 4.8212L22.6691 3.4929L22.8448 3.54756L22.8613 3.50383L22.4165 3.35625L22.4001 3.40544Z" fill="#1D1D1B"/>
<path d="M9.7974 4.71739L9.96214 4.62446L10.6321 5.7833L10.4673 5.87623L10.4893 5.91996L11.0165 5.61932L10.9945 5.57559L10.8298 5.66852L10.1598 4.50967L10.3246 4.41674L10.2971 4.37302L9.76996 4.67912L9.7974 4.71739Z" fill="#1D1D1B"/>
<path d="M30.6258 10.4569L30.7301 10.6482L29.8735 11.1183L30.4226 9.99773L30.2029 9.59323L30.159 9.62054L30.2469 9.77904L29.0718 10.4295L28.9839 10.2655L28.9399 10.2874L29.1651 10.6974L29.2091 10.6755L29.0992 10.4787L30.2359 9.85561V9.86104L29.5001 11.3479L29.5275 11.3807L30.7575 10.7029L30.8454 10.8614L30.8948 10.8395L30.6697 10.435L30.6258 10.4569Z" fill="#1D1D1B"/>
<path d="M27.5016 6.44469L27.6389 6.56494L27.2216 7.02957L26.7548 6.61413L27.1721 6.14953L27.3039 6.26976L27.3423 6.23153L26.8921 5.83249L26.8591 5.87075L27.0019 5.99648L26.1068 6.99132L25.9641 6.86563L25.9311 6.90388L26.3814 7.30288L26.4144 7.27013L26.2771 7.14438L26.7218 6.65245L27.1886 7.06788L26.7438 7.56532L26.6065 7.43957L26.5736 7.47782L27.0239 7.87688L27.0568 7.83863L26.914 7.71288L27.8092 6.71801L27.9519 6.84376L27.9849 6.81095L27.5346 6.40645L27.5016 6.44469Z" fill="#1D1D1B"/>
<path d="M5.25083 8.98108L5.35516 8.82802L5.87135 9.17789L5.51991 9.69714L5.00372 9.34733L5.10257 9.1997L5.06413 9.16695L4.72366 9.66433L4.76759 9.6917L4.87193 9.53864L5.98667 10.2875L5.87684 10.4406L5.92077 10.4679L6.25573 9.97596L6.2173 9.94858L6.11296 10.0962L5.56383 9.72452L5.91528 9.2052L6.46443 9.57689L6.36558 9.72995L6.40401 9.75727L6.74447 9.25983L6.70051 9.23252L6.59619 9.39108L5.48147 8.6422L5.59129 8.48364L5.54736 8.45633L5.21239 8.95377L5.25083 8.98108Z" fill="#1D1D1B"/>
<path d="M25.2231 4.67365H25.1901L24.048 5.63571L23.9052 5.54824V5.59198L24.2896 5.82156V5.77783L24.1083 5.6685L24.4708 5.35693L24.7893 5.54824L24.674 6.00741L24.4928 5.89808V5.94181L25.0419 6.27524V6.23153L24.8827 6.1386L25.2231 4.67365ZM24.5202 5.2968L24.9375 4.94696L24.8058 5.49358L24.5202 5.2968Z" fill="#1D1D1B"/>
<path d="M6.17352 7.69644V7.72925L6.93684 9.00838L6.827 9.13407L6.86544 9.16688L7.15647 8.828L7.11803 8.79519L6.98074 8.95369L6.73361 8.54919L6.98074 8.26494L7.41459 8.45625L7.2773 8.61482L7.31574 8.64757L7.73853 8.15563L7.69463 8.12282L7.5738 8.26494L6.17352 7.69644ZM6.67326 8.49457L6.39316 8.02988L6.88742 8.24307L6.67326 8.49457Z" fill="#1D1D1B"/>
<path d="M7.8647 6.09488L8.02943 5.95276L8.65545 6.65788C8.81472 6.83831 8.89159 6.98044 8.60603 7.23188C8.32046 7.48331 8.23812 7.39038 8.05687 7.19906L7.42539 6.483L7.57367 6.35181L7.5407 6.3135L7.07947 6.71806L7.11238 6.75631L7.24967 6.63606L7.90313 7.3685C8.08438 7.57075 8.22713 7.64181 8.59504 7.31931C8.963 6.99681 8.89159 6.83831 8.71034 6.63606L8.07339 5.91449L8.19969 5.80517L8.16672 5.76691L7.83179 6.06208L7.8647 6.09488Z" fill="#1D1D1B"/>
<path d="M4.39925 10.3367L4.50359 10.1399L5.36572 10.5936L4.12469 10.7576L3.91052 11.1621L3.95445 11.1894L4.04231 11.0199L5.23393 11.6376L5.14607 11.8016L5.19 11.8289L5.40965 11.4135L5.36023 11.3916L5.26139 11.5884L4.10821 10.9926L4.1137 10.9871L5.76659 10.7739L5.77757 10.7357L4.53104 10.0907L4.61342 9.92669L4.56948 9.90482L4.35532 10.3148L4.39925 10.3367Z" fill="#1D1D1B"/>
<path d="M9.19897 5.08363L9.38015 4.96338L9.93477 5.76145L8.75966 5.32961L8.38077 5.59199L8.40821 5.63572L8.55649 5.5264L9.32526 6.62513L9.17152 6.72895L9.20443 6.7727L9.58885 6.50488L9.55588 6.46657L9.37469 6.59232L8.63336 5.53186H8.63883L10.2039 6.10582L10.2313 6.07849L9.42958 4.93058L9.57786 4.82125L9.55041 4.78299L9.17152 5.04537L9.19897 5.08363Z" fill="#1D1D1B"/>
<path d="M3.63615 12.0093L3.70754 11.8344L4.94858 12.3427L4.87719 12.5177L4.92112 12.5396L5.15176 11.9765L5.10783 11.9601L5.03644 12.1351L3.7954 11.6212L3.86679 11.4463L3.82286 11.4299L3.58673 11.9874L3.63615 12.0093Z" fill="#1D1D1B"/>
<path d="M11.3407 3.8974L11.5329 3.80994L11.6592 4.91412L10.9014 4.10512L11.0881 4.01765L11.0662 3.97393L10.5115 4.23084L10.5335 4.28004L10.6818 4.20897L11.7142 5.28036L11.7526 5.26396L11.5933 3.77714L11.7306 3.71155L11.7086 3.66782L11.3243 3.85367L11.3407 3.8974Z" fill="#1D1D1B"/>
<path d="M13.1467 4.63537L12.8556 4.73377L12.6359 4.12154L12.7403 4.08875C12.9599 4.01222 12.9929 4.08875 13.0808 4.3074H13.1357L12.9105 3.65691H12.8556C12.927 3.85917 12.9435 3.94662 12.7183 4.02315L12.6359 4.06142L12.4273 3.47653L12.5206 3.44373C12.9545 3.29067 13.0368 3.3016 13.2125 3.61865H13.262L13.1027 3.20868L12.0045 3.58585V3.63505L12.1856 3.57492L12.6359 4.81029L12.4548 4.87042V4.91962L13.6024 4.52058L13.4541 4.05049H13.4047C13.4816 4.37299 13.4377 4.53698 13.1467 4.63537Z" fill="#1D1D1B"/>
<path d="M28.6385 9.7627L28.4628 9.51127L29.012 9.13958L29.0723 9.22702C29.2096 9.41833 29.1602 9.46758 28.9516 9.61514L28.9845 9.66433L29.5336 9.27077L29.5007 9.22158C29.3195 9.34727 29.2426 9.38558 29.1053 9.19427L29.0449 9.10677L29.5556 8.75145L29.6105 8.82802C29.8741 9.2052 29.8906 9.28714 29.6105 9.53864L29.6379 9.58233L29.9949 9.31995L29.3304 8.37433L29.292 8.40164L29.4019 8.5547L28.3036 9.31995L28.1938 9.16689L28.1553 9.19427L28.8527 10.1836L29.2646 9.91577L29.2316 9.87208C29.001 10.0087 28.8197 10.0142 28.6385 9.7627Z" fill="#1D1D1B"/>
<path d="M14.7836 3.86464C14.6957 3.55854 14.5968 3.54214 14.2948 3.57493C14.476 3.50934 14.6078 3.40548 14.5529 3.18137C14.498 2.95725 14.3003 2.88619 14.0477 2.94632L13.4986 3.08297V3.13217L13.6852 3.08844L13.9763 4.373L13.7896 4.41673V4.46593L14.3772 4.32927V4.28007L14.2015 4.31834L14.0477 3.66239L14.174 3.63506C14.4266 3.57493 14.487 3.63506 14.5639 3.90291C14.6408 4.17075 14.6847 4.26368 14.9263 4.20902L15.0691 4.17622V4.12702H15.0197C14.8824 4.17075 14.833 4.07236 14.7836 3.86464ZM14.0312 3.60773L13.8939 3.02284H13.9983C14.2015 2.97365 14.2894 3.06657 14.3333 3.25242C14.3772 3.43828 14.3333 3.55854 14.1685 3.60226L14.0312 3.60773Z" fill="#1D1D1B"/>
<path d="M15.2615 2.97911C15.2615 2.91481 15.2868 2.85305 15.332 2.80708C15.3771 2.7611 15.4386 2.73456 15.5032 2.73313C15.6898 2.73313 15.8217 2.79872 15.8985 3.02284H15.9535L15.8985 2.71126C15.7762 2.67303 15.6473 2.66001 15.5196 2.673C15.4628 2.67499 15.4071 2.6885 15.3557 2.71272C15.3043 2.73693 15.2585 2.77133 15.2209 2.81381C15.1834 2.85629 15.155 2.90596 15.1374 2.95976C15.1198 3.01356 15.1135 3.07037 15.1188 3.12669C15.1847 3.61866 15.9425 3.37814 15.9919 3.76078C15.9919 3.9521 15.8656 4.06143 15.7008 4.08329C15.5888 4.09138 15.4779 4.05699 15.3903 3.98704C15.3027 3.91708 15.2449 3.81672 15.2286 3.70612H15.1737L15.2396 4.10516C15.3817 4.14848 15.5318 4.15968 15.6789 4.13795C15.7407 4.13449 15.8012 4.11881 15.8569 4.09184C15.9126 4.06486 15.9623 4.02713 16.0032 3.98083C16.0441 3.93454 16.0753 3.88061 16.0951 3.82218C16.1148 3.76376 16.1227 3.70201 16.1182 3.64053C16.0523 3.08843 15.3055 3.33441 15.2615 2.97911Z" fill="#1D1D1B"/>
<path d="M25.9093 5.46626C25.9305 5.43958 25.9569 5.41757 25.9871 5.40161C26.0173 5.38564 26.0504 5.37608 26.0845 5.37351C26.1185 5.37094 26.1527 5.37543 26.1849 5.38669C26.2172 5.39795 26.2467 5.41573 26.2717 5.43893C26.3445 5.49348 26.3936 5.57369 26.409 5.66314C26.4243 5.75258 26.4046 5.84446 26.3541 5.91996L26.398 5.95275L26.5737 5.69037C26.5121 5.57806 26.4279 5.47948 26.3266 5.40066C26.284 5.36328 26.2342 5.33493 26.1803 5.31736C26.1263 5.29979 26.0693 5.29338 26.0128 5.29849C25.9563 5.30361 25.9013 5.32016 25.8514 5.34712C25.8015 5.37409 25.7577 5.41091 25.7226 5.45533C25.426 5.85436 26.1399 6.2042 25.9148 6.51575C25.8889 6.54725 25.8569 6.57306 25.8206 6.59163C25.7843 6.61019 25.7446 6.62106 25.7038 6.62363C25.6631 6.62619 25.6223 6.62038 25.5839 6.6065C25.5456 6.59263 25.5106 6.57106 25.4809 6.54312C25.3933 6.47312 25.3359 6.37238 25.3205 6.2615C25.3052 6.1507 25.3332 6.03824 25.3986 5.94729L25.3546 5.91449L25.124 6.24793C25.1967 6.37819 25.2981 6.49031 25.4206 6.57588C25.516 6.65619 25.6396 6.6955 25.7641 6.68525C25.8886 6.675 26.0041 6.616 26.085 6.52125C26.4035 6.08394 25.6951 5.7505 25.9093 5.46626Z" fill="#1D1D1B"/>
<path d="M20.6261 2.91895L20.8128 2.96268L20.4998 4.26364L20.3186 4.21991L20.3076 4.26911L20.9006 4.40576L20.9116 4.35657L20.7249 4.31284L21.0325 3.01188L21.2192 3.05561L21.2301 3.01188L20.6371 2.86975L20.6261 2.91895Z" fill="#1D1D1B"/>
<path d="M17.0301 2.99008H17.0905C17.0905 2.80423 17.1783 2.59104 17.387 2.59651H17.5792V3.91935H17.3596V3.96854H18.035V3.93028H17.8099V2.60744H17.9856C18.1888 2.60744 18.2656 2.82063 18.2711 3.00648H18.3315V2.54731L17.0301 2.53091V2.99008Z" fill="#1D1D1B"/>
<path d="M23.2293 4.16527H23.2842C23.372 4.00128 23.5368 3.84275 23.7235 3.93568L23.8828 4.01221L23.3007 5.22572L23.0975 5.12733V5.17105L23.7015 5.46624V5.4225L23.5039 5.32411L24.0859 4.13247L24.2397 4.20899C24.4264 4.29645 24.4044 4.52057 24.3275 4.69549H24.3824L24.5857 4.28005L23.4325 3.73343L23.2293 4.16527Z" fill="#1D1D1B"/>
<path d="M30.5487 11.1784V11.2331C30.7243 11.1675 30.9495 11.1566 31.0319 11.3479L31.0977 11.5064L29.9006 12.0258L29.8128 11.8235H29.7689L30.0325 12.4412H30.0764L29.9885 12.2389L31.213 11.7196L31.2789 11.8781C31.3613 12.0694 31.1966 12.2225 31.0263 12.3045V12.3592L31.4492 12.1788L30.9495 11.0036L30.5487 11.1784Z" fill="#1D1D1B"/>
<path d="M19.4233 2.66211L19.4177 2.71131L19.6209 2.73317L19.253 3.28526L19.0059 2.66211L19.2146 2.68945L19.22 2.64025L18.5831 2.56372L18.5775 2.61291L18.7423 2.63478L19.0388 3.33446L18.962 4.00681L18.7753 3.97948L18.7643 4.03414L19.3738 4.09973V4.05054L19.1926 4.02867L19.2694 3.35633L19.6868 2.74411L19.8406 2.7605L19.846 2.71131L19.4233 2.66211Z" fill="#1D1D1B"/>
<path d="M27.3474 8.15012L28.3524 7.27555L28.2261 7.10605L28.2645 7.0733L28.6764 7.53793L28.6379 7.57074L28.5116 7.42862L27.5067 8.30868L27.633 8.4508L27.589 8.48905L27.1772 8.02443L27.2157 7.98612L27.3474 8.15012ZM28.8191 7.72374L29.0717 8.00799L29.0278 8.0408L28.9344 7.93693H28.27L28.0449 8.94274L28.1108 9.01924L28.0668 9.05755L27.7153 8.65849L27.7593 8.62024L27.8416 8.71318L28.0449 7.8768H28.8905L28.7807 7.75112L28.8191 7.72374Z" fill="#1D1D1B"/>
<path d="M18.5449 30.7695L18.7315 30.7531L18.8688 32.0705L18.6822 32.0924L18.6876 32.1416L19.2862 32.0814L19.2807 32.0322L19.094 32.0486L18.9622 30.7312L19.1489 30.7148L19.1434 30.6602L18.5394 30.7203L18.5449 30.7695Z" fill="#1D1D1B"/>
<path d="M27.5122 26.3692L27.633 26.2271L28.6434 27.0962L28.5171 27.2383L28.5555 27.2656L28.9509 26.8119L28.9125 26.7791L28.7917 26.9213L27.7812 26.0576L27.9021 25.9155L27.8691 25.8827L27.4738 26.3419L27.5122 26.3692Z" fill="#1D1D1B"/>
<path d="M30.4665 21.034L30.5159 20.8537L31.8064 21.1817L31.757 21.362L31.8064 21.3784L31.9547 20.7935L31.9053 20.7826L31.8614 20.963L30.5709 20.635L30.6203 20.4492L30.5709 20.4382L30.4171 21.0232L30.4665 21.034Z" fill="#1D1D1B"/>
<path d="M21.6037 30.1627L21.8069 30.0971L22.087 31.0264H22.0815L21.1095 30.2556L20.6702 30.3868L20.6867 30.4361L20.8624 30.3814L21.2413 31.6495L21.0656 31.7042L21.082 31.7534L21.5269 31.6167L21.5104 31.573L21.3017 31.6331L20.9338 30.4087H20.9393L22.2352 31.4309L22.2682 31.4145L21.8673 30.0807L22.043 30.0315L22.0266 29.9823L21.5873 30.1135L21.6037 30.1627Z" fill="#1D1D1B"/>
<path d="M9.00633 27.8177L9.14362 27.9325L8.74827 28.4136L8.27053 28.0145L8.66587 27.5389L8.80316 27.6537L8.83613 27.6155L8.37485 27.2383L8.3474 27.2766L8.49015 27.3968L7.63898 28.419L7.49623 28.2987L7.46326 28.337L7.92455 28.7142L7.95752 28.6759L7.8147 28.5611L8.23756 28.0527L8.72077 28.4464L8.29797 28.9547L8.15516 28.8399L8.12771 28.8782L8.58348 29.2554L8.61645 29.2171L8.4737 29.1023L9.31934 28.0801L9.46762 28.2004L9.49507 28.1621L9.0393 27.7794L9.00633 27.8177Z" fill="#1D1D1B"/>
<path d="M4.35538 20.4219L4.39382 20.5968L3.78977 20.728L3.65798 20.1267L4.26203 19.99L4.30046 20.1704L4.34989 20.1595L4.2181 19.5801L4.16867 19.591L4.2126 19.7714L2.91116 20.0556L2.87272 19.8753L2.8233 19.8861L2.9496 20.4656L2.99902 20.4546L2.96058 20.2798L3.60856 20.1376L3.74035 20.7389L3.09787 20.881L3.05942 20.7061L3.01 20.717L3.13631 21.2965L3.18573 21.2855L3.14729 21.1051L4.44324 20.8209L4.48717 21.0013L4.53659 20.9903L4.4048 20.411L4.35538 20.4219Z" fill="#1D1D1B"/>
<path d="M16.4093 30.7039H16.3708L15.7832 32.0595H15.613V32.1087L16.0578 32.147V32.0978H15.8491L16.0304 31.6605L16.4037 31.6933L16.5026 32.1525H16.2939V32.2016L16.9364 32.2563V32.2071H16.7497L16.4093 30.7039ZM16.0578 31.5676L16.272 31.0756L16.3873 31.6222L16.0578 31.5676Z" fill="#1D1D1B"/>
<path d="M10.1379 28.5666H10.1049L8.94073 29.4795L8.79251 29.3647V29.4084L9.16588 29.6544V29.6107L8.99568 29.5177L9.36358 29.2226L9.67659 29.4248L9.54477 29.8731L9.36905 29.7582V29.802L9.9182 30.1573L9.89075 30.0644L9.73701 29.966L10.1379 28.5666ZM9.41847 29.157L9.84132 28.829L9.69305 29.3428L9.41847 29.157Z" fill="#1D1D1B"/>
<path d="M24.168 28.9711H24.135L24.4206 30.4196L24.2723 30.5016V30.5454L24.6622 30.3267V30.283L24.481 30.3868L24.3877 29.9277L24.7116 29.7473L25.0521 30.0698L24.8709 30.1736V30.2174L25.42 29.9003V29.8566L25.2608 29.9495L24.168 28.9711ZM24.3657 29.8784L24.2613 29.3318L24.6513 29.6981L24.3657 29.8784Z" fill="#1D1D1B"/>
<path d="M6.14568 24.6254L6.26097 24.8113L5.4373 25.3141H5.4318L5.93151 24.1772L5.6899 23.7891L5.64597 23.8164L5.74481 23.9694L4.60811 24.6691L4.51475 24.5106L4.47083 24.5379L4.71244 24.9315L4.75637 24.9042L4.64105 24.7183L5.73383 24.046L5.73932 24.0514L5.07487 25.5601L5.10782 25.5874L6.29394 24.8604L6.38726 25.0189L6.43123 24.9916L6.18961 24.5981L6.14568 24.6254Z" fill="#1D1D1B"/>
<path d="M30.3625 24.6801L30.2087 24.9425L29.6596 24.5981L29.7145 24.5052C29.8298 24.3029 29.8957 24.3302 30.1099 24.4506L30.1373 24.4013L29.5443 24.0515L29.5113 24.1007C29.698 24.21 29.7639 24.2647 29.6486 24.4669L29.5937 24.5599L29.0446 24.2483L29.094 24.1663C29.3246 23.7727 29.3905 23.729 29.731 23.8492V23.8055L29.3466 23.5978L28.7974 24.5872H28.8414L28.9347 24.4232L30.0989 25.1447L30.0055 25.3087H30.0495L30.6535 24.2701L30.2362 24.0515H30.2087C30.4338 24.2537 30.5162 24.4177 30.3625 24.6801Z" fill="#1D1D1B"/>
<path d="M7.56784 26.7846C7.59274 26.7623 7.62193 26.7452 7.65359 26.7346C7.68526 26.7238 7.71885 26.7196 7.7522 26.7221C7.7856 26.7247 7.81814 26.7339 7.84776 26.7494C7.87744 26.7648 7.90364 26.7861 7.92481 26.8119C7.98821 26.8772 8.02367 26.9644 8.02367 27.0552C8.02367 27.146 7.98821 27.2332 7.92481 27.2984L7.96325 27.3367L8.17741 27.1071C8.13345 26.9877 8.06626 26.8781 7.9797 26.7846C7.94127 26.7449 7.89526 26.7134 7.84428 26.6918C7.79336 26.6702 7.73854 26.6592 7.68321 26.6592C7.62782 26.6592 7.57306 26.6702 7.52208 26.6918C7.47116 26.7134 7.42509 26.7449 7.38665 26.7846C7.03521 27.1344 7.68321 27.5827 7.38665 27.8779C7.35679 27.9051 7.32158 27.9258 7.28327 27.9387C7.24496 27.9516 7.20429 27.9564 7.16399 27.9528C7.12369 27.9492 7.08457 27.9373 7.04918 27.9178C7.01379 27.8983 6.9828 27.8717 6.95834 27.8396C6.88271 27.7587 6.84061 27.6522 6.84061 27.5417C6.84061 27.4311 6.88271 27.3247 6.95834 27.2438L6.9199 27.2055L6.63986 27.5007C6.69171 27.6393 6.77429 27.7645 6.88147 27.8669C6.92145 27.9133 6.9702 27.9514 7.02496 27.9789C7.07979 28.0065 7.13946 28.023 7.20069 28.0276C7.26191 28.0322 7.32338 28.0247 7.38169 28.0056C7.43999 27.9864 7.49395 27.9561 7.5404 27.9161C7.95772 27.4952 7.31525 27.0579 7.56784 26.7846Z" fill="#1D1D1B"/>
<path d="M11.5158 29.4193L11.6806 29.5013L11.4005 30.0534L10.8404 29.7746L11.1259 29.2225L11.2852 29.3045L11.3071 29.2608L10.7745 28.9929L10.7525 29.0367L10.9227 29.1187L10.3187 30.3049L10.1539 30.2174L10.1265 30.2611L10.6591 30.529L10.6811 30.4852L10.5218 30.4087L10.8239 29.8184L11.3785 30.0971L11.0765 30.6875L10.9173 30.6055L10.8953 30.6492L11.428 30.917L11.4499 30.8734L11.2797 30.7859L11.8837 29.6052L12.0485 29.6872L12.0704 29.6434L11.5377 29.3756L11.5158 29.4193Z" fill="#1D1D1B"/>
<path d="M22.9272 29.6708L23.092 29.5997L23.3391 30.1682L22.768 30.4087L22.5209 29.8457L22.6856 29.7746L22.6692 29.7254L22.12 29.9605L22.1365 30.0043L22.3123 29.9332L22.8394 31.1521L22.6636 31.2232L22.6856 31.2724L23.2348 31.0373L23.2128 30.9936L23.0481 31.0647L22.7845 30.4579L23.3556 30.2119L23.6191 30.8187L23.4544 30.8897L23.4709 30.9335L24.02 30.6984L24.0036 30.6547L23.8278 30.7312L23.3007 29.5122L23.4764 29.4357L23.4544 29.392L22.9053 29.6271L22.9272 29.6708Z" fill="#1D1D1B"/>
<path d="M30.3621 22.0125C30.3308 22.0001 30.3024 21.9814 30.2786 21.9576C30.2548 21.9338 30.2362 21.9054 30.2238 21.8742C30.2115 21.8429 30.2057 21.8095 30.2068 21.776C30.2079 21.7424 30.2159 21.7095 30.2303 21.6791C30.2907 21.5042 30.4335 21.4277 30.6641 21.455V21.4058L30.3786 21.3184C30.2898 21.4112 30.2207 21.5209 30.1754 21.6409C30.1532 21.6917 30.1416 21.7464 30.1412 21.8019C30.1408 21.8572 30.1517 21.9122 30.1733 21.9632C30.1949 22.0144 30.2266 22.0605 30.2666 22.0991C30.3066 22.1376 30.354 22.1677 30.4061 22.1875C30.8728 22.346 30.9936 21.5698 31.356 21.69C31.3941 21.7042 31.4287 21.7262 31.4577 21.7545C31.4868 21.7828 31.5095 21.8169 31.5246 21.8544C31.5395 21.892 31.5465 21.9323 31.5449 21.9727C31.5432 22.0132 31.5332 22.0528 31.5153 22.0891C31.4735 22.193 31.3932 22.277 31.2911 22.3237C31.1889 22.3705 31.0726 22.3765 30.9662 22.3405V22.3897L31.356 22.5045C31.4588 22.3974 31.5358 22.2684 31.5812 22.1274C31.6238 22.012 31.6189 21.8847 31.5675 21.773C31.516 21.6614 31.4222 21.5745 31.3066 21.5315C30.8069 21.362 30.7026 22.1274 30.3621 22.0125Z" fill="#1D1D1B"/>
<path d="M31.0601 20.4V20.3399C30.8788 20.3016 30.6812 20.1868 30.7196 19.9846L30.747 19.8151L32.043 20.0447L32.0046 20.2579H32.054L32.1693 19.602H32.1199L32.0814 19.8206L30.7855 19.591L30.8129 19.4216C30.8459 19.2193 31.0655 19.1811 31.2522 19.203L31.3071 19.1319L30.8569 19.0553L30.6372 20.3016L31.0601 20.4Z" fill="#1D1D1B"/>
<path d="M31.3896 17.7271V17.6669C31.2029 17.6669 30.9942 17.5904 30.9887 17.3881V17.2187L32.3066 17.1914V17.41H32.3561V16.7431H32.3066V16.9454L30.9887 16.9727V16.8033C30.9887 16.601 31.1919 16.519 31.3786 16.5026V16.4425H30.9228V17.7107L31.3896 17.7271Z" fill="#1D1D1B"/>
<path d="M26.0187 27.774L26.1889 27.6428L26.7655 28.3752C26.9138 28.5611 26.9797 28.7087 26.6832 28.9219C26.3866 29.1351 26.3097 29.0586 26.134 28.8563L25.5464 28.1129L25.7002 27.9926L25.6673 27.9544L25.1895 28.3316L25.2224 28.3698L25.3652 28.255L25.9693 29.0203C26.134 29.228 26.2768 29.3046 26.6557 29.0203C27.0346 28.7361 26.9797 28.5611 26.8095 28.3479L26.2219 27.5991L26.3536 27.4952L26.3646 27.4679L26.0132 27.7412L26.0187 27.774Z" fill="#1D1D1B"/>
<path d="M27.084 26.8064L27.2378 26.6534L27.9132 27.3421V27.3475L26.6942 27.118L26.3647 27.435L26.3976 27.4733L26.5294 27.3421L27.4629 28.2932L27.3312 28.419L27.3641 28.4517L27.6936 28.1292L27.6606 28.0964L27.5069 28.2495L26.6063 27.3366V27.3312L28.2372 27.6373L28.2537 27.6045L27.2817 26.6151L27.4135 26.4839L27.3751 26.4511L27.0456 26.7736L27.084 26.8064Z" fill="#1D1D1B"/>
<path d="M30.9338 16.3386L30.9118 16.1472L32.2408 16.0161L32.2572 16.2019L32.3066 16.1965L32.2462 15.6007L32.1968 15.6061L32.2133 15.792L30.8899 15.9232L30.8734 15.7373L30.824 15.7427L30.8844 16.3386H30.9338Z" fill="#1D1D1B"/>
<path d="M28.539 25.0573L28.6598 24.8933L29.3078 25.7953H29.3023L28.2535 25.4509L28.3742 25.2869L28.3358 25.2596L27.9789 25.7461L28.0228 25.7789L28.1162 25.6422L29.5274 26.0849L29.5549 26.0522L28.7038 24.8386L28.7861 24.7184L28.7477 24.6911L28.5005 25.0299L28.539 25.0573Z" fill="#1D1D1B"/>
<path d="M32.2681 18.3666V18.6673L31.6201 18.618V18.5087C31.6201 18.2791 31.7025 18.2682 31.9551 18.2846V18.2244L31.2742 18.1753V18.2354C31.4884 18.2354 31.5762 18.2736 31.5598 18.5033V18.6126L30.9228 18.5853V18.4923C30.9557 18.0386 30.9942 17.9457 31.3565 17.9457V17.891H30.9172L30.8349 19.028H30.8843V18.8421L32.2132 18.9406V19.1264H32.2627L32.3505 17.9293L31.8618 17.8746V17.9293C32.1473 17.9511 32.2956 18.0386 32.2681 18.3666Z" fill="#1D1D1B"/>
<path d="M4.18512 23.8274L4.05333 23.5541L4.64089 23.2752L4.68482 23.3737C4.78367 23.5814 4.72875 23.6251 4.50361 23.7344V23.7891L5.14609 23.5049V23.4502C4.94841 23.5431 4.86604 23.565 4.7672 23.3572L4.71778 23.2589L5.2669 22.991L5.31083 23.0785C5.50852 23.4884 5.50852 23.5704 5.21748 23.7782V23.8274L5.60736 23.6306L5.11315 22.6029H5.06922L5.15159 22.7724L3.94899 23.319L3.85014 23.1823H3.80621L4.32789 24.2756L4.77818 24.0843V24.0351C4.49812 24.128 4.31691 24.1007 4.18512 23.8274Z" fill="#1D1D1B"/>
<path d="M30.9334 22.8052C30.637 22.6959 30.5655 22.7614 30.3844 23.0184C30.4392 22.8325 30.4392 22.6685 30.2251 22.5811C30.0109 22.4936 29.8352 22.5811 29.7364 22.838L29.5003 23.3846H29.5442L29.621 23.2151L30.8401 23.7617L30.7632 23.9312H30.8071L31.0488 23.3846H31.0048L30.9334 23.5486L30.3185 23.2807L30.3679 23.1659C30.4722 22.9309 30.5655 22.9254 30.8127 23.0184C31.0597 23.1113 31.1696 23.1386 31.2684 22.9145L31.3289 22.7833H31.2849V22.8271C31.2355 22.9091 31.1311 22.8817 30.9334 22.8052ZM30.28 23.2479L29.7309 23.0074L29.7748 22.9145C29.8572 22.7286 29.9835 22.7122 30.1537 22.7833C30.3239 22.8544 30.4063 22.9582 30.3349 23.1167L30.28 23.2479Z" fill="#1D1D1B"/>
<path d="M12.9276 31.092C13.0209 30.7914 12.9276 30.7258 12.6804 30.5891C12.8671 30.6328 13.0319 30.6165 13.1087 30.4033C13.1856 30.1901 13.0593 30.0206 12.8177 29.9332L12.2686 29.731V29.7746L12.4443 29.8403L11.9885 31.0866L11.8128 31.021V31.0701L12.362 31.2724V31.2287L12.1917 31.1576L12.4224 30.529L12.5431 30.5727C12.7847 30.6602 12.7957 30.7586 12.7189 31.0046C12.642 31.2505 12.6255 31.3708 12.8562 31.4528L12.9934 31.502V31.4528H12.944C12.8452 31.3981 12.8671 31.2943 12.9276 31.092ZM12.4443 30.4689L12.6475 29.9223L12.7463 29.9605C12.9386 30.0316 12.966 30.1573 12.9001 30.3322C12.8342 30.5071 12.7408 30.5946 12.5761 30.5345L12.4443 30.4689Z" fill="#1D1D1B"/>
<path d="M3.85049 18.7602C3.88402 18.7571 3.91782 18.7611 3.94971 18.7718C3.98162 18.7825 4.01091 18.7998 4.03573 18.8224C4.06055 18.8451 4.08034 18.8726 4.09383 18.9033C4.10732 18.934 4.11422 18.9672 4.11408 19.0007C4.11408 19.1866 4.04269 19.3123 3.82304 19.3888V19.4434L4.13055 19.3943C4.16866 19.2724 4.18174 19.1441 4.16899 19.0171C4.16773 18.9608 4.15484 18.9054 4.13111 18.8543C4.10739 18.8031 4.07334 18.7574 4.03109 18.72C3.98885 18.6826 3.93931 18.6542 3.88557 18.6367C3.83182 18.6191 3.77501 18.6128 3.7187 18.6181C3.22997 18.6782 3.46061 19.4271 3.07622 19.4763C2.88402 19.4763 2.77969 19.3451 2.76322 19.1811C2.75385 19.0699 2.78807 18.9594 2.8587 18.8728C2.92933 18.7863 3.0309 18.7302 3.14211 18.7164V18.6618L2.75223 18.7274C2.7065 18.8684 2.69336 19.0179 2.71379 19.1647C2.71659 19.2262 2.73165 19.2866 2.7581 19.3423C2.78454 19.3979 2.82184 19.4478 2.86783 19.489C2.91382 19.5302 2.96757 19.5619 3.02597 19.5823C3.08437 19.6026 3.14625 19.6111 3.20801 19.6074C3.73518 19.5419 3.49905 18.8039 3.85049 18.7602Z" fill="#1D1D1B"/>
<path d="M19.9457 30.5891L20.1324 30.5509L20.4014 31.8464L20.2202 31.8846L20.2312 31.9338L20.8187 31.8136L20.8078 31.7644L20.6266 31.8026L20.352 30.5017L20.5387 30.4634L20.5277 30.4197L19.9347 30.5399L19.9457 30.5891Z" fill="#1D1D1B"/>
<path d="M13.6409 30.2611L13.8221 30.3103L13.4707 31.5894L13.284 31.5403L13.273 31.5839L13.8551 31.7425L13.8715 31.6988L13.6849 31.6441L14.0363 30.3704L14.223 30.4197L14.234 30.3704L13.6519 30.2119L13.6409 30.2611Z" fill="#1D1D1B"/>
<path d="M6.08013 25.2977L6.11857 25.3469C6.27232 25.2376 6.48648 25.1721 6.61277 25.3469L6.71709 25.4836L5.66279 26.2653L5.531 26.0904L5.49255 26.1232L5.89892 26.6698L5.93735 26.6425L5.80556 26.4676L6.85438 25.6695L6.95876 25.8061C7.08505 25.9701 6.95876 26.156 6.82147 26.2762L6.8599 26.3254L7.22234 26.0466L6.44804 25.0409L6.08013 25.2977Z" fill="#1D1D1B"/>
<path d="M3.66896 15.6935V15.7537C3.85566 15.7537 4.05884 15.8685 4.04237 16.0707V16.2402L2.72995 16.1364V15.9177H2.68052L2.62561 16.5791H2.67503V16.3604L3.98745 16.4643V16.6337C3.98745 16.836 3.75682 16.8962 3.57011 16.8907V16.9454L4.0259 16.9781L4.12473 15.7154L3.66896 15.6935Z" fill="#1D1D1B"/>
<path d="M3.36672 21.865L4.61325 21.4277L4.55285 21.2527H4.60227L4.80545 21.8322H4.75603L4.69562 21.6572L3.4436 22.0946L3.504 22.2695H3.45458L3.2514 21.6901H3.30082L3.36672 21.865ZM4.88233 22.0126L5.00863 22.3679H4.9592L4.91527 22.2421L4.30025 21.9962L3.71816 22.838L3.75112 22.9364H3.70169L3.52597 22.4389H3.57539L3.61932 22.5592L4.11354 21.865L4.88782 22.182L4.83291 22.0289L4.88233 22.0126Z" fill="#1D1D1B"/>
<path d="M4.06963 17.7707C4.06588 17.6809 4.04332 17.5929 4.00339 17.5123C3.96346 17.4317 3.90705 17.3602 3.83777 17.3026C3.76848 17.245 3.68786 17.2024 3.60107 17.1776C3.51428 17.1527 3.42324 17.1463 3.33379 17.1586C3.24554 17.153 3.15708 17.1658 3.07406 17.1961C2.99104 17.2264 2.91528 17.2736 2.85159 17.3347C2.7879 17.3958 2.73769 17.4694 2.70415 17.5509C2.67061 17.6323 2.65447 17.7198 2.65677 17.8078C2.65906 17.8958 2.67974 17.9824 2.71748 18.062C2.75523 18.1416 2.80921 18.2125 2.876 18.2702C2.94279 18.3279 3.02091 18.3711 3.1054 18.3971C3.18989 18.4232 3.27889 18.4314 3.36674 18.4212C3.4568 18.4289 3.54746 18.4177 3.63292 18.3883C3.71836 18.359 3.79671 18.3122 3.8629 18.2509C3.9291 18.1897 3.98169 18.1153 4.01729 18.0326C4.05289 17.9499 4.07072 17.8607 4.06963 17.7707ZM2.97136 18.137C2.92679 18.1346 2.8835 18.1213 2.84522 18.0985C2.80695 18.0756 2.77485 18.0438 2.75171 18.0058C2.71626 17.9439 2.69559 17.8747 2.69131 17.8036C2.6834 17.7597 2.68469 17.7148 2.69509 17.6716C2.70548 17.6282 2.72476 17.5876 2.75171 17.5521C2.81067 17.4964 2.88545 17.4601 2.96587 17.4482C3.07677 17.4316 3.18869 17.4224 3.30084 17.4209C3.44859 17.4036 3.59789 17.4036 3.74564 17.4209C3.78271 17.4269 3.81806 17.4408 3.84931 17.4616C3.88056 17.4823 3.907 17.5094 3.92685 17.5412C3.96267 17.6046 3.98157 17.6761 3.98177 17.7489C3.98578 17.8191 3.9706 17.8889 3.93784 17.9511C3.90525 18.0128 3.85025 18.0597 3.78408 18.0823C3.65539 18.1178 3.5222 18.1344 3.3887 18.1316C3.24453 18.1459 3.09938 18.1477 2.95489 18.137H2.97136Z" fill="#1D1D1B"/>
<path d="M14.3881 31.8081L14.6243 30.5235L14.443 30.4908V30.4361L15.0471 30.5454C15.1697 30.5639 15.2873 30.6066 15.393 30.6711C15.4911 30.7426 15.5626 30.8445 15.5962 30.9608C15.6409 31.0928 15.6504 31.2341 15.6237 31.3708C15.6001 31.511 15.5374 31.6418 15.4425 31.7479C15.365 31.8398 15.2617 31.9064 15.1459 31.9393C15.0281 31.9628 14.9068 31.9628 14.789 31.9393L14.1904 31.8299V31.7753L14.3881 31.8081ZM14.8604 30.5618L14.6297 31.8518L14.8055 31.8846C14.8802 31.8941 14.9559 31.8941 15.0306 31.8846C15.0943 31.876 15.1527 31.8449 15.1953 31.7972C15.2486 31.7372 15.288 31.6663 15.3106 31.5894C15.3464 31.4768 15.3739 31.3617 15.393 31.2451C15.4214 31.1136 15.4214 30.9776 15.393 30.846C15.3772 30.7699 15.3318 30.7032 15.2668 30.6602C15.1922 30.6244 15.1125 30.6004 15.0306 30.5891L14.8604 30.5618Z" fill="#1D1D1B"/>
<path d="M18.1992 31.1576H18.1279C18.1163 31.1051 18.0997 31.0539 18.0784 31.0046C18.0536 30.9307 18.0054 30.8668 17.941 30.8224C17.8767 30.7781 17.7997 30.7557 17.7215 30.7586C17.6786 30.7556 17.6356 30.7614 17.595 30.7755C17.5544 30.7896 17.5171 30.8117 17.4854 30.8406C17.435 30.8947 17.4041 30.9639 17.3975 31.0373C17.3901 31.1484 17.3901 31.2597 17.3975 31.3707C17.3949 31.5426 17.406 31.7144 17.4304 31.8846C17.4422 31.9568 17.4792 32.0226 17.5348 32.0704C17.5894 32.1131 17.6577 32.1344 17.727 32.1306C17.7812 32.1295 17.8342 32.1144 17.8807 32.0869C17.902 32.0747 17.9203 32.0582 17.9345 32.0384C17.9487 32.0186 17.9585 31.996 17.9631 31.9721C17.9711 31.8976 17.9711 31.8224 17.9631 31.7479V31.7042H17.7654V31.6496H18.4024V31.7042H18.2376C18.2463 31.7779 18.2363 31.8525 18.2085 31.9212C18.1806 31.99 18.1359 32.0507 18.0784 32.0978C17.9792 32.1749 17.8582 32.2189 17.7325 32.2235C17.6468 32.225 17.5619 32.2065 17.4846 32.1695C17.4074 32.1325 17.34 32.0779 17.2877 32.0103C17.1675 31.8658 17.1015 31.6841 17.101 31.4965C17.0879 31.2996 17.1485 31.1049 17.2712 30.9499C17.3217 30.8792 17.3884 30.8216 17.4658 30.7816C17.5431 30.7417 17.6289 30.7207 17.716 30.7203C17.8405 30.7226 17.9606 30.7669 18.0565 30.846C18.0894 30.846 18.1113 30.8077 18.1113 30.8077H18.1663L18.1992 31.1576Z" fill="#1D1D1B"/>
</g>
<defs>
<clipPath id="clip0">
<rect width="267" height="35" fill="white"/>
</clipPath>
</defs>
</svg>
