<svg xmlns="http://www.w3.org/2000/svg" viewBox="0 0 308.38 308.38"><defs><style>.cls-1,.cls-3{fill:#34b3d1;}.cls-1,.cls-2,.cls-4{fill-rule:evenodd;}.cls-2{fill:#0c419a;}.cls-5{fill:#fff;}</style></defs><title>logo_mini</title><g id="Layer_2" data-name="Layer 2"><g id="Layer_1-2" data-name="Layer 1"><circle cx="32.45" cy="124.13" r="3.81"/><circle cx="275.93" cy="124.13" r="3.81"/><path d="M154.19,0A154.19,154.19,0,1,0,308.38,154.19,154.19,154.19,0,0,0,154.19,0Zm0,304.24A150.05,150.05,0,1,1,304.25,154.19,150.06,150.06,0,0,1,154.19,304.24Z"/><path d="M154.19,55.91a98.28,98.28,0,1,0,98.28,98.28A98.29,98.29,0,0,0,154.19,55.91Zm0,194.27a96,96,0,1,1,96-96A96,96,0,0,1,154.19,250.17Z"/><path d="M212.39,104.27H189.8V98.56h-8.56V74H146.75c-6.66,0-12.17,2.22-15.91,6.43-3.49,3.92-5.34,9.38-5.34,15.78v8.11H98.44L87.23,209.81l68.18,29,68.19-29ZM155.54,236.37l-.12.05-.12-.05L89.85,208.49l-.21-.09,0-.23,10.76-101.37,0-.28h27.29V96.16c0-5.85,1.65-10.79,4.77-14.29,3.31-3.72,8.23-5.68,14.24-5.68H179v24.6h8.57v5.71h22.82l0,.28,10.76,101.37,0,.23-.21.09Z"/><polygon class="cls-1" points="187.56 118.09 187.24 118.09 178.99 118.09 178.99 133.67 187.24 133.67 187.56 133.67 187.56 133.99 187.56 137.66 209.7 137.66 206.82 110.5 187.56 110.5 187.56 117.78 187.56 118.09"/><polygon class="cls-1" points="104.01 110.5 101.13 137.66 127.74 137.66 127.74 110.5 104.01 110.5"/><path class="cls-2" d="M210.1,141.33H187.56v9.5H179V164H152.32V141.33h-10v2.55c0,13-12.08,19.79-24,19.79h-1.2V149.6h.77c5.63,0,9.89-3,9.89-6.89v-1.37h-27L93.88,205.9l61.53,26.21,61.53-26.21Z"/><rect class="cls-3" x="142.29" y="110.5" width="10.03" height="27.16"/><path class="cls-4" d="M149.09,88.79c-3.27,0-6.79,2.35-6.79,7.5v10.22h10V88.79Zm1,15.48h-5.57v-8c0-3.88,2.45-5.26,4.55-5.26h1Z"/><path class="cls-5" d="M132.89,182.1a2.75,2.75,0,0,0-2.65,1.59,7.22,7.22,0,0,0-.78,3.44h-2.12a7.92,7.92,0,0,1,1.4-5.14,5,5,0,0,1,4.3-2,5.52,5.52,0,0,1,3.92,1.5,5.6,5.6,0,0,1,1.6,4.3,6.31,6.31,0,0,1-1.31,4.24,17,17,0,0,1-2.93,2.71q-1.7,1.18-3.18,2.34a4.68,4.68,0,0,0-1.79,3h9v2.15H126.87a9.13,9.13,0,0,1,1.67-5.28,17.42,17.42,0,0,1,3.29-3,21,21,0,0,0,3.36-2.84,4.79,4.79,0,0,0,1.13-3.34,3.49,3.49,0,0,0-1-2.63A3.35,3.35,0,0,0,132.89,182.1Z"/><path class="cls-5" d="M147.37,200.56q-4.13,0-5-3.49a27,27,0,0,1,0-13.66q.88-3.46,5-3.46t5,3.46a27.82,27.82,0,0,1,0,13.66Q151.53,200.56,147.37,200.56Zm0-18.46q-2.71,0-3.17,2.94a29.6,29.6,0,0,0,0,10.41q.46,3,3.17,3t3.18-3a30.69,30.69,0,0,0,0-10.41Q150.11,182.1,147.37,182.1Z"/><path class="cls-5" d="M163.76,180v20.26h-2.42V185.66H156.8v-1.94a7,7,0,0,0,3.25-.74,3.79,3.79,0,0,0,1.8-3Z"/><path class="cls-5" d="M179.26,180v13.37h2v2.15h-2v4.74h-2v-4.74h-7.73V193l8-13Zm-8,13.37h5.94v-10h-.05Z"/><polygon points="142.95 23.38 144.62 23.27 145.39 35.08 143.72 35.19 143.75 35.63 149.11 35.27 149.08 34.84 147.41 34.95 146.64 23.13 148.31 23.03 148.28 22.59 142.92 22.93 142.95 23.38"/><polygon points="197.46 30.15 199.29 30.76 196.59 38.94 196.56 38.93 193.41 28.34 189.53 27.06 189.39 27.48 190.95 28 187.23 39.23 185.68 38.72 185.54 39.14 189.46 40.44 189.6 40.02 187.74 39.4 191.32 28.56 191.36 28.57 195.56 42.67 195.91 42.69 199.8 30.92 201.36 31.44 201.5 31.02 197.6 29.73 197.46 30.15"/><polygon points="86.31 41.81 87.76 40.97 93.68 51.22 92.23 52.06 92.45 52.44 97.1 49.76 96.88 49.38 95.43 50.21 89.51 39.96 90.96 39.12 90.74 38.74 86.09 41.43 86.31 41.81"/><polygon points="269.96 92.64 270.9 94.32 263.36 98.49 263.34 98.46 268.21 88.55 266.24 84.98 265.85 85.2 266.64 86.63 256.29 92.36 255.49 90.93 255.11 91.14 257.11 94.76 257.49 94.54 256.54 92.83 266.54 87.3 266.55 87.33 260.06 100.54 260.31 100.79 271.15 94.79 271.95 96.22 272.33 96.01 270.35 92.42 269.96 92.64"/><polygon points="242.44 57.09 243.64 58.16 239.97 62.27 235.84 58.58 239.52 54.48 240.71 55.55 241.01 55.22 237.06 51.68 236.76 52.01 238.01 53.13 230.12 61.95 228.87 60.84 228.58 61.16 232.53 64.7 232.82 64.37 231.63 63.3 235.55 58.91 239.67 62.6 235.75 66.99 234.55 65.92 234.26 66.25 238.21 69.78 238.51 69.45 237.26 68.33 245.15 59.51 246.4 60.63 246.69 60.3 242.74 56.76 242.44 57.09"/><polygon points="46.25 79.55 47.15 78.22 51.71 81.31 48.61 85.89 44.05 82.8 44.95 81.47 44.58 81.22 41.61 85.61 41.98 85.86 42.91 84.47 52.72 91.11 51.77 92.49 52.14 92.74 55.11 88.35 54.75 88.1 53.85 89.43 48.98 86.14 52.08 81.55 56.95 84.85 56.05 86.18 56.41 86.43 59.39 82.04 59.02 81.79 58.08 83.17 48.28 76.54 49.22 75.15 48.86 74.91 45.88 79.3 46.25 79.55"/><path d="M222.36,41.42l-.3-.18L212,49.75,210.72,49l-.23.38,3.4,2.05.23-.38-1.6-1,3.18-2.75L218.54,49l-1,4.05-1.59-1-.23.38,4.91,3,.23-.38-1.41-.85Zm-6.22,5.51,3.66-3.1,0,0-1.14,4.62Z"/><path d="M54.35,68.17l-.23.27,6.74,11.32-1,1.13.34.29,2.58-3-.34-.29-1.21,1.42L59.06,75.7l2.16-2.51L65,74.88l-1.21,1.4.34.29,3.73-4.35-.34-.29L66.5,73.18Zm4.41,7-2.45-4.12,0,0L60.69,73Z"/><path d="M69.29,54l1.44-1.27L76.22,59c1.41,1.6,2.08,2.87-.44,5.08-2.16,1.9-3.25,1.42-4.77-.31l-5.59-6.34,1.32-1.16-.29-.33-4.07,3.58.29.33,1.23-1.08,5.74,6.52c1.58,1.79,2.88,2.4,6.08-.42s2.63-4.24,1-6.07l-5.62-6.38,1.12-1L72,51l-3,2.61Z"/><polygon points="38.75 91.55 39.63 89.84 47.28 93.81 47.27 93.85 36.31 95.27 34.44 98.89 34.83 99.09 35.58 97.64 46.08 103.1 45.33 104.55 45.72 104.75 47.63 101.09 47.23 100.88 46.33 102.62 36.2 97.36 36.21 97.33 50.8 95.43 50.88 95.08 39.88 89.37 40.64 87.91 40.24 87.71 38.35 91.35 38.75 91.55"/><polygon points="81.05 45.05 82.63 43.95 87.55 51.02 87.52 51.04 77.17 47.21 73.82 49.54 74.07 49.9 75.42 48.96 82.17 58.68 80.83 59.62 81.08 59.98 84.48 57.62 84.22 57.26 82.61 58.38 76.09 49 76.12 48.98 89.92 54.09 90.15 53.82 83.07 43.64 84.41 42.71 84.16 42.34 80.8 44.68 81.05 45.05"/><polygon points="31.99 106.36 32.63 104.81 43.56 109.34 42.92 110.88 43.33 111.05 45.38 106.09 44.98 105.92 44.34 107.47 33.4 102.94 34.04 101.39 33.63 101.22 31.58 106.19 31.99 106.36"/><polygon points="99.96 34.52 101.62 33.73 102.77 43.54 102.74 43.55 96.05 36.36 97.71 35.58 97.52 35.18 92.63 37.49 92.82 37.89 94.14 37.27 103.24 46.78 103.59 46.61 102.18 33.47 103.37 32.9 103.18 32.5 99.77 34.12 99.96 34.52"/><path d="M115.85,41.07,113.3,42l-1.9-5.45.91-.32c2-.68,2.25-.16,3,1.94l.5-.18-2-5.73-.5.18c.65,1.82.77,2.59-1.19,3.27l-.91.32-1.81-5.2.81-.28c3.84-1.34,4.57-1.25,6.12,1.53l.44-.15-1.38-3.65-9.62,3.35.15.42,1.58-.55,3.89,11.18-1.58.55.15.42,10.11-3.52-1.28-4.16-.45.16C118.81,38.59,118.42,40.18,115.85,41.07Z"/><path d="M252.47,86.49l-1.54-2.21L255.65,81l.55.79c1.19,1.7.76,2.13-1,3.42l.31.44,5-3.48-.31-.44c-1.57,1.12-2.28,1.44-3.47-.25l-.55-.79,4.52-3.16.49.7c2.33,3.33,2.45,4.05.19,6.31l.27.38,3.14-2.32-5.84-8.35-.36.25,1,1.37-9.7,6.78-1-1.37-.36.25,6.14,8.77,3.65-2.36-.28-.39C255.67,88.67,254,88.72,252.47,86.49Z"/><path d="M130.31,34.23c-.78-2.71-1.63-2.87-4.3-2.58v0c1.62-.6,2.76-1.48,2.29-3.5-.59-2.51-2.25-2.61-4.45-2.1l-5.07,1.18.1.43,1.63-.38,2.69,11.53-1.63.38.1.43,5.16-1.2-.1-.43-1.56.36L123.8,32.5l1.09-.25c2.21-.52,2.77.14,3.43,2.36.73,2.41,1.07,3.18,3.18,2.69l1.27-.29-.1-.43-.43.1C131.18,36.92,130.83,36,130.31,34.23ZM123.67,32l-1.21-5.16.9-.21c1.77-.41,2.58.41,3,2,.33,1.42.1,2.72-1.44,3.08Z"/><path d="M134.49,26.39A2.18,2.18,0,0,1,136.63,24c1.65-.22,2.8.61,3.49,2.57l.46-.07-.47-2.75a8.49,8.49,0,0,0-3.36-.32c-2.08.28-3.82,1.79-3.52,4,.58,4.35,7.26,2.22,7.71,5.62.23,1.69-1.12,2.64-2.58,2.84a3.89,3.89,0,0,1-4.17-3.32l-.48.07.6,3.55a8.73,8.73,0,0,0,3.89.29c2.19-.29,4.22-2,3.9-4.42C141.47,27.34,134.92,29.55,134.49,26.39Z"/><path d="M228.39,48.35a2.17,2.17,0,0,1,3.2-.24c1.34,1,1.6,2.38.74,4.27l.38.27,1.56-2.31a8.5,8.5,0,0,0-2.2-2.56c-1.7-1.24-4-1.36-5.33.46-2.59,3.54,3.7,6.63,1.67,9.4-1,1.38-2.64,1.13-3.83.26a3.89,3.89,0,0,1-.71-5.29l-.4-.29-2,3a8.75,8.75,0,0,0,2.61,2.91c1.78,1.31,4.43,1.48,5.87-.49C232.76,53.87,226.51,50.92,228.39,48.35Z"/><polygon points="181.81 25.85 183.44 26.23 180.71 37.75 179.09 37.36 178.98 37.79 184.21 39.03 184.31 38.6 182.68 38.22 185.41 26.7 187.04 27.08 187.14 26.65 181.92 25.42 181.81 25.85"/><path d="M150.07,26.5h.53c.09-1.66.79-3.51,2.63-3.49l1.53,0-.14,11.72-2,0v.44l5.94.07V34.8l-2,0,.14-11.72,1.53,0c1.82,0,2.49,1.9,2.54,3.55h.53l0-4.08-11.32-.14Z"/><path d="M204.77,36.9l.48.23c.79-1.46,2.21-2.84,3.86-2l1.38.67-5.12,10.54-1.76-.86-.19.4,5.35,2.6L209,48l-1.76-.86,5.12-10.54,1.38.67c1.64.79,1.45,2.78.79,4.3l.48.23,1.78-3.67-10.18-4.94Z"/><path d="M269.3,99l.21.5c1.55-.58,3.53-.69,4.25,1l.6,1.41-10.79,4.58-.76-1.8-.41.17,2.32,5.47.41-.17-.77-1.8,10.79-4.58.6,1.41c.71,1.67-.73,3-2.23,3.75l.21.49,3.75-1.59L273,97.43Z"/><polygon points="171.21 23.58 171.16 24.02 172.96 24.23 169.72 29.09 167.53 23.59 169.37 23.81 169.42 23.37 163.79 22.71 163.74 23.15 165.22 23.33 167.84 29.55 167.16 35.47 165.48 35.27 165.43 35.71 170.74 36.33 170.79 35.89 169.17 35.7 169.86 29.75 173.51 24.29 174.9 24.45 174.95 24.01 171.21 23.58"/><path d="M241.07,72.19l8.86-7.76-1.11-1.26.36-.32L252.8,67l-.36.32L251.34,66l-8.86,7.76,1.1,1.25-.36.32-3.61-4.12.36-.32Zm13-3.79,2.2,2.51-.36.32-.8-.91-5.88,0-2,8.92.6.69-.36.32-3.11-3.55.36-.32.74.84,1.79-7.43,7.42.07-1-1.1Z"/><polygon points="163.47 272.56 165.12 272.4 166.3 284.08 164.65 284.25 164.7 284.68 170 284.14 169.95 283.71 168.3 283.88 167.12 272.2 168.77 272.03 168.73 271.6 163.43 272.13 163.47 272.56"/><polygon points="242.52 233.59 243.6 232.33 252.5 239.99 251.41 241.25 251.75 241.53 255.22 237.5 254.89 237.21 253.81 238.47 244.91 230.81 245.99 229.55 245.66 229.27 242.19 233.3 242.52 233.59"/><polygon points="268.59 186.3 269 184.7 280.37 187.63 279.96 189.24 280.38 189.35 281.71 184.19 281.29 184.08 280.87 185.69 269.51 182.75 269.92 181.15 269.5 181.04 268.17 186.19 268.59 186.3"/><polygon points="190.41 267.15 192.24 266.6 194.69 274.79 194.66 274.8 186.08 267.99 182.21 269.16 182.33 269.58 183.89 269.11 187.26 280.35 185.71 280.82 185.83 281.24 189.76 280.06 189.63 279.64 187.77 280.2 184.51 269.35 184.55 269.34 195.98 278.41 196.28 278.23 192.74 266.45 194.3 265.99 194.18 265.56 190.28 266.73 190.41 267.15"/><polygon points="79.35 246.41 80.58 247.43 77.1 251.65 72.87 248.15 76.35 243.93 77.58 244.95 77.85 244.61 73.8 241.26 73.52 241.6 74.8 242.66 67.33 251.71 66.05 250.65 65.77 250.99 69.82 254.34 70.1 254 68.87 252.98 72.59 248.49 76.82 251.98 73.1 256.48 71.87 255.46 71.6 255.8 75.65 259.15 75.93 258.82 74.65 257.76 82.13 248.71 83.41 249.77 83.69 249.43 79.63 246.08 79.35 246.41"/><polygon points="38.36 180.88 38.71 182.44 33.37 183.62 32.19 178.26 37.52 177.08 37.87 178.64 38.29 178.54 37.16 173.41 36.73 173.5 37.09 175.12 25.63 177.66 25.27 176.04 24.84 176.14 25.98 181.27 26.41 181.18 26.06 179.62 31.76 178.36 32.94 183.72 27.25 184.98 26.9 183.42 26.48 183.52 27.61 188.65 28.04 188.56 27.68 186.94 39.14 184.4 39.5 186.02 39.93 185.93 38.79 180.79 38.36 180.88"/><path d="M144.63,272l-.35,0-5.17,12-1.48-.12,0,.44,3.93.32,0-.44-1.85-.15,1.61-3.85,3.27.27.87,4.06-1.83-.15,0,.44,5.67.47,0-.43-1.62-.13Zm-3.09,7.64,1.88-4.37h0l1,4.6Z"/><path d="M89.36,253l-.3-.19-10.28,8.07-1.24-.81-.24.37,3.29,2.16.24-.37-1.55-1,3.26-2.61,2.75,1.8-1.17,4-1.54-1-.24.37,4.75,3.12.24-.37L86,265.63ZM83,258.27l3.74-2.93,0,0-1.31,4.53Z"/><path d="M212.83,256.79l-.31.17,2.5,12.83-1.29.73.22.38,3.42-1.95-.22-.38-1.61.92-.84-4.09,2.85-1.62,3,2.86-1.6.91.22.38,4.94-2.81-.22-.38-1.41.8Zm1.76,8.05-.91-4.67,0,0,3.44,3.23Z"/><polygon points="54.16 218.13 55.16 219.76 47.88 224.24 47.86 224.21 52.23 214.17 50.12 210.72 49.74 210.95 50.59 212.34 40.59 218.49 39.74 217.1 39.37 217.33 41.52 220.82 41.89 220.59 40.87 218.94 50.52 213 50.54 213.03 44.71 226.41 44.96 226.65 55.44 220.21 56.29 221.59 56.66 221.37 54.53 217.9 54.16 218.13"/><path d="M267.68,218.62l-1.34,2.32-5-2.87.48-.83c1-1.78,1.59-1.58,3.51-.48l.27-.46-5.21-3-.27.46c1.67.95,2.25,1.45,1.22,3.22l-.48.83-4.73-2.74.43-.74c2-3.49,2.62-3.9,5.59-2.81l.23-.4-3.4-1.85L254,218l.38.22.83-1.44,10.16,5.88-.83,1.44.38.22,5.32-9.19-3.65-2.3-.24.41C268.3,214.83,269,216.28,267.68,218.62Z"/><path d="M66.69,237.44a2.16,2.16,0,0,1,3.17.26c1.16,1.17,1.2,2.58.07,4.3l.33.32,1.89-2a8.4,8.4,0,0,0-1.76-2.85c-1.47-1.48-3.7-1.95-5.29-.37-3.08,3.07,2.61,7.07.19,9.46-1.2,1.19-2.76.7-3.79-.34a3.86,3.86,0,0,1,.12-5.29l-.34-.34-2.45,2.6a8.67,8.67,0,0,0,2.11,3.25c1.55,1.55,4.12,2.13,5.83.42C70.13,243.52,64.45,239.67,66.69,237.44Z"/><polygon points="101.5 260.61 102.92 261.33 100.45 266.2 95.56 263.72 98.03 258.85 99.45 259.57 99.65 259.18 94.96 256.8 94.76 257.19 96.24 257.94 90.94 268.41 89.45 267.66 89.26 268.06 93.95 270.43 94.15 270.04 92.72 269.32 95.36 264.12 100.26 266.6 97.62 271.8 96.2 271.08 96 271.47 100.69 273.85 100.89 273.45 99.41 272.71 104.72 262.23 106.2 262.99 106.39 262.59 101.7 260.22 101.5 260.61"/><polygon points="202.1 262.81 203.56 262.18 205.72 267.21 200.68 269.37 198.52 264.35 199.99 263.72 199.81 263.32 194.98 265.39 195.15 265.79 196.68 265.14 201.31 275.93 199.78 276.58 199.96 276.98 204.79 274.91 204.62 274.51 203.15 275.13 200.85 269.77 205.89 267.61 208.19 272.97 206.73 273.6 206.9 274 211.74 271.93 211.56 271.52 210.04 272.18 205.41 261.39 206.94 260.74 206.76 260.34 201.93 262.41 202.1 262.81"/><path d="M267.68,195a2.16,2.16,0,0,1-1.18-3c.53-1.56,1.78-2.22,3.82-2l.14-.44-2.65-.79a8.46,8.46,0,0,0-1.77,2.85c-.67,2-.09,4.18,2,4.9,4.12,1.39,5.16-5.48,8.38-4.39,1.6.54,1.86,2.16,1.39,3.54a3.85,3.85,0,0,1-4.79,2.25l-.16.46,3.42,1a8.64,8.64,0,0,0,2-3.34c.7-2.08.07-4.63-2.22-5.41C271.6,189.2,270.68,196,267.68,195Z"/><path d="M273.82,180.71l.09-.52c-1.61-.35-3.31-1.33-3-3.13l.26-1.5,11.45,2-.34,1.91.43.08,1-5.81-.43-.08L283,175.6l-11.45-2,.26-1.5c.31-1.78,2.25-2.13,3.88-1.92l.09-.52-4-.7L269.84,180Z"/><path d="M276.72,157v-.53c-1.64,0-3.51-.67-3.55-2.49l0-1.52,11.62-.25,0,1.94h.44l-.13-5.89h-.44l0,1.95-11.62.25,0-1.52c0-1.8,1.8-2.53,3.44-2.64v-.53l-4,.09.24,11.23Z"/><path d="M229.38,246l1.49-1.17,5.09,6.49c1.31,1.67,1.89,3-.73,5-2.24,1.76-3.3,1.22-4.7-.57l-5.17-6.6,1.37-1.08-.27-.34-4.23,3.31.27.35,1.28-1,5.31,6.78c1.46,1.86,2.71,2.54,6-.07s2.85-4.05,1.35-6l-5.21-6.64,1.17-.91-.27-.35-3.08,2.41Z"/><polygon points="238.74 237.44 240.1 236.1 246.08 242.21 246.05 242.24 235.29 240.19 232.4 243.02 232.71 243.33 233.87 242.19 242.07 250.59 240.91 251.73 241.22 252.04 244.15 249.17 243.84 248.86 242.45 250.22 234.54 242.12 234.56 242.1 248.9 244.83 249.07 244.53 240.48 235.73 241.65 234.6 241.34 234.28 238.43 237.12 238.74 237.44"/><polygon points="272.69 144.69 272.52 143.04 284.2 141.86 284.36 143.51 284.8 143.47 284.26 138.17 283.83 138.21 284 139.86 272.32 141.04 272.15 139.4 271.71 139.44 272.25 144.74 272.69 144.69"/><polygon points="251.59 221.97 252.66 220.5 258.35 228.47 258.33 228.5 249.08 225.45 250.15 223.97 249.79 223.72 246.65 228.06 247 228.32 247.85 227.15 260.3 231.06 260.53 230.75 253.02 220 253.79 218.94 253.43 218.68 251.24 221.72 251.59 221.97"/><path d="M284.48,162.67l-.2,2.67-5.71-.42.07-1c.15-2,.75-2.11,2.95-2l0-.53-6-.44,0,.53c1.91.13,2.66.32,2.51,2.37l-.07,1-5.45-.4.06-.85c.3-4,.66-4.65,3.81-5l0-.46-3.87-.18-.74,10.08.44,0,.12-1.65,11.71.86L284,169l.44,0,.78-10.59-4.29-.48,0,.48C283.39,159,284.68,160,284.48,162.67Z"/><path d="M36.84,211l-1.15-2.41,5.16-2.47.41.86c.89,1.85.4,2.21-1.58,3.17l.23.48,5.43-2.59-.23-.48c-1.72.84-2.47,1-3.35-.82l-.41-.86,4.93-2.36.37.77c1.74,3.64,1.74,4.37-.84,6.21l.2.42,3.45-1.77-4.36-9.12-.39.19.72,1.5-10.59,5.06-.72-1.5-.39.19,4.58,9.58,4-1.71-.21-.43C39.61,213.69,38,213.48,36.84,211Z"/><path d="M272.7,202c-2.61-1-3.25-.41-4.61,1.88h0c.49-1.64.47-3.07-1.41-3.9-2.34-1-3.41.23-4.32,2.28L260.25,207l.4.18.67-1.52,10.74,4.74-.67,1.52.4.18,2.12-4.81-.4-.18-.64,1.45-5.42-2.39.45-1c.91-2.06,1.76-2.11,3.91-1.32,2.34.86,3.16,1,4-.92l.52-1.18-.4-.18-.18.4C275.34,202.91,274.45,202.67,272.7,202Zm-5.76,3.92-4.81-2.12.37-.84c.73-1.65,1.86-1.81,3.36-1.15,1.33.58,2.22,1.54,1.58,3Z"/><path d="M113.95,275.42c.83-2.66.2-3.27-2.17-4.48v0c1.67.38,3.1.27,3.8-1.66.88-2.4-.45-3.39-2.55-4.16l-4.85-1.78-.15.41,1.56.57-4,11-1.56-.57-.15.41,4.93,1.8.15-.41-1.49-.55,2-5.57,1,.38c2.12.77,2.22,1.62,1.57,3.82-.7,2.39-.84,3.22,1.18,4l1.21.44.15-.41-.42-.15C113.21,278.12,113.39,277.21,113.95,275.42Zm-4.28-5.49,1.81-4.94.86.32c1.69.62,1.92,1.74,1.36,3.28-.5,1.36-1.39,2.31-2.87,1.77Z"/><path d="M33.91,166.17a2.16,2.16,0,0,1,2.34,2.15c.2,1.64-.64,2.77-2.59,3.44l.07.46,2.73-.44a8.42,8.42,0,0,0,.36-3.33c-.25-2.07-1.73-3.81-4-3.54-4.32.53-2.28,7.17-5.66,7.59-1.68.2-2.61-1.14-2.78-2.59a3.85,3.85,0,0,1,3.34-4.1l-.06-.48-3.53.55a8.67,8.67,0,0,0-.33,3.86c.27,2.17,1.94,4.21,4.34,3.91C32.89,173.08,30.77,166.55,33.91,166.17Z"/><polygon points="175.82 270.94 177.44 270.6 179.84 282.09 178.22 282.43 178.31 282.86 183.52 281.77 183.43 281.34 181.81 281.68 179.41 270.19 181.03 269.85 180.94 269.42 175.73 270.51 175.82 270.94"/><polygon points="120.2 268.03 121.8 268.47 118.7 279.79 117.1 279.35 116.98 279.77 122.12 281.18 122.23 280.76 120.63 280.32 123.73 269 125.34 269.44 125.45 269.01 120.32 267.61 120.2 268.03"/><path d="M53.53,224.06l.32.42c1.35-.94,3.22-1.53,4.33-.09l.92,1.21-9.23,7.07-1.18-1.54-.35.27,3.58,4.68.35-.27-1.18-1.54,9.23-7.07.92,1.21c1.09,1.43,0,3.1-1.22,4.16l.32.42,3.21-2.46-6.83-8.92Z"/><path d="M32.31,139l0,.53c1.63.2,3.42,1,3.28,2.83l-.12,1.51L23.84,143,24,141l-.44,0-.46,5.87.44,0,.15-1.94,11.59.91-.12,1.51c-.14,1.8-2,2.34-3.69,2.28l0,.53,4,.32.88-11.2Z"/><path d="M29.64,193.55l11-3.89-.55-1.57.45-.16,1.81,5.13-.45.16-.55-1.55-11,3.89.55,1.55-.45.16-1.81-5.13.45-.16ZM43,194.84,44.09,198l-.45.16-.4-1.14-5.4-2.2-5.12,7.48.3.86-.45.16L31,198.87l.45-.16.37,1,4.38-6.18L43,196.37,42.54,195Z"/><path d="M35.83,157.39c-.09-3.08-2.53-5.52-6.51-5.41s-6.28,2.68-6.2,5.76,2.53,5.52,6.51,5.4S35.92,160.47,35.83,157.39ZM26,160.64a2.4,2.4,0,0,1-1.83-1.14,4,4,0,0,1-.51-1.81,2.83,2.83,0,0,1,.69-2.2,3.47,3.47,0,0,1,1.87-.92,21.8,21.8,0,0,1,3.07-.26,17.2,17.2,0,0,1,3.91.19,2.37,2.37,0,0,1,1.6,1.08,3.81,3.81,0,0,1,.5,1.85,3.54,3.54,0,0,1-.38,1.77,2.47,2.47,0,0,1-1.35,1.14,11.79,11.79,0,0,1-3.47.44A22.25,22.25,0,0,1,26,160.64Z"/><path d="M126.83,281.74l2.06-11.41L127.3,270l.08-.47,5.31,1a8.32,8.32,0,0,1,3.06,1.12,4.63,4.63,0,0,1,1.8,2.54,7.17,7.17,0,0,1,.25,3.62,6.67,6.67,0,0,1-1.6,3.36,5.18,5.18,0,0,1-2.6,1.7,7.81,7.81,0,0,1-3.16,0l-5.28-1,.09-.47Zm4.15-11-2.06,11.41,1.53.28a7.05,7.05,0,0,0,2,.12,2.28,2.28,0,0,0,1.43-.78,5,5,0,0,0,1-1.84,22.47,22.47,0,0,0,.74-3.07,8.25,8.25,0,0,0,.06-3.53,2.57,2.57,0,0,0-1.11-1.65,6.86,6.86,0,0,0-2.06-.65Z"/><path d="M160.39,276.18l-.55,0a7.86,7.86,0,0,0-.42-1.37,3.19,3.19,0,0,0-3.16-2.17,2.81,2.81,0,0,0-2.08.72,3,3,0,0,0-.77,1.73,22.38,22.38,0,0,0-.09,3,29.75,29.75,0,0,0,.3,4.57,2.81,2.81,0,0,0,.93,1.67,2.5,2.5,0,0,0,1.67.53,2.85,2.85,0,0,0,1.39-.36,1.49,1.49,0,0,0,.75-1,9.27,9.27,0,0,0,.12-2v-.67l-1.74,0v-.48l5.62-.11v.48l-1.46,0a3.93,3.93,0,0,1-1.4,3.47,5.23,5.23,0,0,1-3.06,1.1,4.8,4.8,0,0,1-3.94-1.89,7.17,7.17,0,0,1-1.65-4.56,7.06,7.06,0,0,1,1.51-4.65,4.93,4.93,0,0,1,3.94-2,4.88,4.88,0,0,1,3,1.11c.29.22.51-.34.51-.34h.5Z"/></g></g></svg>