<svg width="10" height="10" viewBox="0 0 10 10" fill="none" xmlns="http://www.w3.org/2000/svg">
<g clip-path="url(#clip0)">
<path d="M9.7252 8.39974L7.43106 6.10541C7.08923 6.63703 6.63685 7.08918 6.10522 7.43103L8.39956 9.72537C8.76583 10.0916 9.35969 10.0916 9.72518 9.72537C10.0915 9.35978 10.0915 8.76591 9.7252 8.39974Z" fill="white"/>
<path d="M7.50095 3.75C7.50095 1.67912 5.82191 0 3.75098 0C1.6801 0 0.000976562 1.67912 0.000976562 3.75C0.000976562 5.82089 1.6801 7.49992 3.75098 7.49992C5.82191 7.49992 7.50095 5.82089 7.50095 3.75ZM3.75098 6.5624C2.20007 6.5624 0.938504 5.30093 0.938504 3.75002C0.938504 2.19912 2.20007 0.937547 3.75098 0.937547C5.30185 0.937547 6.56352 2.19912 6.56352 3.75002C6.56352 5.30093 5.30185 6.5624 3.75098 6.5624Z" fill="white"/>
<path d="M1.5625 3.74999H2.18742C2.18742 2.88845 2.88843 2.1875 3.74995 2.1875V1.56252C2.54395 1.56252 1.5625 2.54396 1.5625 3.74999Z" fill="white"/>
</g>
<defs>
<clipPath id="clip0">
<rect width="10" height="10" fill="white"/>
</clipPath>
</defs>
</svg>
