<svg width="11" height="15" viewBox="0 0 11 15" fill="none" xmlns="http://www.w3.org/2000/svg">
<path d="M10.2335 12.3486L9.54987 11.0655V7.89661C9.54987 5.93772 8.23431 4.28045 6.44031 3.76153V2.17975C6.44034 1.5212 5.90461 0.985443 5.24606 0.985443C4.58751 0.985443 4.05179 1.5212 4.05179 2.17975V3.76156C2.25784 4.2805 0.942226 5.93775 0.942226 7.89664V11.0655L0.258579 12.3486C0.126919 12.5957 0.134364 12.8865 0.278451 13.1266C0.422565 13.3666 0.675731 13.51 0.955721 13.51H3.66989C3.71612 14.3394 4.40527 15 5.24606 15C6.08683 15 6.776 14.3394 6.82223 13.51H9.53643C9.81639 13.51 10.0696 13.3666 10.2137 13.1266C10.3577 12.8865 10.3652 12.5957 10.2335 12.3486ZM4.6837 2.17975C4.6837 1.86962 4.93596 1.61736 5.24603 1.61736C5.55611 1.61736 5.80837 1.86962 5.80837 2.17975V3.62959C5.62426 3.60545 5.43657 3.59286 5.24603 3.59286C5.05544 3.59286 4.86778 3.60548 4.6837 3.62959V2.17975ZM1.57417 7.89661C1.57417 5.87195 3.22137 4.22472 5.24606 4.22472C7.27075 4.22472 8.91796 5.87195 8.91796 7.89661V10.804H1.57417V7.89661ZM5.24606 14.3681C4.75388 14.3681 4.34839 13.9906 4.3035 13.51H6.18868C6.14373 13.9906 5.73819 14.3681 5.24606 14.3681ZM9.67187 12.8013C9.65802 12.8244 9.61715 12.878 9.53643 12.878H0.955721C0.875027 12.878 0.834106 12.8244 0.820283 12.8013C0.806433 12.7783 0.778349 12.717 0.816314 12.6457L1.4609 11.4359H9.03128L9.67586 12.6457C9.71377 12.717 9.68566 12.7783 9.67187 12.8013Z" fill="#005CA9"/>
<path d="M5.24606 5.06699C3.68579 5.06699 2.41638 6.3364 2.41638 7.89667C2.41638 8.07114 2.55784 8.21262 2.73234 8.21262C2.90684 8.21262 3.0483 8.07114 3.0483 7.89667C3.0483 6.68484 4.03421 5.6989 5.24606 5.6989C5.42056 5.6989 5.56202 5.55741 5.56202 5.38294C5.56202 5.20842 5.42056 5.06699 5.24606 5.06699Z" fill="#005CA9"/>
</svg>
