<svg width="32" height="32" viewBox="0 0 32 32" fill="none" xmlns="http://www.w3.org/2000/svg">
<circle cx="16" cy="16" r="13.5" stroke="#66CA37" stroke-width="5"/>
<path d="M22.9872 13.8806C22.9872 13.6713 22.9035 13.4621 22.7528 13.3114L21.6144 12.173C21.4637 12.0223 21.2545 11.9386 21.0452 11.9386C20.8359 11.9386 20.6267 12.0223 20.476 12.173L14.9849 17.6724L12.524 15.2031C12.3733 15.0525 12.1641 14.9687 11.9548 14.9687C11.7455 14.9687 11.5363 15.0525 11.3856 15.2031L10.2472 16.3415C10.0965 16.4922 10.0128 16.7015 10.0128 16.9107C10.0128 17.12 10.0965 17.3292 10.2472 17.4799L13.2773 20.51L14.4157 21.6484C14.5664 21.7991 14.7757 21.8828 14.9849 21.8828C15.1942 21.8828 15.4035 21.7991 15.5541 21.6484L16.6925 20.51L22.7528 14.4498C22.9035 14.2991 22.9872 14.0898 22.9872 13.8806Z" fill="#66CA37"/>
</svg>
