<svg width="12" height="13" viewBox="0 0 12 13" fill="none" xmlns="http://www.w3.org/2000/svg">
<path d="M7.96205 9.46652C7.88839 9.79464 7.6942 9.875 7.41964 9.72098L5.91964 8.61607L5.19643 9.3125C5.11607 9.39286 5.04911 9.45982 4.89509 9.45982L5.00223 7.93304L7.78125 5.42187C7.90179 5.31473 7.75446 5.25446 7.59375 5.36161L4.15848 7.52455L2.67857 7.0625C2.35714 6.96205 2.35045 6.74107 2.74554 6.58705L8.53125 4.35714C8.79911 4.2567 9.03348 4.41741 8.94643 4.82589L7.96205 9.46652ZM12 6.71429C12 3.39955 9.31473 0.714285 6 0.714285C2.68527 0.714285 0 3.39955 0 6.71429C0 10.029 2.68527 12.7143 6 12.7143C9.31473 12.7143 12 10.029 12 6.71429Z" fill="#777777"/>
</svg>
